SplineFontDB: 3.2
FontName: korean15m
FullName: korean15m
FamilyName: korean15m
Weight: Regular
Copyright: Copyright 2022 The Noto Project Authors (https://github.com/notofonts/latin-greek-cyrillic)
Version: 2.013
ItalicAngle: 0
UnderlinePosition: -125
UnderlineWidth: 50
Ascent: 800
Descent: 200
InvalidEm: 0
sfntRevision: 0x00020354
LayerCount: 2
Layer: 0 1 "Back" 1
Layer: 1 1 "Fore" 0
XUID: [1021 426 849761687 13685114]
StyleMap: 0x0040
FSType: 0
OS2Version: 4
OS2_WeightWidthSlopeOnly: 0
OS2_UseTypoMetrics: 1
CreationTime: 1633362791
ModificationTime: 1741115495
PfmFamily: 17
TTFWeight: 400
TTFWidth: 5
LineGap: 0
VLineGap: 0
Panose: 2 11 5 2 4 5 4 2 2 4
OS2TypoAscent: 1069
OS2TypoAOffset: 0
OS2TypoDescent: -293
OS2TypoDOffset: 0
OS2TypoLinegap: 0
OS2WinAscent: 1124
OS2WinAOffset: 0
OS2WinDescent: 395
OS2WinDOffset: 0
HheadAscent: 1069
HheadAOffset: 0
HheadDescent: -293
HheadDOffset: 0
OS2SubXSize: 650
OS2SubYSize: 600
OS2SubXOff: 0
OS2SubYOff: 75
OS2SupXSize: 650
OS2SupYSize: 600
OS2SupXOff: 0
OS2SupYOff: 350
OS2StrikeYSize: 50
OS2StrikeYPos: 322
OS2CapHeight: 714
OS2XHeight: 536
OS2Vendor: 'GOOG'
OS2CodePages: 0000019f.00000000
OS2UnicodeRanges: e00002ff.4000201f.08000029.00100000




























































































































































































































































































































































































































































MarkAttachClasses: 3

StartChar: exclam
Encoding: 33 33 3
Width: 840
Flags: W
LayerCount: 2
Fore
SplineSet
415 112 m 0,0,1
 399 112 399 112 390 123 c 128,-1,2
 381 134 381 134 376.5 161 c 128,-1,3
 372 188 372 188 371 233.5 c 128,-1,4
 370 279 370 279 370 348 c 0,5,6
 370 445 370 445 371 499 c 128,-1,7
 372 553 372 553 378 579 c 128,-1,8
 384 605 384 605 396.5 610.5 c 128,-1,9
 409 616 409 616 432 616 c 0,10,11
 444 616 444 616 451 609 c 128,-1,12
 458 602 458 602 462.5 579 c 128,-1,13
 467 556 467 556 468.5 511 c 128,-1,14
 470 466 470 466 470 389 c 0,15,16
 470 249 470 249 460 180.5 c 128,-1,17
 450 112 450 112 415 112 c 0,0,1
402 593 m 0,18,19
 398 593 398 593 392 581 c 128,-1,20
 386 569 386 569 386 544 c 0,21,22
 386 531 386 531 387.5 518.5 c 128,-1,23
 389 506 389 506 396 506 c 0,24,25
 402 506 402 506 404 510 c 128,-1,26
 406 514 406 514 406 519.5 c 128,-1,27
 406 525 406 525 405.5 532 c 128,-1,28
 405 539 405 539 405 545 c 0,29,30
 406 562 406 562 408 577.5 c 128,-1,31
 410 593 410 593 402 593 c 0,18,19
416 -8 m 0,32,33
 397 -8 397 -8 385.5 4.5 c 128,-1,34
 374 17 374 17 374 38 c 0,35,36
 374 57 374 57 384 73.5 c 128,-1,37
 394 90 394 90 416 90 c 0,38,39
 439 90 439 90 451 74.5 c 128,-1,40
 463 59 463 59 463 38 c 0,41,42
 463 15 463 15 449.5 3.5 c 128,-1,43
 436 -8 436 -8 416 -8 c 0,32,33
398 44 m 0,44,45
 399 55 399 55 403 64 c 128,-1,46
 407 73 407 73 402 73 c 0,47,48
 395 73 395 73 390.5 58.5 c 128,-1,49
 386 44 386 44 386 33 c 0,50,51
 386 23 386 23 391 23 c 0,52,53
 395 23 395 23 396 30.5 c 128,-1,54
 397 38 397 38 398 44 c 0,44,45
EndSplineSet



EndChar

StartChar: quotedbl
Encoding: 34 34 4
Width: 840
Flags: W
LayerCount: 2
Fore
SplineSet
376 714 m 1,0,-1
 356 456 l 1,1,-1
 301 456 l 1,2,-1
 281 714 l 1,3,-1
 376 714 l 1,0,-1
559 714 m 1,4,-1
 539 456 l 1,5,-1
 484 456 l 1,6,-1
 464 714 l 1,7,-1
 559 714 l 1,4,-1
EndSplineSet
EndChar

StartChar: numbersign
Encoding: 35 35 5
Width: 840
Flags: W
LayerCount: 2
Fore
SplineSet
433.954101562 108 m 0,0,1
 415.954101562 108 415.954101562 108 409.454101562 120 c 128,-1,2
 402.954101562 132 402.954101562 132 401.954101562 147 c 0,3,4
 400.954101562 164 400.954101562 164 407.454101562 181 c 128,-1,5
 413.954101562 198 413.954101562 198 412.954101562 211 c 0,6,7
 412.954101562 214 412.954101562 214 405.454101562 215 c 128,-1,8
 397.954101562 216 397.954101562 216 395.954101562 216 c 2,9,-1
 364.954101562 216 l 1,10,11
 361.954101562 207 361.954101562 207 355.954101562 192 c 128,-1,12
 349.954101562 177 349.954101562 177 341.954101562 162 c 128,-1,13
 333.954101562 147 333.954101562 147 323.454101562 136.5 c 128,-1,14
 312.954101562 126 312.954101562 126 299.954101562 126 c 0,15,16
 283.954101562 126 283.954101562 126 277.454101562 136 c 128,-1,17
 270.954101562 146 270.954101562 146 269.954101562 160 c 0,18,19
 268.954101562 177 268.954101562 177 273.454101562 187.5 c 128,-1,20
 277.954101562 198 277.954101562 198 276.954101562 214 c 0,21,22
 276.954101562 222 276.954101562 222 267.454101562 222.5 c 128,-1,23
 257.954101562 223 257.954101562 223 245.954101562 225 c 128,-1,24
 233.954101562 227 233.954101562 227 223.954101562 234.5 c 128,-1,25
 213.954101562 242 213.954101562 242 212.954101562 264 c 0,26,27
 212.954101562 276 212.954101562 276 218.954101562 283.5 c 128,-1,28
 224.954101562 291 224.954101562 291 233.954101562 295 c 128,-1,29
 242.954101562 299 242.954101562 299 253.954101562 300.5 c 128,-1,30
 264.954101562 302 264.954101562 302 274.954101562 302 c 0,31,32
 286.954101562 302 286.954101562 302 294.454101562 309.5 c 128,-1,33
 301.954101562 317 301.954101562 317 305.954101562 328 c 128,-1,34
 309.954101562 339 309.954101562 339 312.454101562 351 c 128,-1,35
 314.954101562 363 314.954101562 363 316.954101562 372 c 1,36,37
 308.954101562 372 308.954101562 372 296.954101562 373.5 c 128,-1,38
 284.954101562 375 284.954101562 375 273.454101562 378.5 c 128,-1,39
 261.954101562 382 261.954101562 382 253.954101562 389.5 c 128,-1,40
 245.954101562 397 245.954101562 397 245.954101562 409 c 0,41,42
 244.954101562 435 244.954101562 435 259.454101562 442 c 128,-1,43
 273.954101562 449 273.954101562 449 311.954101562 449 c 0,44,45
 327.954101562 449 327.954101562 449 333.954101562 452.5 c 128,-1,46
 339.954101562 456 339.954101562 456 344.954101562 472 c 0,47,48
 347.954101562 479 347.954101562 479 350.954101562 489.5 c 128,-1,49
 353.954101562 500 353.954101562 500 359.454101562 510 c 128,-1,50
 364.954101562 520 364.954101562 520 373.954101562 527 c 128,-1,51
 382.954101562 534 382.954101562 534 397.954101562 534 c 0,52,53
 417.954101562 534 417.954101562 534 425.454101562 522 c 128,-1,54
 432.954101562 510 432.954101562 510 433.954101562 499 c 0,55,56
 433.954101562 489 433.954101562 489 430.454101562 480.5 c 128,-1,57
 426.954101562 472 426.954101562 472 427.954101562 462 c 0,58,59
 427.954101562 457 427.954101562 457 432.454101562 454.5 c 128,-1,60
 436.954101562 452 436.954101562 452 442.454101562 450.5 c 128,-1,61
 447.954101562 449 447.954101562 449 453.954101562 449 c 128,-1,62
 459.954101562 449 459.954101562 449 462.954101562 449 c 0,63,64
 472.954101562 449 472.954101562 449 478.954101562 461 c 128,-1,65
 484.954101562 473 484.954101562 473 490.954101562 488 c 128,-1,66
 496.954101562 503 496.954101562 503 504.954101562 515 c 128,-1,67
 512.954101562 527 512.954101562 527 527.954101562 527 c 0,68,69
 547.954101562 527 547.954101562 527 556.954101562 511 c 128,-1,70
 565.954101562 495 565.954101562 495 566.954101562 483 c 0,71,72
 566.954101562 475 566.954101562 475 563.954101562 467.5 c 128,-1,73
 560.954101562 460 560.954101562 460 560.954101562 451 c 0,74,75
 560.954101562 444 560.954101562 444 571.454101562 443.5 c 128,-1,76
 581.954101562 443 581.954101562 443 593.954101562 441.5 c 128,-1,77
 605.954101562 440 605.954101562 440 615.954101562 434.5 c 128,-1,78
 625.954101562 429 625.954101562 429 626.954101562 412 c 0,79,80
 627.954101562 398 627.954101562 398 617.954101562 390 c 128,-1,81
 607.954101562 382 607.954101562 382 594.454101562 377.5 c 128,-1,82
 580.954101562 373 580.954101562 373 565.954101562 371.5 c 128,-1,83
 550.954101562 370 550.954101562 370 541.954101562 370 c 1,84,85
 534.954101562 351 534.954101562 351 530.454101562 335 c 128,-1,86
 525.954101562 319 525.954101562 319 518.954101562 299 c 1,87,88
 529.954101562 299 529.954101562 299 541.954101562 299.5 c 128,-1,89
 553.954101562 300 553.954101562 300 563.954101562 297.5 c 128,-1,90
 573.954101562 295 573.954101562 295 580.454101562 288 c 128,-1,91
 586.954101562 281 586.954101562 281 587.954101562 265 c 0,92,93
 588.954101562 251 588.954101562 251 582.954101562 241.5 c 128,-1,94
 576.954101562 232 576.954101562 232 566.954101562 226 c 128,-1,95
 556.954101562 220 556.954101562 220 545.454101562 217.5 c 128,-1,96
 533.954101562 215 533.954101562 215 522.954101562 215 c 2,97,-1
 517.954101562 215 l 1,98,-1
 506.954101562 216 l 1,99,-1
 501.954101562 216 l 1,100,101
 498.954101562 204 498.954101562 204 495.454101562 186 c 128,-1,102
 491.954101562 168 491.954101562 168 485.454101562 150.5 c 128,-1,103
 478.954101562 133 478.954101562 133 466.954101562 120.5 c 128,-1,104
 454.954101562 108 454.954101562 108 433.954101562 108 c 0,0,1
365.954101562 457 m 0,105,106
 368.954101562 457 368.954101562 457 372.954101562 463 c 128,-1,107
 376.954101562 469 376.954101562 469 380.454101562 476.5 c 128,-1,108
 383.954101562 484 383.954101562 484 386.954101562 492 c 128,-1,109
 389.954101562 500 389.954101562 500 389.954101562 503 c 0,110,111
 389.954101562 508 389.954101562 508 384.954101562 508 c 0,112,113
 380.954101562 509 380.954101562 509 376.454101562 504 c 128,-1,114
 371.954101562 499 371.954101562 499 368.454101562 492 c 128,-1,115
 364.954101562 485 364.954101562 485 362.454101562 477.5 c 128,-1,116
 359.954101562 470 359.954101562 470 359.954101562 466 c 0,117,118
 359.954101562 463 359.954101562 463 361.954101562 460 c 128,-1,119
 363.954101562 457 363.954101562 457 365.954101562 457 c 0,105,106
263.954101562 404 m 0,120,121
 268.954101562 404 268.954101562 404 271.954101562 415 c 128,-1,122
 274.954101562 426 274.954101562 426 273.954101562 430 c 0,123,124
 273.954101562 434 273.954101562 434 270.954101562 434 c 0,125,126
 265.954101562 436 265.954101562 436 261.454101562 429 c 128,-1,127
 256.954101562 422 256.954101562 422 257.954101562 416 c 0,128,129
 257.954101562 404 257.954101562 404 263.954101562 404 c 0,120,121
410.954101562 298 m 0,130,131
 421.954101562 298 421.954101562 298 429.954101562 305.5 c 128,-1,132
 437.954101562 313 437.954101562 313 442.954101562 323.5 c 128,-1,133
 447.954101562 334 447.954101562 334 449.954101562 345.5 c 128,-1,134
 451.954101562 357 451.954101562 357 451.954101562 366 c 0,135,136
 451.954101562 369 451.954101562 369 450.954101562 372 c 128,-1,137
 449.954101562 375 449.954101562 375 445.954101562 375 c 0,138,139
 422.954101562 375 422.954101562 375 413.954101562 369 c 128,-1,140
 404.954101562 363 404.954101562 363 396.954101562 342 c 0,141,142
 394.954101562 336 394.954101562 336 390.454101562 323 c 128,-1,143
 385.954101562 310 385.954101562 310 386.954101562 304 c 2,144,-1
 386.954101562 303 l 1,145,146
 391.954101562 300 391.954101562 300 398.454101562 299 c 128,-1,147
 404.954101562 298 404.954101562 298 410.954101562 298 c 0,130,131
245.954101562 279 m 0,148,149
 245.954101562 285 245.954101562 285 238.954101562 285 c 0,150,151
 229.954101562 285 229.954101562 285 226.954101562 273 c 128,-1,152
 223.954101562 261 223.954101562 261 225.954101562 256 c 256,153,154
 227.954101562 251 227.954101562 251 229.954101562 250 c 0,155,156
 231.954101562 250 231.954101562 250 234.954101562 253.5 c 128,-1,157
 237.954101562 257 237.954101562 257 240.454101562 262 c 128,-1,158
 242.954101562 267 242.954101562 267 244.454101562 272 c 128,-1,159
 245.954101562 277 245.954101562 277 245.954101562 279 c 0,148,149
EndSplineSet
EndChar

StartChar: dollar
Encoding: 36 36 6
Width: 840
Flags: W
LayerCount: 2
Fore
SplineSet
411.5 -41 m 256,0,1
 400.5 -41 400.5 -41 394.5 -32.5 c 128,-1,2
 388.5 -24 388.5 -24 386 -12 c 128,-1,3
 383.5 0 383.5 0 383.5 13.5 c 128,-1,4
 383.5 27 383.5 27 383.5 37 c 2,5,-1
 383.5 95 l 1,6,7
 339.5 95 339.5 95 309.5 114.5 c 128,-1,8
 279.5 134 279.5 134 279.5 163 c 0,9,10
 279.5 181 279.5 181 290 187.5 c 128,-1,11
 300.5 194 300.5 194 311.5 194 c 0,12,13
 333.5 194 333.5 194 355.5 186 c 128,-1,14
 377.5 178 377.5 178 407.5 178 c 0,15,16
 416.5 178 416.5 178 428 181 c 128,-1,17
 439.5 184 439.5 184 449.5 190 c 128,-1,18
 459.5 196 459.5 196 466.5 204.5 c 128,-1,19
 473.5 213 473.5 213 473.5 225 c 0,20,21
 473.5 248 473.5 248 454.5 260 c 128,-1,22
 435.5 272 435.5 272 405.5 272 c 0,23,24
 345.5 272 345.5 272 311 303.5 c 128,-1,25
 276.5 335 276.5 335 276.5 401 c 0,26,27
 276.5 460 276.5 460 306 497 c 128,-1,28
 335.5 534 335.5 534 383.5 542 c 1,29,-1
 383.5 587 l 2,30,31
 383.5 594 383.5 594 383 608.5 c 128,-1,32
 382.5 623 382.5 623 384.5 637.5 c 128,-1,33
 386.5 652 386.5 652 393 663 c 128,-1,34
 399.5 674 399.5 674 412.5 674 c 256,35,36
 425.5 674 425.5 674 431.5 647 c 128,-1,37
 437.5 620 437.5 620 437.5 572 c 0,38,39
 437.5 552 437.5 552 439.5 547 c 128,-1,40
 441.5 542 441.5 542 453.5 542 c 256,41,42
 465.5 542 465.5 542 478 538 c 128,-1,43
 490.5 534 490.5 534 501 526.5 c 128,-1,44
 511.5 519 511.5 519 518 508.5 c 128,-1,45
 524.5 498 524.5 498 524.5 485 c 256,46,47
 524.5 472 524.5 472 518.5 467.5 c 128,-1,48
 512.5 463 512.5 463 502 462 c 128,-1,49
 491.5 461 491.5 461 476.5 462.5 c 128,-1,50
 461.5 464 461.5 464 443.5 464 c 0,51,52
 405.5 464 405.5 464 391.5 447.5 c 128,-1,53
 377.5 431 377.5 431 377.5 404 c 0,54,55
 377.5 391 377.5 391 383.5 382.5 c 128,-1,56
 389.5 374 389.5 374 398.5 369.5 c 128,-1,57
 407.5 365 407.5 365 417 362.5 c 128,-1,58
 426.5 360 426.5 360 433.5 359 c 0,59,60
 462.5 355 462.5 355 486.5 346.5 c 128,-1,61
 510.5 338 510.5 338 527.5 323 c 128,-1,62
 544.5 308 544.5 308 554 285 c 128,-1,63
 563.5 262 563.5 262 563.5 230 c 0,64,65
 563.5 172 563.5 172 528.5 137 c 128,-1,66
 493.5 102 493.5 102 437.5 97 c 1,67,-1
 437.5 37 l 2,68,69
 437.5 28 437.5 28 437.5 14.5 c 128,-1,70
 437.5 1 437.5 1 435.5 -11.5 c 128,-1,71
 433.5 -24 433.5 -24 428 -32.5 c 128,-1,72
 422.5 -41 422.5 -41 411.5 -41 c 256,0,1
339.5 476 m 0,73,74
 345.5 485 345.5 485 354.5 490 c 128,-1,75
 363.5 495 363.5 495 363.5 503 c 0,76,77
 363.5 509 363.5 509 356.5 509 c 0,78,79
 348.5 509 348.5 509 340.5 503 c 128,-1,80
 332.5 497 332.5 497 326.5 488.5 c 128,-1,81
 320.5 480 320.5 480 316.5 470.5 c 128,-1,82
 312.5 461 312.5 461 312.5 453 c 0,83,84
 312.5 446 312.5 446 316.5 446 c 0,85,86
 323.5 446 323.5 446 329 457 c 128,-1,87
 334.5 468 334.5 468 339.5 476 c 0,73,74
321.5 425 m 0,88,89
 321.5 434 321.5 434 312.5 434 c 0,90,91
 307.5 434 307.5 434 306 429.5 c 128,-1,92
 304.5 425 304.5 425 306.5 419 c 256,93,94
 308.5 413 308.5 413 313.5 413 c 256,95,96
 318.5 413 318.5 413 320 416.5 c 128,-1,97
 321.5 420 321.5 420 321.5 425 c 0,88,89
EndSplineSet
EndChar

StartChar: percent
Encoding: 37 37 7
Width: 840
Flags: W
LayerCount: 2
Fore
SplineSet
282.5 -6 m 0,0,1
 278.5 -6 278.5 -6 271 -4 c 128,-1,2
 263.5 -2 263.5 -2 256.5 2 c 128,-1,3
 249.5 6 249.5 6 244.5 11.5 c 128,-1,4
 239.5 17 239.5 17 239.5 23 c 0,5,6
 239.5 30 239.5 30 243.5 46.5 c 128,-1,7
 247.5 63 247.5 63 259.5 93 c 128,-1,8
 271.5 123 271.5 123 293 168.5 c 128,-1,9
 314.5 214 314.5 214 349.5 280 c 0,10,11
 403.5 383 403.5 383 437 450 c 128,-1,12
 470.5 517 470.5 517 491.5 556 c 0,13,14
 512.5 596 512.5 596 530 607.5 c 128,-1,15
 547.5 619 547.5 619 560.5 619 c 0,16,17
 577.5 619 577.5 619 584 607 c 128,-1,18
 590.5 595 590.5 595 589.5 577.5 c 128,-1,19
 588.5 560 588.5 560 583 541.5 c 128,-1,20
 577.5 523 577.5 523 571.5 510 c 0,21,22
 557.5 481 557.5 481 534.5 434.5 c 128,-1,23
 511.5 388 511.5 388 485 335.5 c 128,-1,24
 458.5 283 458.5 283 431 229 c 128,-1,25
 403.5 175 403.5 175 380.5 130.5 c 128,-1,26
 357.5 86 357.5 86 342 56 c 128,-1,27
 326.5 26 326.5 26 323.5 22 c 0,28,29
 312.5 5 312.5 5 302 -0.5 c 128,-1,30
 291.5 -6 291.5 -6 282.5 -6 c 0,0,1
288.5 393 m 0,31,32
 265.5 393 265.5 393 248 402.5 c 128,-1,33
 230.5 412 230.5 412 218.5 428 c 128,-1,34
 206.5 444 206.5 444 200.5 465 c 128,-1,35
 194.5 486 194.5 486 194.5 510 c 0,36,37
 194.5 529 194.5 529 201 548 c 128,-1,38
 207.5 567 207.5 567 219.5 582.5 c 128,-1,39
 231.5 598 231.5 598 248.5 608 c 128,-1,40
 265.5 618 265.5 618 286.5 618 c 0,41,42
 328.5 618 328.5 618 352.5 594.5 c 128,-1,43
 376.5 571 376.5 571 376.5 517 c 0,44,45
 376.5 490 376.5 490 369.5 467.5 c 128,-1,46
 362.5 445 362.5 445 350.5 428.5 c 128,-1,47
 338.5 412 338.5 412 322.5 402.5 c 128,-1,48
 306.5 393 306.5 393 288.5 393 c 0,31,32
288.5 460 m 0,49,50
 295.5 460 295.5 460 300.5 465.5 c 128,-1,51
 305.5 471 305.5 471 308.5 479.5 c 128,-1,52
 311.5 488 311.5 488 313 498 c 128,-1,53
 314.5 508 314.5 508 314.5 517 c 0,54,55
 314.5 534 314.5 534 307.5 546 c 128,-1,56
 300.5 558 300.5 558 288.5 558 c 0,57,58
 277.5 558 277.5 558 269.5 543.5 c 128,-1,59
 261.5 529 261.5 529 261.5 512 c 256,60,61
 261.5 495 261.5 495 268.5 477.5 c 128,-1,62
 275.5 460 275.5 460 288.5 460 c 0,49,50
220.5 512 m 256,63,64
 220.5 528 220.5 528 220.5 535.5 c 128,-1,65
 220.5 543 220.5 543 217.5 543 c 0,66,67
 211.5 543 211.5 543 209.5 530.5 c 128,-1,68
 207.5 518 207.5 518 207.5 514 c 0,69,70
 207.5 511 207.5 511 207.5 505.5 c 128,-1,71
 207.5 500 207.5 500 209 494.5 c 128,-1,72
 210.5 489 210.5 489 213 484.5 c 128,-1,73
 215.5 480 215.5 480 220.5 480 c 0,74,75
 224.5 480 224.5 480 222.5 488 c 128,-1,76
 220.5 496 220.5 496 220.5 512 c 256,63,64
245.5 453 m 0,77,78
 245.5 464 245.5 464 236.5 464 c 0,79,80
 230.5 464 230.5 464 230.5 456 c 0,81,82
 230.5 454 230.5 454 233 450 c 128,-1,83
 235.5 446 235.5 446 238.5 446 c 0,84,85
 245.5 446 245.5 446 245.5 453 c 0,77,78
557.5 -6 m 0,86,87
 534.5 -6 534.5 -6 517 3.5 c 128,-1,88
 499.5 13 499.5 13 487.5 29 c 128,-1,89
 475.5 45 475.5 45 469.5 66 c 128,-1,90
 463.5 87 463.5 87 463.5 111 c 0,91,92
 463.5 130 463.5 130 470 149 c 128,-1,93
 476.5 168 476.5 168 488.5 183.5 c 128,-1,94
 500.5 199 500.5 199 517.5 209 c 128,-1,95
 534.5 219 534.5 219 555.5 219 c 0,96,97
 597.5 219 597.5 219 621.5 195.5 c 128,-1,98
 645.5 172 645.5 172 645.5 118 c 0,99,100
 645.5 91 645.5 91 638.5 68.5 c 128,-1,101
 631.5 46 631.5 46 619.5 29.5 c 128,-1,102
 607.5 13 607.5 13 591.5 3.5 c 128,-1,103
 575.5 -6 575.5 -6 557.5 -6 c 0,86,87
557.5 61 m 0,104,105
 564.5 61 564.5 61 569.5 66.5 c 128,-1,106
 574.5 72 574.5 72 577.5 80.5 c 128,-1,107
 580.5 89 580.5 89 582 99 c 128,-1,108
 583.5 109 583.5 109 583.5 118 c 0,109,110
 583.5 135 583.5 135 576.5 147 c 128,-1,111
 569.5 159 569.5 159 557.5 159 c 0,112,113
 546.5 159 546.5 159 538.5 144.5 c 128,-1,114
 530.5 130 530.5 130 530.5 113 c 256,115,116
 530.5 96 530.5 96 537.5 78.5 c 128,-1,117
 544.5 61 544.5 61 557.5 61 c 0,104,105
489.5 113 m 256,118,119
 489.5 129 489.5 129 489.5 136.5 c 128,-1,120
 489.5 144 489.5 144 486.5 144 c 0,121,122
 480.5 144 480.5 144 478.5 131.5 c 128,-1,123
 476.5 119 476.5 119 476.5 115 c 0,124,125
 476.5 112 476.5 112 476.5 106.5 c 128,-1,126
 476.5 101 476.5 101 478 95.5 c 128,-1,127
 479.5 90 479.5 90 482 85.5 c 128,-1,128
 484.5 81 484.5 81 489.5 81 c 0,129,130
 493.5 81 493.5 81 491.5 89 c 128,-1,131
 489.5 97 489.5 97 489.5 113 c 256,118,119
280.5 82 m 0,132,133
 275.5 87 275.5 87 270 82 c 128,-1,134
 264.5 77 264.5 77 261.5 69 c 256,135,136
 258.5 61 258.5 61 255.5 50 c 128,-1,137
 252.5 39 252.5 39 252.5 34 c 0,138,139
 253.5 23 253.5 23 257 23 c 128,-1,140
 260.5 23 260.5 23 267.5 40 c 0,141,142
 272.5 52 272.5 52 277.5 66 c 128,-1,143
 282.5 80 282.5 80 280.5 82 c 0,132,133
514.5 54 m 0,144,145
 514.5 65 514.5 65 505.5 65 c 0,146,147
 499.5 65 499.5 65 499.5 57 c 0,148,149
 499.5 55 499.5 55 502 51 c 128,-1,150
 504.5 47 504.5 47 507.5 47 c 0,151,152
 514.5 47 514.5 47 514.5 54 c 0,144,145
EndSplineSet
EndChar

StartChar: ampersand
Encoding: 38 38 8
Width: 840
Flags: W
LayerCount: 2
Fore
SplineSet
382.5 -6 m 0,0,1
 285.5 -6 285.5 -6 233.5 46.5 c 128,-1,2
 181.5 99 181.5 99 181.5 193 c 0,3,4
 181.5 254 181.5 254 200.5 291 c 128,-1,5
 219.5 328 219.5 328 242 349 c 128,-1,6
 264.5 370 264.5 370 283 379 c 128,-1,7
 301.5 388 301.5 388 301.5 393 c 0,8,9
 301.5 397 301.5 397 296.5 407 c 128,-1,10
 291.5 417 291.5 417 286 430.5 c 128,-1,11
 280.5 444 280.5 444 275.5 460.5 c 128,-1,12
 270.5 477 270.5 477 270.5 495 c 0,13,14
 270.5 552 270.5 552 309 587 c 128,-1,15
 347.5 622 347.5 622 410.5 622 c 0,16,17
 452.5 622 452.5 622 483.5 604.5 c 128,-1,18
 514.5 587 514.5 587 524.5 567 c 0,19,20
 527.5 562 527.5 562 526 552 c 128,-1,21
 524.5 542 524.5 542 520 532.5 c 128,-1,22
 515.5 523 515.5 523 507.5 515.5 c 128,-1,23
 499.5 508 499.5 508 487.5 508 c 256,24,25
 475.5 508 475.5 508 467.5 512.5 c 128,-1,26
 459.5 517 459.5 517 452.5 522.5 c 128,-1,27
 445.5 528 445.5 528 438 532.5 c 128,-1,28
 430.5 537 430.5 537 421.5 537 c 0,29,30
 402.5 537 402.5 537 390 523.5 c 128,-1,31
 377.5 510 377.5 510 377.5 481 c 0,32,33
 377.5 463 377.5 463 392 434 c 128,-1,34
 406.5 405 406.5 405 430 369 c 128,-1,35
 453.5 333 453.5 333 482.5 293 c 128,-1,36
 511.5 253 511.5 253 540.5 214 c 1,37,38
 552.5 238 552.5 238 561.5 265 c 0,39,40
 566.5 282 566.5 282 578.5 290.5 c 128,-1,41
 590.5 299 590.5 299 603.5 299 c 256,42,43
 616.5 299 616.5 299 626.5 289.5 c 128,-1,44
 636.5 280 636.5 280 636.5 260 c 0,45,46
 636.5 248 636.5 248 631.5 232.5 c 128,-1,47
 626.5 217 626.5 217 619 201 c 128,-1,48
 611.5 185 611.5 185 603.5 170 c 128,-1,49
 595.5 155 595.5 155 589.5 146 c 1,50,51
 619.5 104 619.5 104 639 71.5 c 128,-1,52
 658.5 39 658.5 39 658.5 23 c 0,53,54
 658.5 13 658.5 13 653 6 c 128,-1,55
 647.5 -1 647.5 -1 639.5 -5 c 128,-1,56
 631.5 -9 631.5 -9 621.5 -10.5 c 128,-1,57
 611.5 -12 611.5 -12 603.5 -12 c 0,58,59
 594.5 -12 594.5 -12 574.5 10.5 c 128,-1,60
 554.5 33 554.5 33 528.5 67 c 1,61,62
 496.5 35 496.5 35 460 14.5 c 128,-1,63
 423.5 -6 423.5 -6 382.5 -6 c 0,0,1
304.5 499 m 0,64,65
 311.5 499 311.5 499 315 509.5 c 128,-1,66
 318.5 520 318.5 520 320.5 525 c 0,67,68
 325.5 537 325.5 537 331.5 548.5 c 128,-1,69
 337.5 560 337.5 560 346.5 570 c 0,70,71
 347.5 572 347.5 572 354.5 579 c 128,-1,72
 361.5 586 361.5 586 361.5 588 c 256,73,74
 361.5 590 361.5 590 360.5 590 c 0,75,76
 350.5 590 350.5 590 339.5 580 c 128,-1,77
 328.5 570 328.5 570 320 556 c 128,-1,78
 311.5 542 311.5 542 306 528.5 c 128,-1,79
 300.5 515 300.5 515 300.5 507 c 0,80,81
 300.5 505 300.5 505 301.5 502 c 128,-1,82
 302.5 499 302.5 499 304.5 499 c 0,64,65
314.5 472 m 256,83,84
 314.5 474 314.5 474 314 477 c 128,-1,85
 313.5 480 313.5 480 308.5 480 c 0,86,87
 304.5 480 304.5 480 302.5 477 c 128,-1,88
 300.5 474 300.5 474 300.5 472 c 0,89,90
 300.5 464 300.5 464 307.5 464 c 0,91,92
 311.5 464 311.5 464 313 467 c 128,-1,93
 314.5 470 314.5 470 314.5 472 c 256,83,84
479.5 134 m 1,94,95
 456.5 166 456.5 166 433.5 198 c 128,-1,96
 410.5 230 410.5 230 392 255 c 128,-1,97
 373.5 280 373.5 280 360 295.5 c 128,-1,98
 346.5 311 346.5 311 341.5 311 c 0,99,100
 328.5 311 328.5 311 316 301 c 128,-1,101
 303.5 291 303.5 291 294.5 275.5 c 128,-1,102
 285.5 260 285.5 260 280 241 c 128,-1,103
 274.5 222 274.5 222 274.5 204 c 0,104,105
 274.5 183 274.5 183 282.5 162.5 c 128,-1,106
 290.5 142 290.5 142 305 126 c 128,-1,107
 319.5 110 319.5 110 340.5 100.5 c 128,-1,108
 361.5 91 361.5 91 386.5 91 c 0,109,110
 431.5 91 431.5 91 479.5 134 c 1,94,95
225.5 126 m 0,111,112
 230.5 130 230.5 130 228 140.5 c 128,-1,113
 225.5 151 225.5 151 223.5 156 c 0,114,115
 219.5 169 219.5 169 217.5 183.5 c 128,-1,116
 215.5 198 215.5 198 221.5 218 c 0,117,118
 226.5 232 226.5 232 223.5 236 c 128,-1,119
 220.5 240 220.5 240 218.5 238 c 0,120,121
 209.5 232 209.5 232 206 217.5 c 128,-1,122
 202.5 203 202.5 203 202.5 186.5 c 128,-1,123
 202.5 170 202.5 170 206.5 154.5 c 128,-1,124
 210.5 139 210.5 139 217.5 130 c 0,125,126
 218.5 128 218.5 128 221 126 c 128,-1,127
 223.5 124 223.5 124 225.5 126 c 0,111,112
EndSplineSet




EndChar

StartChar: quotesingle
Encoding: 39 39 9
Width: 840
Flags: W
LayerCount: 2
Fore
SplineSet
467.5 714 m 1,0,-1
 447.5 456 l 1,1,-1
 392.5 456 l 1,2,-1
 372.5 714 l 1,3,-1
 467.5 714 l 1,0,-1
EndSplineSet
EndChar

StartChar: parenleft
Encoding: 40 40 10
Width: 840
Flags: W
LayerCount: 2
Fore
SplineSet
484.5 -72 m 0,0,1
 430.5 -51 430.5 -51 394 -13 c 128,-1,2
 357.5 25 357.5 25 335 71.5 c 128,-1,3
 312.5 118 312.5 118 302.5 169.5 c 128,-1,4
 292.5 221 292.5 221 292.5 269 c 0,5,6
 292.5 315 292.5 315 301 363 c 128,-1,7
 309.5 411 309.5 411 325 456 c 128,-1,8
 340.5 501 340.5 501 363.5 540.5 c 128,-1,9
 386.5 580 386.5 580 414.5 609 c 0,10,11
 441.5 636 441.5 636 466.5 654 c 128,-1,12
 491.5 672 491.5 672 511.5 672 c 0,13,14
 526.5 672 526.5 672 535.5 660 c 128,-1,15
 544.5 648 544.5 648 544.5 636 c 0,16,17
 544.5 628 544.5 628 532 617 c 128,-1,18
 519.5 606 519.5 606 496.5 582 c 0,19,20
 466.5 550 466.5 550 446.5 512 c 128,-1,21
 426.5 474 426.5 474 414.5 433.5 c 128,-1,22
 402.5 393 402.5 393 398 351.5 c 128,-1,23
 393.5 310 393.5 310 393.5 272 c 256,24,25
 393.5 234 393.5 234 399.5 192.5 c 128,-1,26
 405.5 151 405.5 151 419.5 113 c 128,-1,27
 433.5 75 433.5 75 456.5 43.5 c 128,-1,28
 479.5 12 479.5 12 513.5 -7 c 0,29,30
 530.5 -16 530.5 -16 539 -22.5 c 128,-1,31
 547.5 -29 547.5 -29 547.5 -43 c 0,32,33
 547.5 -56 547.5 -56 534.5 -66 c 128,-1,34
 521.5 -76 521.5 -76 504.5 -76 c 0,35,36
 493.5 -76 493.5 -76 484.5 -72 c 0,0,1
470.5 620 m 0,37,38
 475.5 625 475.5 625 481.5 630.5 c 128,-1,39
 487.5 636 487.5 636 480.5 636 c 0,40,41
 472.5 636 472.5 636 462 628.5 c 128,-1,42
 451.5 621 451.5 621 441.5 611 c 128,-1,43
 431.5 601 431.5 601 425 590.5 c 128,-1,44
 418.5 580 418.5 580 418.5 574 c 0,45,46
 418.5 569 418.5 569 422.5 569 c 0,47,48
 427.5 569 427.5 569 432 575.5 c 128,-1,49
 436.5 582 436.5 582 439.5 587 c 0,50,51
 443.5 594 443.5 594 450.5 601.5 c 128,-1,52
 457.5 609 457.5 609 470.5 620 c 0,37,38
412.5 547 m 0,53,54
 412.5 555 412.5 555 406.5 555 c 0,55,56
 394.5 555 394.5 555 394.5 547 c 0,57,58
 394.5 541 394.5 541 397.5 539.5 c 128,-1,59
 400.5 538 400.5 538 402.5 538 c 256,60,61
 404.5 538 404.5 538 408.5 539.5 c 128,-1,62
 412.5 541 412.5 541 412.5 547 c 0,53,54
EndSplineSet







EndChar

StartChar: parenright
Encoding: 41 41 11
Width: 840
Flags: W
LayerCount: 2
Fore
SplineSet
349 -93 m 0,0,1
 335 -93 335 -93 322.5 -84.5 c 128,-1,2
 310 -76 310 -76 310 -66 c 0,3,4
 310 -57 310 -57 320 -43 c 128,-1,5
 330 -29 330 -29 344.5 -8.5 c 128,-1,6
 359 12 359 12 376.5 41 c 128,-1,7
 394 70 394 70 408.5 108 c 128,-1,8
 423 146 423 146 433 195 c 128,-1,9
 443 244 443 244 443 305 c 0,10,11
 443 352 443 352 435.5 398.5 c 128,-1,12
 428 445 428 445 414 484 c 128,-1,13
 400 523 400 523 380.5 552 c 128,-1,14
 361 581 361 581 337 594 c 0,15,16
 325 601 325 601 311 610.5 c 128,-1,17
 297 620 297 620 297 638 c 0,18,19
 297 653 297 653 310 662.5 c 128,-1,20
 323 672 323 672 344 672 c 0,21,22
 381 672 381 672 417 646 c 128,-1,23
 453 620 453 620 481 572 c 128,-1,24
 509 524 509 524 526 455.5 c 128,-1,25
 543 387 543 387 543 302 c 0,26,27
 543 227 543 227 534.5 175 c 128,-1,28
 526 123 526 123 510.5 85 c 128,-1,29
 495 47 495 47 474 17 c 128,-1,30
 453 -13 453 -13 428 -44 c 0,31,32
 405 -73 405 -73 385.5 -83 c 128,-1,33
 366 -93 366 -93 349 -93 c 0,0,1
317 621 m 0,34,35
 321 621 321 621 324.5 628.5 c 128,-1,36
 328 636 328 636 328 644 c 0,37,38
 328 657 328 657 321 657 c 0,39,40
 317 657 317 657 313.5 649.5 c 128,-1,41
 310 642 310 642 310 634 c 0,42,43
 310 621 310 621 317 621 c 0,34,35
344 -60 m 256,44,45
 349 -50 349 -50 349.5 -40 c 128,-1,46
 350 -30 350 -30 346 -29 c 0,47,48
 344 -29 344 -29 340.5 -33 c 128,-1,49
 337 -37 337 -37 333.5 -43 c 128,-1,50
 330 -49 330 -49 327.5 -55 c 128,-1,51
 325 -61 325 -61 325 -64 c 0,52,53
 325 -72 325 -72 329 -73 c 0,54,55
 332 -74 332 -74 335.5 -72 c 128,-1,56
 339 -70 339 -70 344 -60 c 256,44,45
EndSplineSet






EndChar

StartChar: asterisk
Encoding: 42 42 12
Width: 840
Flags: W
LayerCount: 2
Fore
SplineSet
467.5 760 m 1,0,-1
 447.5 568 l 1,1,-1
 639.5 622 l 1,2,-1
 653.5 530 l 1,3,-1
 469.5 515 l 1,4,-1
 588.5 357 l 1,5,-1
 502.5 310 l 1,6,-1
 417.5 485 l 1,7,-1
 340.5 310 l 1,8,-1
 251.5 357 l 1,9,-1
 368.5 515 l 1,10,-1
 186.5 530 l 1,11,-1
 200.5 622 l 1,12,-1
 390.5 568 l 1,13,-1
 369.5 760 l 1,14,-1
 467.5 760 l 1,0,-1
EndSplineSet
EndChar

StartChar: plus
Encoding: 43 43 13
Width: 840
Flags: W
LayerCount: 2
Fore
SplineSet
456 388 m 1,0,-1
 655 388 l 1,1,-1
 655 317 l 1,2,-1
 456 317 l 1,3,-1
 456 111 l 1,4,-1
 384 111 l 1,5,-1
 384 317 l 1,6,-1
 185 317 l 1,7,-1
 185 388 l 1,8,-1
 384 388 l 1,9,-1
 384 595 l 1,10,-1
 456 595 l 1,11,-1
 456 388 l 1,0,-1
EndSplineSet




EndChar

StartChar: comma
Encoding: 44 44 14
Width: 840
Flags: W
LayerCount: 2
Fore
SplineSet
495.5 105 m 1,0,1
 486.5 70 486.5 70 472.5 29 c 128,-1,2
 458.5 -12 458.5 -12 442 -52.5 c 128,-1,3
 425.5 -93 425.5 -93 409.5 -129 c 1,4,-1
 344.5 -129 l 1,5,6
 354.5 -91 354.5 -91 364 -47.5 c 128,-1,7
 373.5 -4 373.5 -4 381.5 38.5 c 128,-1,8
 389.5 81 389.5 81 394.5 116 c 1,9,-1
 488.5 116 l 1,10,-1
 495.5 105 l 1,0,1
EndSplineSet
EndChar

StartChar: hyphen
Encoding: 45 45 15
Width: 840
Flags: W
LayerCount: 2
Fore
SplineSet
299 229 m 1,0,-1
 299 307 l 1,1,-1
 541 307 l 1,2,-1
 541 229 l 1,3,-1
 299 229 l 1,0,-1
EndSplineSet
EndChar

StartChar: period
Encoding: 46 46 16
Width: 840
Flags: W
LayerCount: 2
Fore
SplineSet
414.5 -8 m 0,0,1
 374.5 -8 374.5 -8 346 20 c 128,-1,2
 317.5 48 317.5 48 317.5 92 c 0,3,4
 317.5 116 317.5 116 326 137.5 c 128,-1,5
 334.5 159 334.5 159 349.5 174.5 c 128,-1,6
 364.5 190 364.5 190 385.5 199.5 c 128,-1,7
 406.5 209 406.5 209 431.5 209 c 0,8,9
 451.5 209 451.5 209 468.5 200.5 c 128,-1,10
 485.5 192 485.5 192 497.5 177 c 128,-1,11
 509.5 162 509.5 162 516 143 c 128,-1,12
 522.5 124 522.5 124 522.5 103 c 0,13,14
 522.5 76 522.5 76 514 55.5 c 128,-1,15
 505.5 35 505.5 35 490.5 21 c 128,-1,16
 475.5 7 475.5 7 456 -0.5 c 128,-1,17
 436.5 -8 436.5 -8 414.5 -8 c 0,0,1
377.5 165 m 0,18,19
 384.5 172 384.5 172 386 177 c 128,-1,20
 387.5 182 387.5 182 385.5 182 c 0,21,22
 377.5 182 377.5 182 368.5 174.5 c 128,-1,23
 359.5 167 359.5 167 352 156.5 c 128,-1,24
 344.5 146 344.5 146 339.5 134 c 128,-1,25
 334.5 122 334.5 122 334.5 112 c 0,26,27
 334.5 110 334.5 110 336 104 c 128,-1,28
 337.5 98 337.5 98 340.5 98 c 0,29,30
 344.5 98 344.5 98 350.5 120 c 0,31,32
 353.5 134 353.5 134 361.5 145.5 c 128,-1,33
 369.5 157 369.5 157 377.5 165 c 0,18,19
418.5 49 m 0,34,35
 430.5 49 430.5 49 447 63 c 128,-1,36
 463.5 77 463.5 77 463.5 103 c 0,37,38
 463.5 123 463.5 123 453 136.5 c 128,-1,39
 442.5 150 442.5 150 425.5 150 c 256,40,41
 408.5 150 408.5 150 394.5 136.5 c 128,-1,42
 380.5 123 380.5 123 380.5 99 c 256,43,44
 380.5 75 380.5 75 391.5 62 c 128,-1,45
 402.5 49 402.5 49 418.5 49 c 0,34,35
EndSplineSet
EndChar

StartChar: slash
Encoding: 47 47 17
Width: 840
Flags: W
LayerCount: 2
Fore
SplineSet
306.5 -77 m 0,0,1
 302.5 -77 302.5 -77 291 -75 c 128,-1,2
 279.5 -73 279.5 -73 267.5 -68.5 c 128,-1,3
 255.5 -64 255.5 -64 246.5 -57 c 128,-1,4
 237.5 -50 237.5 -50 237.5 -41 c 0,5,6
 237.5 -38 237.5 -38 248 -9.5 c 128,-1,7
 258.5 19 258.5 19 275.5 64 c 128,-1,8
 292.5 109 292.5 109 315 166 c 128,-1,9
 337.5 223 337.5 223 361.5 283 c 128,-1,10
 385.5 343 385.5 343 409.5 402 c 128,-1,11
 433.5 461 433.5 461 453.5 509.5 c 128,-1,12
 473.5 558 473.5 558 488.5 592 c 128,-1,13
 503.5 626 503.5 626 509.5 636 c 0,14,15
 516.5 647 516.5 647 528 656.5 c 128,-1,16
 539.5 666 539.5 666 553.5 666 c 0,17,18
 560.5 666 560.5 666 569 663.5 c 128,-1,19
 577.5 661 577.5 661 585 656.5 c 128,-1,20
 592.5 652 592.5 652 597.5 646 c 128,-1,21
 602.5 640 602.5 640 602.5 633 c 0,22,23
 602.5 625 602.5 625 594 599.5 c 128,-1,24
 585.5 574 585.5 574 574 544.5 c 128,-1,25
 562.5 515 562.5 515 551 487.5 c 128,-1,26
 539.5 460 539.5 460 533.5 447 c 0,27,28
 529.5 438 529.5 438 518.5 410.5 c 128,-1,29
 507.5 383 507.5 383 492.5 344.5 c 128,-1,30
 477.5 306 477.5 306 459.5 259.5 c 128,-1,31
 441.5 213 441.5 213 422.5 166.5 c 128,-1,32
 403.5 120 403.5 120 385 76 c 128,-1,33
 366.5 32 366.5 32 351 -2 c 128,-1,34
 335.5 -36 335.5 -36 323.5 -56.5 c 128,-1,35
 311.5 -77 311.5 -77 306.5 -77 c 0,0,1
281.5 -37 m 0,36,37
 285.5 -25 285.5 -25 293.5 -7 c 128,-1,38
 301.5 11 301.5 11 308.5 27.5 c 128,-1,39
 315.5 44 315.5 44 319 56.5 c 128,-1,40
 322.5 69 322.5 69 317.5 70 c 0,41,42
 315.5 71 315.5 71 310.5 71 c 128,-1,43
 305.5 71 305.5 71 302.5 66 c 0,44,45
 300.5 62 300.5 62 294 48.5 c 128,-1,46
 287.5 35 287.5 35 281 19.5 c 128,-1,47
 274.5 4 274.5 4 269.5 -10.5 c 128,-1,48
 264.5 -25 264.5 -25 264.5 -31 c 0,49,50
 264.5 -38 264.5 -38 272 -40 c 128,-1,51
 279.5 -42 279.5 -42 281.5 -37 c 0,36,37
EndSplineSet


EndChar

StartChar: zero
Encoding: 48 48 18
Width: 840
Flags: W
LayerCount: 2
Fore
SplineSet
425 -17 m 0,0,1
 373 -17 373 -17 338.5 11.5 c 128,-1,2
 304 40 304 40 283 86 c 128,-1,3
 262 132 262 132 253.5 190 c 128,-1,4
 245 248 245 248 245 307 c 256,5,6
 245 366 245 366 255 422.5 c 128,-1,7
 265 479 265 479 287.5 523 c 128,-1,8
 310 567 310 567 346 594 c 128,-1,9
 382 621 382 621 433 621 c 0,10,11
 467 621 467 621 492 604 c 128,-1,12
 517 587 517 587 535 560 c 128,-1,13
 553 533 553 533 565 499 c 128,-1,14
 577 465 577 465 583.5 430 c 128,-1,15
 590 395 590 395 592.5 362.5 c 128,-1,16
 595 330 595 330 595 307 c 0,17,18
 595 258 595 258 586 201 c 128,-1,19
 577 144 577 144 557 95.5 c 128,-1,20
 537 47 537 47 504.5 15 c 128,-1,21
 472 -17 472 -17 425 -17 c 0,0,1
318 512 m 0,22,23
 327 531 327 531 332 540.5 c 128,-1,24
 337 550 337 550 337 553 c 0,25,26
 337 555 337 555 333 555.5 c 128,-1,27
 329 556 329 556 324 549 c 0,28,29
 320 543 320 543 313 530.5 c 128,-1,30
 306 518 306 518 299 504 c 128,-1,31
 292 490 292 490 287.5 476.5 c 128,-1,32
 283 463 283 463 283 456 c 256,33,34
 283 449 283 449 288 451 c 128,-1,35
 293 453 293 453 296 460 c 0,36,37
 299 468 299 468 304 481 c 128,-1,38
 309 494 309 494 318 512 c 0,22,23
426 59 m 0,39,40
 457 59 457 59 475 85 c 128,-1,41
 493 111 493 111 502.5 150 c 128,-1,42
 512 189 512 189 514.5 234 c 128,-1,43
 517 279 517 279 517 316 c 0,44,45
 517 339 517 339 514 377 c 128,-1,46
 511 415 511 415 502 451.5 c 128,-1,47
 493 488 493 488 476.5 514.5 c 128,-1,48
 460 541 460 541 433 541 c 0,49,50
 411 541 411 541 395 514 c 128,-1,51
 379 487 379 487 368.5 449.5 c 128,-1,52
 358 412 358 412 353 371 c 128,-1,53
 348 330 348 330 348 301 c 0,54,55
 348 286 348 286 348 262.5 c 128,-1,56
 348 239 348 239 350 212 c 128,-1,57
 352 185 352 185 356.5 158 c 128,-1,58
 361 131 361 131 369.5 109 c 128,-1,59
 378 87 378 87 392 73 c 128,-1,60
 406 59 406 59 426 59 c 0,39,40
EndSplineSet











EndChar

StartChar: one
Encoding: 49 49 19
Width: 840
Flags: W
LayerCount: 2
Fore
SplineSet
469.5 0 m 0,0,1
 424.5 0 424.5 0 424.5 47 c 2,2,-1
 424.5 450 l 2,3,4
 424.5 459 424.5 459 424 466 c 128,-1,5
 423.5 473 423.5 473 421.5 473 c 0,6,7
 418.5 473 418.5 473 412.5 465.5 c 128,-1,8
 406.5 458 406.5 458 399 448.5 c 128,-1,9
 391.5 439 391.5 439 383 429.5 c 128,-1,10
 374.5 420 374.5 420 366.5 416 c 0,11,12
 357.5 411 357.5 411 347.5 411 c 0,13,14
 333.5 411 333.5 411 324.5 421 c 128,-1,15
 315.5 431 315.5 431 315.5 445 c 0,16,17
 315.5 450 315.5 450 325 463 c 128,-1,18
 334.5 476 334.5 476 341.5 486 c 0,19,20
 350.5 499 350.5 499 368.5 521 c 128,-1,21
 386.5 543 386.5 543 407 564 c 128,-1,22
 427.5 585 427.5 585 446.5 600.5 c 128,-1,23
 465.5 616 465.5 616 477.5 616 c 0,24,25
 483.5 616 483.5 616 491.5 615 c 128,-1,26
 499.5 614 499.5 614 507 611 c 128,-1,27
 514.5 608 514.5 608 519.5 602.5 c 128,-1,28
 524.5 597 524.5 597 524.5 587 c 2,29,-1
 524.5 48 l 2,30,31
 524.5 30 524.5 30 508 15 c 128,-1,32
 491.5 0 491.5 0 469.5 0 c 0,0,1
468.5 592 m 0,33,34
 473.5 600 473.5 600 476.5 602.5 c 128,-1,35
 479.5 605 479.5 605 476.5 606 c 0,36,37
 474.5 606 474.5 606 467.5 603.5 c 128,-1,38
 460.5 601 460.5 601 454.5 595 c 0,39,40
 449.5 590 449.5 590 441.5 583 c 128,-1,41
 433.5 576 433.5 576 433.5 572 c 0,42,43
 433.5 569 433.5 569 437.5 568 c 0,44,45
 444.5 567 444.5 567 454.5 577 c 128,-1,46
 464.5 587 464.5 587 468.5 592 c 0,33,34
457.5 45 m 0,47,48
 457.5 53 457.5 53 455 58 c 128,-1,49
 452.5 63 452.5 63 452.5 74 c 0,50,51
 452.5 79 452.5 79 452 83 c 128,-1,52
 451.5 87 451.5 87 446.5 87 c 0,53,54
 442.5 87 442.5 87 440.5 77.5 c 128,-1,55
 438.5 68 438.5 68 438.5 57 c 128,-1,56
 438.5 46 438.5 46 440.5 36.5 c 128,-1,57
 442.5 27 442.5 27 446.5 27 c 0,58,59
 457.5 27 457.5 27 457.5 45 c 0,47,48
EndSplineSet










EndChar

StartChar: two
Encoding: 50 50 20
Width: 840
Flags: W
LayerCount: 2
Fore
SplineSet
289.2109375 0 m 2,0,1
 280.2109375 0 280.2109375 0 272.7109375 13 c 128,-1,2
 265.2109375 26 265.2109375 26 267.2109375 38 c 256,3,4
 269.2109375 50 269.2109375 50 283.2109375 68 c 128,-1,5
 297.2109375 86 297.2109375 86 313.2109375 106 c 0,6,7
 349.2109375 151 349.2109375 151 378.2109375 198.5 c 128,-1,8
 407.2109375 246 407.2109375 246 427.7109375 292.5 c 128,-1,9
 448.2109375 339 448.2109375 339 459.2109375 383 c 128,-1,10
 470.2109375 427 470.2109375 427 470.2109375 465 c 0,11,12
 470.2109375 506 470.2109375 506 452.7109375 520 c 128,-1,13
 435.2109375 534 435.2109375 534 415.2109375 534 c 256,14,15
 395.2109375 534 395.2109375 534 380.2109375 517.5 c 128,-1,16
 365.2109375 501 365.2109375 501 365.2109375 464 c 0,17,18
 365.2109375 442 365.2109375 442 370.2109375 430.5 c 128,-1,19
 375.2109375 419 375.2109375 419 375.2109375 403 c 0,20,21
 375.2109375 389 375.2109375 389 359.7109375 383 c 128,-1,22
 344.2109375 377 344.2109375 377 333.2109375 377 c 0,23,24
 307.2109375 377 307.2109375 377 289.7109375 403.5 c 128,-1,25
 272.2109375 430 272.2109375 430 272.2109375 470 c 0,26,27
 272.2109375 502 272.2109375 502 282.7109375 529.5 c 128,-1,28
 293.2109375 557 293.2109375 557 312.7109375 577.5 c 128,-1,29
 332.2109375 598 332.2109375 598 358.7109375 610 c 128,-1,30
 385.2109375 622 385.2109375 622 416.2109375 622 c 0,31,32
 446.2109375 622 446.2109375 622 474.7109375 610.5 c 128,-1,33
 503.2109375 599 503.2109375 599 525.2109375 577.5 c 128,-1,34
 547.2109375 556 547.2109375 556 560.2109375 525.5 c 128,-1,35
 573.2109375 495 573.2109375 495 573.2109375 457 c 0,36,37
 573.2109375 410 573.2109375 410 561.2109375 364 c 128,-1,38
 549.2109375 318 549.2109375 318 530.7109375 277 c 128,-1,39
 512.2109375 236 512.2109375 236 491.2109375 201 c 128,-1,40
 470.2109375 166 470.2109375 166 451.7109375 140 c 128,-1,41
 433.2109375 114 433.2109375 114 421.2109375 98 c 128,-1,42
 409.2109375 82 409.2109375 82 409.2109375 79 c 1,43,44
 412.2109375 79 412.2109375 79 417.2109375 79 c 2,45,-1
 441.2109375 79 l 1,46,-1
 528.2109375 82 l 2,47,48
 546.2109375 83 546.2109375 83 555.2109375 79 c 128,-1,49
 564.2109375 75 564.2109375 75 568.2109375 67.5 c 128,-1,50
 572.2109375 60 572.2109375 60 572.2109375 50 c 128,-1,51
 572.2109375 40 572.2109375 40 572.2109375 29 c 0,52,53
 572.2109375 11 572.2109375 11 561.7109375 5.5 c 128,-1,54
 551.2109375 0 551.2109375 0 519.2109375 0 c 2,55,-1
 289.2109375 0 l 2,0,1
305.2109375 488 m 0,56,57
 306.2109375 500 306.2109375 500 304.2109375 507 c 128,-1,58
 302.2109375 514 302.2109375 514 299.2109375 513 c 0,59,60
 295.2109375 513 295.2109375 513 292.7109375 506.5 c 128,-1,61
 290.2109375 500 290.2109375 500 289.7109375 491.5 c 128,-1,62
 289.2109375 483 289.2109375 483 289.2109375 475.5 c 128,-1,63
 289.2109375 468 289.2109375 468 289.2109375 465 c 0,64,65
 291.2109375 452 291.2109375 452 294.2109375 450 c 0,66,67
 299.2109375 445 299.2109375 445 301.2109375 452 c 128,-1,68
 303.2109375 459 303.2109375 459 305.2109375 488 c 0,56,57
307.2109375 424 m 0,69,70
 307.2109375 431 307.2109375 431 300.2109375 431 c 256,71,72
 293.2109375 431 293.2109375 431 293.2109375 423 c 0,73,74
 293.2109375 421 293.2109375 421 295.2109375 418 c 128,-1,75
 297.2109375 415 297.2109375 415 299.2109375 415 c 0,76,77
 303.2109375 415 303.2109375 415 305.2109375 418 c 128,-1,78
 307.2109375 421 307.2109375 421 307.2109375 424 c 0,69,70
306.2109375 50 m 0,79,80
 314.2109375 69 314.2109375 69 311.2109375 69 c 0,81,82
 304.2109375 69 304.2109375 69 296.7109375 60 c 128,-1,83
 289.2109375 51 289.2109375 51 289.2109375 40 c 0,84,85
 289.2109375 32 289.2109375 32 293.2109375 32 c 0,86,87
 298.2109375 32 298.2109375 32 306.2109375 50 c 0,79,80
EndSplineSet










EndChar

StartChar: three
Encoding: 51 51 21
Width: 840
Flags: W
LayerCount: 2
Fore
SplineSet
472 486 m 0,0,1
 472 515 472 515 458 527.5 c 128,-1,2
 444 540 444 540 416 540 c 0,3,4
 383 540 383 540 367 514.5 c 128,-1,5
 351 489 351 489 351 430 c 0,6,7
 351 416 351 416 340.5 410 c 128,-1,8
 330 404 330 404 319 404 c 0,9,10
 258 404 258 404 258 493 c 0,11,12
 258 520 258 520 271.5 543.5 c 128,-1,13
 285 567 285 567 306.5 584.5 c 128,-1,14
 328 602 328 602 356 612 c 128,-1,15
 384 622 384 622 412 622 c 0,16,17
 456 622 456 622 487.5 611 c 128,-1,18
 519 600 519 600 539 581 c 128,-1,19
 559 562 559 562 569 537.5 c 128,-1,20
 579 513 579 513 579 487 c 0,21,22
 579 447 579 447 561.5 418 c 128,-1,23
 544 389 544 389 522.5 368.5 c 128,-1,24
 501 348 501 348 483.5 336 c 128,-1,25
 466 324 466 324 466 318 c 256,26,27
 466 312 466 312 484 305.5 c 128,-1,28
 502 299 502 299 524 284 c 128,-1,29
 546 269 546 269 564 241.5 c 128,-1,30
 582 214 582 214 582 167 c 0,31,32
 582 121 582 121 564.5 88.5 c 128,-1,33
 547 56 547 56 518.5 35 c 128,-1,34
 490 14 490 14 454 4 c 128,-1,35
 418 -6 418 -6 381 -6 c 0,36,37
 365 -6 365 -6 345 -1.5 c 128,-1,38
 325 3 325 3 307.5 12.5 c 128,-1,39
 290 22 290 22 278 36.5 c 128,-1,40
 266 51 266 51 266 71 c 0,41,42
 266 86 266 86 272 95.5 c 128,-1,43
 278 105 278 105 289 105 c 0,44,45
 302 105 302 105 312.5 100.5 c 128,-1,46
 323 96 323 96 333.5 90.5 c 128,-1,47
 344 85 344 85 356 80.5 c 128,-1,48
 368 76 368 76 383 76 c 0,49,50
 410 76 410 76 428 84 c 128,-1,51
 446 92 446 92 456.5 105 c 128,-1,52
 467 118 467 118 471 134 c 128,-1,53
 475 150 475 150 475 166 c 0,54,55
 475 198 475 198 457 220 c 128,-1,56
 439 242 439 242 410 242 c 0,57,58
 368 242 368 242 351 257 c 128,-1,59
 334 272 334 272 334 292 c 0,60,61
 334 311 334 311 355.5 334.5 c 128,-1,62
 377 358 377 358 403 383 c 128,-1,63
 429 408 429 408 450.5 434.5 c 128,-1,64
 472 461 472 461 472 486 c 0,0,1
299 515 m 0,65,66
 300 527 300 527 298 534 c 128,-1,67
 296 541 296 541 293 540 c 0,68,69
 289 540 289 540 285.5 534 c 128,-1,70
 282 528 282 528 279.5 520 c 128,-1,71
 277 512 277 512 275.5 504 c 128,-1,72
 274 496 274 496 275 492 c 0,73,74
 277 479 277 479 280 477 c 0,75,76
 285 472 285 472 291 479 c 128,-1,77
 297 486 297 486 299 515 c 0,65,66
293 451 m 0,78,79
 293 458 293 458 286 458 c 256,80,81
 279 458 279 458 279 450 c 0,82,83
 279 448 279 448 281 445 c 128,-1,84
 283 442 283 442 285 442 c 0,85,86
 289 442 289 442 291 445 c 128,-1,87
 293 448 293 448 293 451 c 0,78,79
367 291 m 0,88,89
 369 296 369 296 373 304 c 128,-1,90
 377 312 377 312 382 319 c 0,91,92
 386 325 386 325 387 330 c 128,-1,93
 388 335 388 335 386 335 c 0,94,95
 382 335 382 335 376 329 c 128,-1,96
 370 323 370 323 364.5 315 c 128,-1,97
 359 307 359 307 355 298.5 c 128,-1,98
 351 290 351 290 351 284 c 0,99,100
 351 275 351 275 356 275 c 256,101,102
 361 275 361 275 367 291 c 0,88,89
297 80 m 0,103,104
 297 101 297 101 288 92 c 0,105,106
 283 87 283 87 281 78 c 128,-1,107
 279 69 279 69 280 62 c 0,108,109
 281 58 281 58 283 56.5 c 128,-1,110
 285 55 285 55 287 55 c 256,111,112
 289 55 289 55 293 63.5 c 128,-1,113
 297 72 297 72 297 80 c 0,103,104
EndSplineSet










EndChar

StartChar: four
Encoding: 52 52 22
Width: 840
Flags: W
LayerCount: 2
Fore
SplineSet
527.5 0 m 0,0,1
 503.5 0 503.5 0 495 19.5 c 128,-1,2
 486.5 39 486.5 39 486.5 62 c 2,3,-1
 486.5 130 l 2,4,5
 486.5 142 486.5 142 473.5 142 c 2,6,-1
 292.5 142 l 2,7,8
 270.5 142 270.5 142 260 152 c 128,-1,9
 249.5 162 249.5 162 249.5 173 c 0,10,11
 249.5 178 249.5 178 258 209.5 c 128,-1,12
 266.5 241 266.5 241 279 286 c 128,-1,13
 291.5 331 291.5 331 306.5 382 c 128,-1,14
 321.5 433 321.5 433 335 478 c 128,-1,15
 348.5 523 348.5 523 358.5 555 c 128,-1,16
 368.5 587 368.5 587 371.5 592 c 0,17,18
 379.5 607 379.5 607 389.5 610.5 c 128,-1,19
 399.5 614 399.5 614 409.5 614 c 0,20,21
 414.5 614 414.5 614 423.5 612 c 128,-1,22
 432.5 610 432.5 610 441 606.5 c 128,-1,23
 449.5 603 449.5 603 456 598 c 128,-1,24
 462.5 593 462.5 593 462.5 587 c 256,25,26
 462.5 581 462.5 581 457.5 558.5 c 128,-1,27
 452.5 536 452.5 536 444.5 503.5 c 128,-1,28
 436.5 471 436.5 471 426.5 433 c 128,-1,29
 416.5 395 416.5 395 406.5 358.5 c 128,-1,30
 396.5 322 396.5 322 387.5 291.5 c 128,-1,31
 378.5 261 378.5 261 372.5 243 c 0,32,33
 370.5 238 370.5 238 369.5 235 c 128,-1,34
 368.5 232 368.5 232 368.5 229 c 0,35,36
 368.5 224 368.5 224 376.5 224 c 2,37,-1
 473.5 224 l 2,38,39
 481.5 224 481.5 224 484 226.5 c 128,-1,40
 486.5 229 486.5 229 486.5 235 c 2,41,-1
 486.5 536 l 2,42,43
 486.5 561 486.5 561 491 576.5 c 128,-1,44
 495.5 592 495.5 592 502.5 601 c 128,-1,45
 509.5 610 509.5 610 518.5 613 c 128,-1,46
 527.5 616 527.5 616 537.5 616 c 0,47,48
 564.5 616 564.5 616 577.5 597 c 128,-1,49
 590.5 578 590.5 578 590.5 550 c 2,50,-1
 590.5 70 l 2,51,52
 590.5 49 590.5 49 585.5 35 c 128,-1,53
 580.5 21 580.5 21 571.5 13.5 c 128,-1,54
 562.5 6 562.5 6 551 3 c 128,-1,55
 539.5 0 539.5 0 527.5 0 c 0,0,1
506.5 541 m 256,56,57
 510.5 541 510.5 541 514 547 c 128,-1,58
 517.5 553 517.5 553 520 561 c 128,-1,59
 522.5 569 522.5 569 524 577.5 c 128,-1,60
 525.5 586 525.5 586 525.5 591 c 0,61,62
 525.5 598 525.5 598 518.5 598 c 0,63,64
 515.5 598 515.5 598 512.5 593.5 c 128,-1,65
 509.5 589 509.5 589 507 582.5 c 128,-1,66
 504.5 576 504.5 576 502.5 569.5 c 128,-1,67
 500.5 563 500.5 563 500.5 558 c 0,68,69
 500.5 552 500.5 552 501.5 546.5 c 128,-1,70
 502.5 541 502.5 541 506.5 541 c 256,56,57
293.5 215 m 0,71,72
 297.5 228 297.5 228 300 235 c 128,-1,73
 302.5 242 302.5 242 301.5 251 c 0,74,75
 301.5 259 301.5 259 296.5 259 c 0,76,77
 293.5 259 293.5 259 290 251.5 c 128,-1,78
 286.5 244 286.5 244 283 234 c 128,-1,79
 279.5 224 279.5 224 277.5 214 c 128,-1,80
 275.5 204 275.5 204 275.5 199 c 0,81,82
 275.5 188 275.5 188 280.5 188 c 0,83,84
 287.5 189 287.5 189 293.5 215 c 0,71,72
283.5 169 m 0,85,86
 283.5 179 283.5 179 275.5 179 c 256,87,88
 267.5 179 267.5 179 267.5 169 c 0,89,90
 267.5 167 267.5 167 268.5 166 c 0,91,92
 272.5 162 272.5 162 275.5 162 c 0,93,94
 277.5 162 277.5 162 280.5 164 c 128,-1,95
 283.5 166 283.5 166 283.5 169 c 0,85,86
519.5 29 m 0,96,97
 516.5 35 516.5 35 513.5 37.5 c 128,-1,98
 510.5 40 510.5 40 510.5 45 c 0,99,100
 510.5 49 510.5 49 509.5 53 c 0,101,102
 509.5 61 509.5 61 504.5 61 c 0,103,104
 498.5 61 498.5 61 498.5 50 c 0,105,106
 498.5 42 498.5 42 503 28.5 c 128,-1,107
 507.5 15 507.5 15 513.5 15 c 0,108,109
 516.5 15 516.5 15 519.5 19.5 c 128,-1,110
 522.5 24 522.5 24 519.5 29 c 0,96,97
EndSplineSet










EndChar

StartChar: five
Encoding: 53 53 23
Width: 840
Flags: W
LayerCount: 2
Fore
SplineSet
320 -8 m 0,0,1
 298 -8 298 -8 285.5 -1.5 c 128,-1,2
 273 5 273 5 267 14 c 128,-1,3
 261 23 261 23 259.5 32.5 c 128,-1,4
 258 42 258 42 258 48 c 0,5,6
 258 62 258 62 263.5 70 c 128,-1,7
 269 78 269 78 278 81.5 c 128,-1,8
 287 85 287 85 298 85.5 c 128,-1,9
 309 86 309 86 320 86 c 0,10,11
 407 86 407 86 443.5 112.5 c 128,-1,12
 480 139 480 139 480 196 c 0,13,14
 480 251 480 251 454 277 c 128,-1,15
 428 303 428 303 379 303 c 0,16,17
 360 303 360 303 348 300 c 128,-1,18
 336 297 336 297 327 293.5 c 128,-1,19
 318 290 318 290 310 287 c 128,-1,20
 302 284 302 284 292 284 c 256,21,22
 282 284 282 284 276 293 c 128,-1,23
 270 302 270 302 267 314.5 c 128,-1,24
 264 327 264 327 263.5 341.5 c 128,-1,25
 263 356 263 356 263 366 c 2,26,-1
 263 568 l 2,27,28
 263 595 263 595 276.5 605.5 c 128,-1,29
 290 616 290 616 309 616 c 2,30,-1
 542 616 l 2,31,32
 550 616 550 616 557 608.5 c 128,-1,33
 564 601 564 601 564 587 c 0,34,35
 564 569 564 569 556.5 552.5 c 128,-1,36
 549 536 549 536 540 536 c 2,37,-1
 372 535 l 2,38,39
 367 535 367 535 365 530.5 c 128,-1,40
 363 526 363 526 363 521 c 2,41,-1
 363 399 l 2,42,43
 363 383 363 383 366 381 c 128,-1,44
 369 379 369 379 376 379 c 2,45,-1
 400 380 l 2,46,47
 440 382 440 382 473.5 371.5 c 128,-1,48
 507 361 507 361 531 338 c 128,-1,49
 555 315 555 315 568.5 280 c 128,-1,50
 582 245 582 245 582 197 c 0,51,52
 582 158 582 158 566 121.5 c 128,-1,53
 550 85 550 85 517.5 56 c 128,-1,54
 485 27 485 27 436 9.5 c 128,-1,55
 387 -8 387 -8 320 -8 c 0,0,1
291 403 m 0,56,57
 291 422 291 422 290 432 c 128,-1,58
 289 442 289 442 283 436 c 0,59,60
 280 433 280 433 278 421 c 128,-1,61
 276 409 276 409 276 395 c 128,-1,62
 276 381 276 381 278 369 c 128,-1,63
 280 357 280 357 283 354 c 256,64,65
 286 351 286 351 287 351 c 0,66,67
 291 351 291 351 291 403 c 0,56,57
299 326 m 0,68,69
 299 336 299 336 294 336 c 0,70,71
 283 336 283 336 283 322 c 0,72,73
 283 315 283 315 291 315 c 0,74,75
 296 315 296 315 297.5 319.5 c 128,-1,76
 299 324 299 324 299 326 c 0,68,69
290 48 m 0,77,78
 289 50 289 50 289.5 54 c 128,-1,79
 290 58 290 58 290.5 61.5 c 128,-1,80
 291 65 291 65 290 67.5 c 128,-1,81
 289 70 289 70 285 70 c 0,82,83
 280 70 280 70 278 61.5 c 128,-1,84
 276 53 276 53 277 42 c 256,85,86
 278 31 278 31 281 21.5 c 128,-1,87
 284 12 284 12 290 12 c 0,88,89
 292 12 292 12 293.5 23 c 128,-1,90
 295 34 295 34 290 48 c 0,77,78
EndSplineSet










EndChar

StartChar: six
Encoding: 54 54 24
Width: 840
Flags: W
LayerCount: 2
Fore
SplineSet
421.5 -11 m 0,0,1
 369.5 -11 369.5 -11 333 8.5 c 128,-1,2
 296.5 28 296.5 28 273.5 61 c 128,-1,3
 250.5 94 250.5 94 240 136.5 c 128,-1,4
 229.5 179 229.5 179 229.5 225 c 0,5,6
 229.5 276 229.5 276 237.5 328.5 c 128,-1,7
 245.5 381 245.5 381 262.5 429 c 128,-1,8
 279.5 477 279.5 477 307 518 c 128,-1,9
 334.5 559 334.5 559 373.5 587 c 0,10,11
 401.5 607 401.5 607 429.5 613.5 c 128,-1,12
 457.5 620 457.5 620 479.5 620 c 0,13,14
 484.5 620 484.5 620 492 618.5 c 128,-1,15
 499.5 617 499.5 617 506.5 614 c 128,-1,16
 513.5 611 513.5 611 519 606 c 128,-1,17
 524.5 601 524.5 601 524.5 593 c 0,18,19
 524.5 579 524.5 579 519.5 567.5 c 128,-1,20
 514.5 556 514.5 556 487.5 547 c 0,21,22
 461.5 538 461.5 538 440.5 521 c 128,-1,23
 419.5 504 419.5 504 403 482.5 c 128,-1,24
 386.5 461 386.5 461 374.5 435.5 c 128,-1,25
 362.5 410 362.5 410 353.5 385 c 0,26,27
 348.5 373 348.5 373 344.5 354.5 c 128,-1,28
 340.5 336 340.5 336 340.5 325 c 0,29,30
 340.5 315 340.5 315 344.5 315 c 0,31,32
 347.5 315 347.5 315 354.5 324.5 c 128,-1,33
 361.5 334 361.5 334 374.5 345 c 128,-1,34
 387.5 356 387.5 356 406.5 365.5 c 128,-1,35
 425.5 375 425.5 375 452.5 375 c 0,36,37
 529.5 375 529.5 375 570 323 c 128,-1,38
 610.5 271 610.5 271 610.5 187 c 0,39,40
 610.5 146 610.5 146 595.5 110 c 128,-1,41
 580.5 74 580.5 74 554.5 47 c 128,-1,42
 528.5 20 528.5 20 494 4.5 c 128,-1,43
 459.5 -11 459.5 -11 421.5 -11 c 0,0,1
416.5 80 m 0,44,45
 458.5 80 458.5 80 484 106.5 c 128,-1,46
 509.5 133 509.5 133 509.5 190 c 0,47,48
 509.5 207 509.5 207 506.5 224 c 128,-1,49
 503.5 241 503.5 241 495.5 255 c 128,-1,50
 487.5 269 487.5 269 474 277.5 c 128,-1,51
 460.5 286 460.5 286 439.5 286 c 0,52,53
 420.5 286 420.5 286 401 276 c 128,-1,54
 381.5 266 381.5 266 366.5 250.5 c 128,-1,55
 351.5 235 351.5 235 342 215.5 c 128,-1,56
 332.5 196 332.5 196 332.5 178 c 0,57,58
 332.5 137 332.5 137 350 108.5 c 128,-1,59
 367.5 80 367.5 80 416.5 80 c 0,44,45
290.5 107 m 0,60,61
 287.5 118 287.5 118 283.5 127.5 c 128,-1,62
 279.5 137 279.5 137 276.5 148 c 0,63,64
 274.5 154 274.5 154 273 159 c 128,-1,65
 271.5 164 271.5 164 267.5 163 c 0,66,67
 264.5 163 264.5 163 262.5 155 c 0,68,69
 261.5 148 261.5 148 265 135 c 128,-1,70
 268.5 122 268.5 122 273.5 110 c 128,-1,71
 278.5 98 278.5 98 284 89.5 c 128,-1,72
 289.5 81 289.5 81 291.5 81 c 0,73,74
 296.5 81 296.5 81 296.5 86 c 0,75,76
 296.5 90 296.5 90 294.5 95 c 128,-1,77
 292.5 100 292.5 100 290.5 107 c 0,60,61
EndSplineSet










EndChar

StartChar: seven
Encoding: 55 55 25
Width: 840
Flags: W
LayerCount: 2
Fore
SplineSet
341.5 -2 m 0,0,1
 327.5 -2 327.5 -2 318 6.5 c 128,-1,2
 308.5 15 308.5 15 308.5 25 c 0,3,4
 308.5 34 308.5 34 318.5 70 c 128,-1,5
 328.5 106 328.5 106 343.5 156 c 128,-1,6
 358.5 206 358.5 206 376.5 263 c 128,-1,7
 394.5 320 394.5 320 411 371 c 128,-1,8
 427.5 422 427.5 422 440.5 461 c 128,-1,9
 453.5 500 453.5 500 458.5 514 c 0,10,11
 463.5 529 463.5 529 451.5 529 c 2,12,-1
 321.5 529 l 2,13,14
 294.5 529 294.5 529 279.5 537.5 c 128,-1,15
 264.5 546 264.5 546 264.5 573 c 256,16,17
 264.5 600 264.5 600 281 608 c 128,-1,18
 297.5 616 297.5 616 323.5 616 c 2,19,-1
 534.5 616 l 2,20,21
 551.5 616 551.5 616 563.5 605.5 c 128,-1,22
 575.5 595 575.5 595 575.5 581 c 0,23,24
 575.5 571 575.5 571 564.5 529 c 128,-1,25
 553.5 487 553.5 487 536 429 c 128,-1,26
 518.5 371 518.5 371 497 303.5 c 128,-1,27
 475.5 236 475.5 236 455.5 176 c 128,-1,28
 435.5 116 435.5 116 419.5 71 c 128,-1,29
 403.5 26 403.5 26 395.5 11 c 0,30,31
 393.5 6 393.5 6 379 2 c 128,-1,32
 364.5 -2 364.5 -2 341.5 -2 c 0,0,1
296.5 594 m 0,33,34
 296.5 602 296.5 602 291.5 602 c 256,35,36
 286.5 602 286.5 602 280 594.5 c 128,-1,37
 273.5 587 273.5 587 273.5 576 c 0,38,39
 273.5 556 273.5 556 281.5 556 c 0,40,41
 284.5 556 284.5 556 287.5 560.5 c 128,-1,42
 290.5 565 290.5 565 292.5 571 c 128,-1,43
 294.5 577 294.5 577 295.5 583.5 c 128,-1,44
 296.5 590 296.5 590 296.5 594 c 0,33,34
341.5 38 m 0,45,46
 343.5 48 343.5 48 345.5 58.5 c 128,-1,47
 347.5 69 347.5 69 349.5 73 c 0,48,49
 353.5 78 353.5 78 352 83 c 128,-1,50
 350.5 88 350.5 88 345.5 88 c 0,51,52
 342.5 88 342.5 88 339 81 c 128,-1,53
 335.5 74 335.5 74 333 64.5 c 128,-1,54
 330.5 55 330.5 55 328.5 45.5 c 128,-1,55
 326.5 36 326.5 36 326.5 31 c 0,56,57
 326.5 19 326.5 19 331.5 19 c 256,58,59
 336.5 19 336.5 19 341.5 38 c 0,45,46
EndSplineSet










EndChar

StartChar: eight
Encoding: 56 56 26
Width: 840
Flags: W
LayerCount: 2
Fore
SplineSet
411.5 -6 m 0,0,1
 371.5 -6 371.5 -6 338 8.5 c 128,-1,2
 304.5 23 304.5 23 281 46.5 c 128,-1,3
 257.5 70 257.5 70 244.5 100.5 c 128,-1,4
 231.5 131 231.5 131 231.5 163 c 0,5,6
 231.5 201 231.5 201 248.5 228 c 128,-1,7
 265.5 255 265.5 255 286 274 c 128,-1,8
 306.5 293 306.5 293 323.5 305.5 c 128,-1,9
 340.5 318 340.5 318 340.5 325 c 0,10,11
 340.5 333 340.5 333 325 342 c 128,-1,12
 309.5 351 309.5 351 290.5 367 c 128,-1,13
 271.5 383 271.5 383 256 407.5 c 128,-1,14
 240.5 432 240.5 432 240.5 471 c 0,15,16
 240.5 503 240.5 503 255 531 c 128,-1,17
 269.5 559 269.5 559 294.5 580 c 128,-1,18
 319.5 601 319.5 601 351.5 613 c 128,-1,19
 383.5 625 383.5 625 418.5 625 c 0,20,21
 444.5 625 444.5 625 474.5 614.5 c 128,-1,22
 504.5 604 504.5 604 530 584.5 c 128,-1,23
 555.5 565 555.5 565 572 536 c 128,-1,24
 588.5 507 588.5 507 588.5 469 c 0,25,26
 588.5 432 588.5 432 574.5 409.5 c 128,-1,27
 560.5 387 560.5 387 544 373.5 c 128,-1,28
 527.5 360 527.5 360 513.5 353 c 128,-1,29
 499.5 346 499.5 346 499.5 340 c 0,30,31
 499.5 331 499.5 331 516.5 319.5 c 128,-1,32
 533.5 308 533.5 308 554 289.5 c 128,-1,33
 574.5 271 574.5 271 591.5 242 c 128,-1,34
 608.5 213 608.5 213 608.5 169 c 0,35,36
 608.5 136 608.5 136 593 104.5 c 128,-1,37
 577.5 73 577.5 73 550.5 48 c 128,-1,38
 523.5 23 523.5 23 488 8.5 c 128,-1,39
 452.5 -6 452.5 -6 411.5 -6 c 0,0,1
283.5 512 m 0,40,41
 284.5 518 284.5 518 289.5 525 c 128,-1,42
 294.5 532 294.5 532 300.5 538.5 c 128,-1,43
 306.5 545 306.5 545 312 550.5 c 128,-1,44
 317.5 556 317.5 556 320.5 559 c 0,45,46
 331.5 571 331.5 571 331.5 578 c 0,47,48
 331.5 582 331.5 582 327.5 582 c 0,49,50
 318.5 582 318.5 582 308 572.5 c 128,-1,51
 297.5 563 297.5 563 288.5 549.5 c 128,-1,52
 279.5 536 279.5 536 273.5 522.5 c 128,-1,53
 267.5 509 267.5 509 267.5 501 c 256,54,55
 267.5 493 267.5 493 271.5 493 c 0,56,57
 278.5 493 278.5 493 283.5 512 c 0,40,41
418.5 371 m 0,58,59
 431.5 371 431.5 371 444 379.5 c 128,-1,60
 456.5 388 456.5 388 466.5 402 c 128,-1,61
 476.5 416 476.5 416 483 433.5 c 128,-1,62
 489.5 451 489.5 451 489.5 469 c 0,63,64
 489.5 504 489.5 504 469.5 529.5 c 128,-1,65
 449.5 555 449.5 555 417.5 555 c 256,66,67
 385.5 555 385.5 555 362.5 533 c 128,-1,68
 339.5 511 339.5 511 339.5 473 c 0,69,70
 339.5 459 339.5 459 344.5 441.5 c 128,-1,71
 349.5 424 349.5 424 359.5 408 c 128,-1,72
 369.5 392 369.5 392 384.5 381.5 c 128,-1,73
 399.5 371 399.5 371 418.5 371 c 0,58,59
273.5 469 m 0,74,75
 273.5 478 273.5 478 266.5 478 c 0,76,77
 261.5 478 261.5 478 260 475 c 128,-1,78
 258.5 472 258.5 472 258.5 469 c 0,79,80
 258.5 467 258.5 467 259.5 465 c 0,81,82
 261.5 461 261.5 461 265.5 461 c 0,83,84
 267.5 461 267.5 461 270.5 463 c 128,-1,85
 273.5 465 273.5 465 273.5 469 c 0,74,75
413.5 73 m 0,86,87
 461.5 73 461.5 73 479 98 c 128,-1,88
 496.5 123 496.5 123 496.5 169 c 0,89,90
 496.5 188 496.5 188 489 208.5 c 128,-1,91
 481.5 229 481.5 229 470 246 c 128,-1,92
 458.5 263 458.5 263 445.5 274 c 128,-1,93
 432.5 285 432.5 285 421.5 285 c 0,94,95
 406.5 285 406.5 285 391.5 273.5 c 128,-1,96
 376.5 262 376.5 262 364.5 244.5 c 128,-1,97
 352.5 227 352.5 227 345 205.5 c 128,-1,98
 337.5 184 337.5 184 337.5 163 c 0,99,100
 337.5 147 337.5 147 343 131 c 128,-1,101
 348.5 115 348.5 115 358 102 c 128,-1,102
 367.5 89 367.5 89 381.5 81 c 128,-1,103
 395.5 73 395.5 73 413.5 73 c 0,86,87
277.5 222 m 256,104,105
 280.5 230 280.5 230 277.5 233 c 128,-1,106
 274.5 236 274.5 236 267.5 229 c 0,107,108
 264.5 226 264.5 226 259.5 218.5 c 128,-1,109
 254.5 211 254.5 211 250 202 c 128,-1,110
 245.5 193 245.5 193 242 183.5 c 128,-1,111
 238.5 174 238.5 174 238.5 166 c 0,112,113
 237.5 158 237.5 158 241 150.5 c 128,-1,114
 244.5 143 244.5 143 251.5 143 c 0,115,116
 259.5 143 259.5 143 258.5 155.5 c 128,-1,117
 257.5 168 257.5 168 259.5 179 c 0,118,119
 262.5 194 262.5 194 268.5 204 c 128,-1,120
 274.5 214 274.5 214 277.5 222 c 256,104,105
EndSplineSet










EndChar

StartChar: nine
Encoding: 57 57 27
Width: 840
Flags: W
LayerCount: 2
Fore
SplineSet
418 623 m 0,0,1
 473 623 473 623 510 601.5 c 128,-1,2
 547 580 547 580 569 546 c 128,-1,3
 591 512 591 512 600.5 470 c 128,-1,4
 610 428 610 428 610 387 c 0,5,6
 610 336 610 336 598.5 284 c 128,-1,7
 587 232 587 232 566.5 185 c 128,-1,8
 546 138 546 138 518 99 c 128,-1,9
 490 60 490 60 457 34 c 0,10,11
 430 13 430 13 401.5 2.5 c 128,-1,12
 373 -8 373 -8 351 -8 c 0,13,14
 333 -8 333 -8 320.5 -1.5 c 128,-1,15
 308 5 308 5 308 21 c 0,16,17
 308 36 308 36 316 51.5 c 128,-1,18
 324 67 324 67 351 76 c 0,19,20
 377 85 377 85 397.5 100 c 128,-1,21
 418 115 418 115 434 135 c 128,-1,22
 450 155 450 155 461.5 178.5 c 128,-1,23
 473 202 473 202 482 227 c 0,24,25
 487 239 487 239 491 257.5 c 128,-1,26
 495 276 495 276 495 287 c 0,27,28
 495 297 495 297 491 297 c 0,29,30
 488 297 488 297 481.5 289 c 128,-1,31
 475 281 475 281 462 272 c 128,-1,32
 449 263 449 263 429 255 c 128,-1,33
 409 247 409 247 379 247 c 0,34,35
 309 247 309 247 269.5 295 c 128,-1,36
 230 343 230 343 230 425 c 0,37,38
 230 463 230 463 242 499 c 128,-1,39
 254 535 254 535 278 562.5 c 128,-1,40
 302 590 302 590 337 606.5 c 128,-1,41
 372 623 372 623 418 623 c 0,0,1
423 535 m 0,42,43
 381 535 381 535 355.5 508 c 128,-1,44
 330 481 330 481 330 432 c 0,45,46
 330 390 330 390 348.5 364.5 c 128,-1,47
 367 339 367 339 400 339 c 0,48,49
 420 339 420 339 438.5 347 c 128,-1,50
 457 355 457 355 471 368 c 128,-1,51
 485 381 485 381 494 398.5 c 128,-1,52
 503 416 503 416 503 434 c 0,53,54
 503 455 503 455 499.5 473 c 128,-1,55
 496 491 496 491 487 505 c 128,-1,56
 478 519 478 519 462.5 527 c 128,-1,57
 447 535 447 535 423 535 c 0,42,43
280 486 m 0,58,59
 282 496 282 496 284.5 503.5 c 128,-1,60
 287 511 287 511 287 517 c 0,61,62
 287 524 287 524 280 524 c 0,63,64
 277 524 277 524 271.5 511 c 128,-1,65
 266 498 266 498 261.5 480 c 128,-1,66
 257 462 257 462 254 444 c 128,-1,67
 251 426 251 426 253 415 c 0,68,69
 256 403 256 403 261 403 c 256,70,71
 266 403 266 403 268.5 410.5 c 128,-1,72
 271 418 271 418 273 426 c 0,73,74
 277 443 277 443 277 457 c 128,-1,75
 277 471 277 471 280 486 c 0,58,59
276 380 m 0,76,77
 276 385 276 385 274.5 388.5 c 128,-1,78
 273 392 273 392 270 392 c 0,79,80
 265 392 265 392 261 389 c 128,-1,81
 257 386 257 386 257 376 c 0,82,83
 257 373 257 373 259.5 370 c 128,-1,84
 262 367 262 367 266 367 c 0,85,86
 272 367 272 367 274 372.5 c 128,-1,87
 276 378 276 378 276 380 c 0,76,77
348 58 m 2,88,89
 348 61 348 61 343.5 60 c 128,-1,90
 339 59 339 59 334 55 c 128,-1,91
 329 51 329 51 325 44 c 128,-1,92
 321 37 321 37 321 28 c 0,93,94
 321 26 321 26 322.5 20 c 128,-1,95
 324 14 324 14 328 14 c 0,96,97
 331 14 331 14 334.5 20.5 c 128,-1,98
 338 27 338 27 341 35.5 c 128,-1,99
 344 44 344 44 346 51 c 128,-1,100
 348 58 348 58 348 58 c 2,88,89
EndSplineSet










EndChar

StartChar: colon
Encoding: 58 58 28
Width: 840
Flags: W
LayerCount: 2
Fore
SplineSet
358 54 m 0,0,1
 358 91 358 91 376 106 c 128,-1,2
 394 121 394 121 419 121 c 0,3,4
 445 121 445 121 463.5 106 c 128,-1,5
 482 91 482 91 482 54 c 0,6,7
 482 18 482 18 463.5 2 c 128,-1,8
 445 -14 445 -14 419 -14 c 0,9,10
 394 -14 394 -14 376 2 c 128,-1,11
 358 18 358 18 358 54 c 0,0,1
358 482 m 0,12,13
 358 520 358 520 376 535 c 128,-1,14
 394 550 394 550 419 550 c 0,15,16
 445 550 445 550 463.5 535 c 128,-1,17
 482 520 482 520 482 482 c 0,18,19
 482 446 482 446 463.5 430 c 128,-1,20
 445 414 445 414 419 414 c 0,21,22
 394 414 394 414 376 430 c 128,-1,23
 358 446 358 446 358 482 c 0,12,13
EndSplineSet
EndChar

StartChar: semicolon
Encoding: 59 59 29
Width: 840
Flags: W
LayerCount: 2
Fore
SplineSet
490.5 105 m 1,0,1
 481.5 70 481.5 70 467.5 29 c 128,-1,2
 453.5 -12 453.5 -12 437 -52.5 c 128,-1,3
 420.5 -93 420.5 -93 404.5 -129 c 1,4,-1
 338.5 -129 l 1,5,6
 345.5 -101 345.5 -101 353 -69 c 128,-1,7
 360.5 -37 360.5 -37 367.5 -4.5 c 128,-1,8
 374.5 28 374.5 28 380 59 c 128,-1,9
 385.5 90 385.5 90 389.5 116 c 1,10,-1
 483.5 116 l 1,11,-1
 490.5 105 l 1,0,1
377.5 482 m 0,12,13
 377.5 520 377.5 520 395.5 535 c 128,-1,14
 413.5 550 413.5 550 438.5 550 c 0,15,16
 464.5 550 464.5 550 483 535 c 128,-1,17
 501.5 520 501.5 520 501.5 482 c 0,18,19
 501.5 446 501.5 446 483 430 c 128,-1,20
 464.5 414 464.5 414 438.5 414 c 0,21,22
 413.5 414 413.5 414 395.5 430 c 128,-1,23
 377.5 446 377.5 446 377.5 482 c 0,12,13
EndSplineSet
EndChar

StartChar: less
Encoding: 60 60 30
Width: 840
Flags: W
LayerCount: 2
Fore
SplineSet
655.5 116 m 1,0,-1
 184.5 323 l 1,1,-1
 184.5 373 l 1,2,-1
 655.5 608 l 1,3,-1
 655.5 530 l 1,4,-1
 278.5 352 l 1,5,-1
 655.5 194 l 1,6,-1
 655.5 116 l 1,0,-1
EndSplineSet
EndChar

StartChar: equal
Encoding: 61 61 31
Width: 840
Flags: W
LayerCount: 2
Fore
SplineSet
191 416 m 1,0,-1
 191 487 l 1,1,-1
 649 487 l 1,2,-1
 649 416 l 1,3,-1
 191 416 l 1,0,-1
191 217 m 1,4,-1
 191 288 l 1,5,-1
 649 288 l 1,6,-1
 649 217 l 1,7,-1
 191 217 l 1,4,-1
EndSplineSet




EndChar

StartChar: greater
Encoding: 62 62 32
Width: 840
Flags: W
LayerCount: 2
Fore
SplineSet
184.5 194 m 1,0,-1
 561.5 351 l 1,1,-1
 184.5 530 l 1,2,-1
 184.5 608 l 1,3,-1
 655.5 373 l 1,4,-1
 655.5 323 l 1,5,-1
 184.5 116 l 1,6,-1
 184.5 194 l 1,0,-1
EndSplineSet
EndChar

StartChar: question
Encoding: 63 63 33
Width: 840
Flags: W
LayerCount: 2
Fore
SplineSet
350 199 m 6,0,1
 350 237 350 237 357.5 264.5 c 132,-1,2
 365 292 365 292 383.5 317 c 132,-1,3
 402 342 402 342 434 369 c 4,4,5
 473 402 473 402 494.5 424 c 132,-1,6
 516 446 516 446 525 467 c 132,-1,7
 534 488 534 488 534 518 c 4,8,9
 534 566 534 566 503 592 c 132,-1,10
 472 618 472 618 413 618 c 4,11,12
 364 618 364 618 326 605.5 c 132,-1,13
 288 593 288 593 253 576 c 5,14,-1
 222 646 l 5,15,16
 262 667 262 667 310.5 681 c 132,-1,17
 359 695 359 695 419 695 c 4,18,19
 514 695 514 695 566 648 c 132,-1,20
 618 601 618 601 618 520 c 4,21,22
 618 475 618 475 603.5 443.5 c 132,-1,23
 589 412 589 412 562.5 385.5 c 132,-1,24
 536 359 536 359 500 329 c 4,25,26
 467 301 467 301 449.5 280 c 132,-1,27
 432 259 432 259 426 238.5 c 132,-1,28
 420 218 420 218 420 189 c 6,29,-1
 420 172 l 5,30,-1
 350 172 l 5,31,-1
 350 199 l 6,0,1
327 25 m 4,32,33
 327 62 327 62 344.5 77 c 132,-1,34
 362 92 362 92 389 92 c 4,35,36
 414 92 414 92 432 77 c 132,-1,37
 450 62 450 62 450 25 c 4,38,39
 450 -11 450 -11 432 -27 c 132,-1,40
 414 -43 414 -43 389 -43 c 4,41,42
 362 -43 362 -43 344.5 -27 c 132,-1,43
 327 -11 327 -11 327 25 c 4,32,33
EndSplineSet



EndChar

StartChar: at
Encoding: 64 64 34
Width: 840
Flags: W
LayerCount: 2
Fore
SplineSet
402 1 m 0,0,1
 346 1 346 1 299 20 c 128,-1,2
 252 39 252 39 218.5 73.5 c 128,-1,3
 185 108 185 108 166.5 157.5 c 128,-1,4
 148 207 148 207 148 267 c 0,5,6
 148 335 148 335 169.5 393 c 128,-1,7
 191 451 191 451 229.5 494.5 c 128,-1,8
 268 538 268 538 320 562.5 c 128,-1,9
 372 587 372 587 433 587 c 256,10,11
 494 587 494 587 542 566.5 c 128,-1,12
 590 546 590 546 623.5 510 c 128,-1,13
 657 474 657 474 674.5 426.5 c 128,-1,14
 692 379 692 379 692 325 c 0,15,16
 692 286 692 286 681.5 252.5 c 128,-1,17
 671 219 671 219 653 193.5 c 128,-1,18
 635 168 635 168 611 153.5 c 128,-1,19
 587 139 587 139 560 139 c 0,20,21
 539 139 539 139 526 147 c 128,-1,22
 513 155 513 155 505.5 165 c 128,-1,23
 498 175 498 175 493.5 183 c 128,-1,24
 489 191 489 191 485 191 c 256,25,26
 481 191 481 191 472 182.5 c 128,-1,27
 463 174 463 174 450 164.5 c 128,-1,28
 437 155 437 155 420 146.5 c 128,-1,29
 403 138 403 138 382 138 c 256,30,31
 361 138 361 138 343 147.5 c 128,-1,32
 325 157 325 157 312 174 c 128,-1,33
 299 191 299 191 291.5 213.5 c 128,-1,34
 284 236 284 236 284 263 c 0,35,36
 284 297 284 297 295.5 328.5 c 128,-1,37
 307 360 307 360 325.5 384.5 c 128,-1,38
 344 409 344 409 368.5 423.5 c 128,-1,39
 393 438 393 438 419 438 c 0,40,41
 432 438 432 438 440 434.5 c 128,-1,42
 448 431 448 431 453 427 c 128,-1,43
 458 423 458 423 461 419.5 c 128,-1,44
 464 416 464 416 467 416 c 256,45,46
 470 416 470 416 473 420.5 c 128,-1,47
 476 425 476 425 480 430 c 128,-1,48
 484 435 484 435 490 439.5 c 128,-1,49
 496 444 496 444 506 444 c 0,50,51
 527 444 527 444 535 425 c 128,-1,52
 543 406 543 406 544.5 380.5 c 128,-1,53
 546 355 546 355 544 329.5 c 128,-1,54
 542 304 542 304 542 292 c 0,55,56
 542 279 542 279 545 265.5 c 128,-1,57
 548 252 548 252 553 240.5 c 128,-1,58
 558 229 558 229 564 222 c 128,-1,59
 570 215 570 215 577 215 c 0,60,61
 589 215 589 215 599 239 c 128,-1,62
 609 263 609 263 609 303 c 0,63,64
 609 351 609 351 600 389 c 128,-1,65
 591 427 591 427 571.5 453.5 c 128,-1,66
 552 480 552 480 520 494.5 c 128,-1,67
 488 509 488 509 442 509 c 256,68,69
 396 509 396 509 357.5 491.5 c 128,-1,70
 319 474 319 474 291 443 c 128,-1,71
 263 412 263 412 247.5 370 c 128,-1,72
 232 328 232 328 232 279 c 0,73,74
 232 235 232 235 245.5 198 c 128,-1,75
 259 161 259 161 283 134 c 128,-1,76
 307 107 307 107 339 92 c 128,-1,77
 371 77 371 77 408 77 c 0,78,79
 434 77 434 77 460.5 83.5 c 128,-1,80
 487 90 487 90 511 98 c 128,-1,81
 535 106 535 106 556.5 112.5 c 128,-1,82
 578 119 578 119 594 119 c 0,83,84
 622 119 622 119 622 98 c 0,85,86
 622 81 622 81 602.5 63.5 c 128,-1,87
 583 46 583 46 551.5 32 c 128,-1,88
 520 18 520 18 480.5 9.5 c 128,-1,89
 441 1 441 1 402 1 c 0,0,1
320 316 m 0,90,91
 324 316 324 316 328.5 326.5 c 128,-1,92
 333 337 333 337 335 339 c 0,93,94
 343 353 343 353 353.5 365 c 128,-1,95
 364 377 364 377 375 388 c 0,96,97
 380 393 380 393 374 393 c 0,98,99
 367 393 367 393 356.5 384.5 c 128,-1,100
 346 376 346 376 337 365 c 128,-1,101
 328 354 328 354 321.5 342 c 128,-1,102
 315 330 315 330 315 323 c 0,103,104
 315 321 315 321 316.5 318.5 c 128,-1,105
 318 316 318 316 320 316 c 0,90,91
406 220 m 0,106,107
 416 220 416 220 426.5 229 c 128,-1,108
 437 238 437 238 446 252 c 128,-1,109
 455 266 455 266 460.5 284 c 128,-1,110
 466 302 466 302 466 320 c 0,111,112
 466 362 466 362 434 362 c 0,113,114
 421 362 421 362 408 355 c 128,-1,115
 395 348 395 348 384.5 336 c 128,-1,116
 374 324 374 324 368 309 c 128,-1,117
 362 294 362 294 362 278 c 0,118,119
 362 253 362 253 372.5 236.5 c 128,-1,120
 383 220 383 220 406 220 c 0,106,107
318 291 m 0,121,122
 318 298 318 298 313 300 c 0,123,124
 310 301 310 301 306.5 297.5 c 128,-1,125
 303 294 303 294 303 291 c 0,126,127
 303 287 303 287 305.5 283.5 c 128,-1,128
 308 280 308 280 311 280 c 256,129,130
 314 280 314 280 316 284 c 128,-1,131
 318 288 318 288 318 291 c 0,121,122
EndSplineSet
EndChar

StartChar: A
Encoding: 65 65 35
Width: 840
GlyphClass: 2
Flags: W
LayerCount: 2
Fore
SplineSet
375.5 -8 m 0,0,1
 308.5 -8 308.5 -8 271 71 c 128,-1,2
 233.5 150 233.5 150 233.5 291 c 0,3,4
 233.5 444 233.5 444 277.5 530 c 128,-1,5
 321.5 616 321.5 616 401.5 621 c 0,6,7
 430.5 623 430.5 623 449 614.5 c 128,-1,8
 467.5 606 467.5 606 479.5 595 c 128,-1,9
 491.5 584 491.5 584 497.5 575 c 128,-1,10
 503.5 566 503.5 566 506.5 566 c 256,11,12
 509.5 566 509.5 566 510.5 575 c 128,-1,13
 511.5 584 511.5 584 515.5 595 c 128,-1,14
 519.5 606 519.5 606 528 615 c 128,-1,15
 536.5 624 536.5 624 555.5 624 c 256,16,17
 574.5 624 574.5 624 587.5 615 c 128,-1,18
 600.5 606 600.5 606 600.5 592 c 2,19,-1
 600.5 204 l 2,20,21
 600.5 163 600.5 163 603.5 126.5 c 128,-1,22
 606.5 90 606.5 90 606.5 71 c 0,23,24
 606.5 36 606.5 36 593 14 c 128,-1,25
 579.5 -8 579.5 -8 558.5 -8 c 0,26,27
 534.5 -8 534.5 -8 519.5 19 c 128,-1,28
 504.5 46 504.5 46 504.5 88 c 0,29,30
 504.5 114 504.5 114 499.5 114 c 0,31,32
 495.5 114 495.5 114 488.5 95 c 128,-1,33
 481.5 76 481.5 76 468 53 c 128,-1,34
 454.5 30 454.5 30 432.5 11 c 128,-1,35
 410.5 -8 410.5 -8 375.5 -8 c 0,0,1
529.5 557 m 0,36,37
 533.5 557 533.5 557 535 563.5 c 128,-1,38
 536.5 570 536.5 570 538.5 577 c 0,39,40
 541.5 587 541.5 587 544.5 594 c 128,-1,41
 547.5 601 547.5 601 547.5 606 c 256,42,43
 547.5 611 547.5 611 543.5 611 c 0,44,45
 538.5 611 538.5 611 530.5 601 c 128,-1,46
 522.5 591 522.5 591 522.5 575 c 0,47,48
 522.5 567 522.5 567 524.5 562 c 128,-1,49
 526.5 557 526.5 557 529.5 557 c 0,36,37
399.5 90 m 0,50,51
 413.5 90 413.5 90 429.5 117 c 128,-1,52
 445.5 144 445.5 144 459 185.5 c 128,-1,53
 472.5 227 472.5 227 481.5 275.5 c 128,-1,54
 490.5 324 490.5 324 490.5 366 c 0,55,56
 490.5 399 490.5 399 485 428.5 c 128,-1,57
 479.5 458 479.5 458 469.5 480.5 c 128,-1,58
 459.5 503 459.5 503 447 516 c 128,-1,59
 434.5 529 434.5 529 420.5 529 c 0,60,61
 404.5 529 404.5 529 389.5 511.5 c 128,-1,62
 374.5 494 374.5 494 364 463.5 c 128,-1,63
 353.5 433 353.5 433 347 392.5 c 128,-1,64
 340.5 352 340.5 352 340.5 306 c 0,65,66
 340.5 265 340.5 265 345.5 226 c 128,-1,67
 350.5 187 350.5 187 359 157 c 128,-1,68
 367.5 127 367.5 127 378 108.5 c 128,-1,69
 388.5 90 388.5 90 399.5 90 c 0,50,51
327.5 33 m 0,70,71
 331.5 33 331.5 33 334 36.5 c 128,-1,72
 336.5 40 336.5 40 335.5 43 c 256,73,74
 334.5 46 334.5 46 330 51.5 c 128,-1,75
 325.5 57 325.5 57 319.5 64.5 c 128,-1,76
 313.5 72 313.5 72 308 80.5 c 128,-1,77
 302.5 89 302.5 89 300.5 97 c 0,78,79
 299.5 101 299.5 101 298 107.5 c 128,-1,80
 296.5 114 296.5 114 294.5 120.5 c 128,-1,81
 292.5 127 292.5 127 290.5 131.5 c 128,-1,82
 288.5 136 288.5 136 285.5 136 c 0,83,84
 280.5 136 280.5 136 280.5 122.5 c 128,-1,85
 280.5 109 280.5 109 287.5 89 c 0,86,87
 295.5 69 295.5 69 307.5 51 c 128,-1,88
 319.5 33 319.5 33 327.5 33 c 0,70,71
556.5 22 m 256,89,90
 556.5 25 556.5 25 553 29 c 128,-1,91
 549.5 33 549.5 33 545 38 c 128,-1,92
 540.5 43 540.5 43 537 49.5 c 128,-1,93
 533.5 56 533.5 56 533.5 63 c 0,94,95
 533.5 66 533.5 66 532.5 69 c 0,96,97
 530.5 74 530.5 74 526.5 74 c 0,98,99
 519.5 74 519.5 74 519.5 62 c 0,100,101
 519.5 46 519.5 46 528.5 29.5 c 128,-1,102
 537.5 13 537.5 13 546.5 13 c 0,103,104
 550.5 13 550.5 13 553.5 16 c 128,-1,105
 556.5 19 556.5 19 556.5 22 c 256,89,90
352.5 17 m 256,106,107
 355.5 17 355.5 17 359 21 c 128,-1,108
 362.5 25 362.5 25 364 29.5 c 128,-1,109
 365.5 34 365.5 34 364 38 c 128,-1,110
 362.5 42 362.5 42 356.5 42 c 0,111,112
 344.5 42 344.5 42 344.5 30 c 0,113,114
 344.5 25 344.5 25 347 21 c 128,-1,115
 349.5 17 349.5 17 352.5 17 c 256,106,107
EndSplineSet




EndChar

StartChar: B
Encoding: 66 66 36
Width: 840
GlyphClass: 2
Flags: W
LayerCount: 2
Fore
SplineSet
485 546 m 0,0,1
 445 546 445 546 416.5 574 c 128,-1,2
 388 602 388 602 388 646 c 0,3,4
 388 670 388 670 396.5 691.5 c 128,-1,5
 405 713 405 713 420 728.5 c 128,-1,6
 435 744 435 744 456 753.5 c 128,-1,7
 477 763 477 763 502 763 c 0,8,9
 522 763 522 763 539 754.5 c 128,-1,10
 556 746 556 746 568 731 c 128,-1,11
 580 716 580 716 586.5 697 c 128,-1,12
 593 678 593 678 593 657 c 0,13,14
 593 630 593 630 584.5 609.5 c 128,-1,15
 576 589 576 589 561 575 c 128,-1,16
 546 561 546 561 526.5 553.5 c 128,-1,17
 507 546 507 546 485 546 c 0,0,1
448 719 m 0,18,19
 455 726 455 726 456.5 731 c 128,-1,20
 458 736 458 736 456 736 c 0,21,22
 448 736 448 736 439 728.5 c 128,-1,23
 430 721 430 721 422.5 710.5 c 128,-1,24
 415 700 415 700 410 688 c 128,-1,25
 405 676 405 676 405 666 c 0,26,27
 405 664 405 664 406.5 658 c 128,-1,28
 408 652 408 652 411 652 c 0,29,30
 415 652 415 652 421 674 c 0,31,32
 424 688 424 688 432 699.5 c 128,-1,33
 440 711 440 711 448 719 c 0,18,19
489 603 m 0,34,35
 501 603 501 603 517.5 617 c 128,-1,36
 534 631 534 631 534 657 c 0,37,38
 534 677 534 677 523.5 690.5 c 128,-1,39
 513 704 513 704 496 704 c 256,40,41
 479 704 479 704 465 690.5 c 128,-1,42
 451 677 451 677 451 653 c 256,43,44
 451 629 451 629 462 616 c 128,-1,45
 473 603 473 603 489 603 c 0,34,35
292 655 m 0,46,47
 272 655 272 655 255 640 c 128,-1,48
 238 625 238 625 238 586 c 2,49,-1
 238 91 l 2,50,51
 238 70 238 70 246.5 53 c 128,-1,52
 255 36 255 36 269.5 24.5 c 128,-1,53
 284 13 284 13 302.5 7 c 128,-1,54
 321 1 321 1 341 1 c 2,55,-1
 400 1 l 2,56,57
 431 1 431 1 466.5 13 c 128,-1,58
 502 25 502 25 532 51 c 128,-1,59
 562 77 562 77 582 119 c 128,-1,60
 602 161 602 161 602 220 c 256,61,62
 602 279 602 279 582.5 325.5 c 128,-1,63
 563 372 563 372 534 403.5 c 128,-1,64
 505 435 505 435 471 451.5 c 128,-1,65
 437 468 437 468 407 468 c 2,66,-1
 378 468 l 2,67,68
 369 468 369 468 360.5 472 c 128,-1,69
 352 476 352 476 352 485 c 2,70,-1
 352 590 l 2,71,72
 352 608 352 608 346.5 620 c 128,-1,73
 341 632 341 632 332 640 c 128,-1,74
 323 648 323 648 312.5 651.5 c 128,-1,75
 302 655 302 655 292 655 c 0,46,47
396 379 m 2,76,77
 413 379 413 379 429 371 c 128,-1,78
 445 363 445 363 458.5 345.5 c 128,-1,79
 472 328 472 328 480 300 c 128,-1,80
 488 272 488 272 488 232 c 0,81,82
 488 189 488 189 480 160.5 c 128,-1,83
 472 132 472 132 459 115.5 c 128,-1,84
 446 99 446 99 430 92 c 128,-1,85
 414 85 414 85 399 85 c 2,86,-1
 377 85 l 2,87,88
 352 85 352 85 352 119 c 2,89,-1
 352 356 l 2,90,91
 352 379 352 379 383 379 c 2,92,-1
 396 379 l 2,76,77
278 620 m 256,93,94
 273 615 273 615 269.5 602 c 128,-1,95
 266 589 266 589 266 550.5 c 128,-1,96
 266 512 266 512 259 512 c 0,97,98
 254 512 254 512 252.5 520.5 c 128,-1,99
 251 529 251 529 251 541 c 0,100,101
 251 603 251 603 258 619 c 128,-1,102
 265 635 265 635 275 635 c 0,103,104
 277 635 277 635 280 633 c 128,-1,105
 283 631 283 631 283 629 c 0,106,107
 283 625 283 625 278 620 c 256,93,94
EndSplineSet



EndChar

StartChar: C
Encoding: 67 67 37
Width: 840
GlyphClass: 2
Flags: W
LayerCount: 2
Fore
SplineSet
466 584 m 0
 426 584 426 584 397.5 612 c 0
 369 640 369 640 369 684 c 0
 369 708 369 708 377.5 729.5 c 0
 386 751 386 751 401 766.5 c 0
 416 782 416 782 437 791.5 c 0
 458 801 458 801 483 801 c 0
 503 801 503 801 520 792.5 c 0
 537 784 537 784 549 769 c 0
 561 754 561 754 567.5 735 c 0
 574 716 574 716 574 695 c 0
 574 668 574 668 565.5 647.5 c 0
 557 627 557 627 542 613 c 0
 527 599 527 599 507.5 591.5 c 0
 488 584 488 584 466 584 c 0
429 757 m 0
 436 764 436 764 437.5 769 c 0
 439 774 439 774 437 774 c 0
 429 774 429 774 420 766.5 c 0
 411 759 411 759 403.5 748.5 c 0
 396 738 396 738 391 726 c 0
 386 714 386 714 386 704 c 0
 386 702 386 702 387.5 696 c 0
 389 690 389 690 392 690 c 0
 396 690 396 690 402 712 c 0
 405 726 405 726 413 737.5 c 0
 421 749 421 749 429 757 c 0
470 641 m 0
 482 641 482 641 498.5 655 c 0
 515 669 515 669 515 695 c 0
 515 715 515 715 504.5 728.5 c 0
 494 742 494 742 477 742 c 256
 460 742 460 742 446 728.5 c 0
 432 715 432 715 432 691 c 256
 432 667 432 667 443 654 c 0
 454 641 454 641 470 641 c 0
EndSplineSet
Refer: 69 99 N 1 0 0 1 0 -15 2


EndChar

StartChar: D
Encoding: 68 68 38
Width: 840
GlyphClass: 2
Flags: W
LayerCount: 2
Fore
SplineSet
320.5 0 m 2,0,1
 302.5 0 302.5 0 286 4 c 128,-1,2
 269.5 8 269.5 8 257 18 c 128,-1,3
 244.5 28 244.5 28 237 45 c 128,-1,4
 229.5 62 229.5 62 229.5 88 c 2,5,-1
 229.5 516 l 2,6,7
 229.5 543 229.5 543 239 562.5 c 128,-1,8
 248.5 582 248.5 582 264 594.5 c 128,-1,9
 279.5 607 279.5 607 300.5 612.5 c 128,-1,10
 321.5 618 321.5 618 344.5 618 c 2,11,-1
 389.5 618 l 2,12,13
 432.5 618 432.5 618 472.5 598.5 c 128,-1,14
 512.5 579 512.5 579 543 541.5 c 128,-1,15
 573.5 504 573.5 504 592 449.5 c 128,-1,16
 610.5 395 610.5 395 610.5 326 c 0,17,18
 610.5 253 610.5 253 591.5 192.5 c 128,-1,19
 572.5 132 572.5 132 540.5 89.5 c 128,-1,20
 508.5 47 508.5 47 465.5 23.5 c 128,-1,21
 422.5 0 422.5 0 375.5 0 c 2,22,-1
 320.5 0 l 2,0,1
370.5 96 m 2,23,24
 396.5 96 396.5 96 419.5 112.5 c 128,-1,25
 442.5 129 442.5 129 459 159.5 c 128,-1,26
 475.5 190 475.5 190 485 233 c 128,-1,27
 494.5 276 494.5 276 494.5 329 c 0,28,29
 494.5 424 494.5 424 464.5 472 c 128,-1,30
 434.5 520 434.5 520 386.5 520 c 2,31,-1
 371.5 520 l 2,32,33
 354.5 520 354.5 520 349 512.5 c 128,-1,34
 343.5 505 343.5 505 343.5 480 c 2,35,-1
 343.5 132 l 2,36,37
 343.5 112 343.5 112 347 104 c 128,-1,38
 350.5 96 350.5 96 357.5 96 c 2,39,-1
 370.5 96 l 2,23,24
260.5 83 m 0,40,41
 264.5 83 264.5 83 266 93.5 c 128,-1,42
 267.5 104 267.5 104 267.5 117.5 c 128,-1,43
 267.5 131 267.5 131 267 143.5 c 128,-1,44
 266.5 156 266.5 156 266.5 161 c 0,45,46
 266.5 216 266.5 216 260.5 216 c 0,47,48
 257.5 216 257.5 216 254.5 203.5 c 128,-1,49
 251.5 191 251.5 191 251.5 161 c 0,50,51
 251.5 116 251.5 116 252 99.5 c 128,-1,52
 252.5 83 252.5 83 260.5 83 c 0,40,41
259.5 69 m 0,53,54
 252.5 69 252.5 69 252.5 58 c 0,55,56
 252.5 40 252.5 40 260.5 40 c 0,57,58
 263.5 40 263.5 40 265.5 46 c 128,-1,59
 267.5 52 267.5 52 267.5 58 c 0,60,61
 267.5 69 267.5 69 259.5 69 c 0,53,54
EndSplineSet



EndChar

StartChar: E
Encoding: 69 69 39
Width: 840
GlyphClass: 2
Flags: W
AnchorPoint: "Anchor-7" 420 268 basechar 0
AnchorPoint: "Anchor-5" 416 0 basechar 0
AnchorPoint: "Anchor-4" 442 536 basechar 0
LayerCount: 2
Fore
SplineSet
305 333.5 m 0,0,1
 293 349.5 293 349.5 284 365 c 128,-1,2
 275 380.5 275 380.5 273 395.5 c 0,3,4
 270 409.5 270 409.5 264 408.5 c 0,5,6
 256 408.5 256 408.5 259 390.5 c 0,7,8
 260 381.5 260 381.5 264.5 368.5 c 128,-1,9
 269 355.5 269 355.5 275 344.5 c 128,-1,10
 281 333.5 281 333.5 289 326 c 128,-1,11
 297 318.5 297 318.5 306 319.5 c 0,12,13
 314 321.5 314 321.5 305 333.5 c 0,0,1
291 60 m 0,14,15
 279 76 279 76 270 91.5 c 128,-1,16
 261 107 261 107 259 122 c 0,17,18
 256 136 256 136 250 135 c 0,19,20
 242 135 242 135 245 117 c 0,21,22
 246 108 246 108 250.5 95 c 128,-1,23
 255 82 255 82 261 71 c 128,-1,24
 267 60 267 60 275 52.5 c 128,-1,25
 283 45 283 45 292 46 c 0,26,27
 300 48 300 48 291 60 c 0,14,15
529 315 m 1,28,-1
 529 243 l 1,29,-1
 456 243 l 2,30,31
 405 243 405 243 371.5 232.5 c 128,-1,32
 338 222 338 222 321.5 202 c 128,-1,33
 305 182 305 182 305 151 c 0,34,35
 305 118 305 118 324 98.5 c 128,-1,36
 343 79 343 79 375 70.5 c 128,-1,37
 407 62 407 62 447 62 c 0,38,39
 503 62 503 62 545.5 75 c 128,-1,40
 588 88 588 88 621 104 c 1,41,-1
 621 27 l 1,42,43
 590 11 590 11 547 0.5 c 128,-1,44
 504 -10 504 -10 442 -10 c 0,45,46
 327 -10 327 -10 272 34.5 c 128,-1,47
 217 79 217 79 217 146 c 0,48,49
 217 186 217 186 233.5 211.5 c 128,-1,50
 250 237 250 237 277 252.5 c 128,-1,51
 304 268 304 268 336 277 c 1,52,-1
 336 282 l 1,53,54
 291 296 291 296 263.5 325.5 c 128,-1,55
 236 355 236 355 236 404 c 0,56,57
 236 449 236 449 262.5 481 c 128,-1,58
 289 513 289 513 335.5 529.5 c 128,-1,59
 382 546 382 546 442 546 c 0,60,61
 500 546 500 546 541.5 536 c 128,-1,62
 583 526 583 526 623 508 c 1,63,-1
 590 438 l 1,64,65
 557 453 557 453 522.5 463 c 128,-1,66
 488 473 488 473 441 473 c 0,67,68
 381 473 381 473 350.5 454 c 128,-1,69
 320 435 320 435 320 397 c 0,70,71
 320 353 320 353 361.5 334 c 128,-1,72
 403 315 403 315 473 315 c 2,73,-1
 529 315 l 1,28,-1
EndSplineSet



EndChar

StartChar: F
Encoding: 70 70 40
Width: 840
GlyphClass: 2
Flags: W
LayerCount: 2
Fore
SplineSet
331.5 0 m 0,0,1
 304.5 0 304.5 0 287 9.5 c 128,-1,2
 269.5 19 269.5 19 269.5 49 c 2,3,-1
 269.5 543 l 2,4,5
 269.5 582 269.5 582 298 599.5 c 128,-1,6
 326.5 617 326.5 617 371.5 617 c 2,7,-1
 541.5 616 l 2,8,9
 552.5 616 552.5 616 561.5 604.5 c 128,-1,10
 570.5 593 570.5 593 570.5 579 c 0,11,12
 570.5 572 570.5 572 569 561.5 c 128,-1,13
 567.5 551 567.5 551 564.5 541.5 c 128,-1,14
 561.5 532 561.5 532 557 525.5 c 128,-1,15
 552.5 519 552.5 519 546.5 519 c 2,16,-1
 409.5 520 l 2,17,18
 383.5 520 383.5 520 383.5 494 c 2,19,-1
 383.5 345 l 2,20,21
 383.5 335 383.5 335 390 330.5 c 128,-1,22
 396.5 326 396.5 326 406.5 326 c 2,23,-1
 512.5 329 l 2,24,25
 520.5 329 520.5 329 526.5 324 c 128,-1,26
 532.5 319 532.5 319 537.5 310.5 c 128,-1,27
 542.5 302 542.5 302 545 293 c 128,-1,28
 547.5 284 547.5 284 547.5 276 c 0,29,30
 547.5 237 547.5 237 509.5 236 c 2,31,-1
 403.5 233 l 2,32,33
 395.5 233 395.5 233 389.5 227 c 128,-1,34
 383.5 221 383.5 221 383.5 213 c 2,35,-1
 383.5 48 l 2,36,37
 383.5 32 383.5 32 379 22.5 c 128,-1,38
 374.5 13 374.5 13 367 8 c 128,-1,39
 359.5 3 359.5 3 350 1.5 c 128,-1,40
 340.5 0 340.5 0 331.5 0 c 0,0,1
319.5 26 m 0,41,42
 318.5 31 318.5 31 310 42 c 128,-1,43
 301.5 53 301.5 53 299.5 78 c 0,44,45
 297.5 91 297.5 91 294 94 c 128,-1,46
 290.5 97 290.5 97 288.5 97 c 256,47,48
 286.5 97 286.5 97 285 91 c 128,-1,49
 283.5 85 283.5 85 285.5 75 c 0,50,51
 285.5 70 285.5 70 287.5 60.5 c 128,-1,52
 289.5 51 289.5 51 293 41.5 c 128,-1,53
 296.5 32 296.5 32 301.5 25 c 128,-1,54
 306.5 18 306.5 18 313.5 19 c 0,55,56
 319.5 19 319.5 19 319.5 26 c 0,41,42
EndSplineSet



EndChar

StartChar: G
Encoding: 71 71 41
Width: 840
GlyphClass: 2
Flags: W
LayerCount: 2
Fore
SplineSet
450 621 m 0,0,1
 410 621 410 621 381.5 649 c 128,-1,2
 353 677 353 677 353 721 c 0,3,4
 353 745 353 745 361.5 766.5 c 128,-1,5
 370 788 370 788 385 803.5 c 128,-1,6
 400 819 400 819 421 828.5 c 128,-1,7
 442 838 442 838 467 838 c 0,8,9
 487 838 487 838 504 829.5 c 128,-1,10
 521 821 521 821 533 806 c 128,-1,11
 545 791 545 791 551.5 772 c 128,-1,12
 558 753 558 753 558 732 c 0,13,14
 558 705 558 705 549.5 684.5 c 128,-1,15
 541 664 541 664 526 650 c 128,-1,16
 511 636 511 636 491.5 628.5 c 128,-1,17
 472 621 472 621 450 621 c 0,0,1
413 794 m 0,18,19
 420 801 420 801 421.5 806 c 128,-1,20
 423 811 423 811 421 811 c 0,21,22
 413 811 413 811 404 803.5 c 128,-1,23
 395 796 395 796 387.5 785.5 c 128,-1,24
 380 775 380 775 375 763 c 128,-1,25
 370 751 370 751 370 741 c 0,26,27
 370 739 370 739 371.5 733 c 128,-1,28
 373 727 373 727 376 727 c 0,29,30
 380 727 380 727 386 749 c 0,31,32
 389 763 389 763 397 774.5 c 128,-1,33
 405 786 405 786 413 794 c 0,18,19
454 678 m 0,34,35
 466 678 466 678 482.5 692 c 128,-1,36
 499 706 499 706 499 732 c 0,37,38
 499 752 499 752 488.5 765.5 c 128,-1,39
 478 779 478 779 461 779 c 256,40,41
 444 779 444 779 430 765.5 c 128,-1,42
 416 752 416 752 416 728 c 256,43,44
 416 704 416 704 427 691 c 128,-1,45
 438 678 438 678 454 678 c 0,34,35
419 -37 m 0,46,47
 356 -37 356 -37 315.5 -4 c 128,-1,48
 275 29 275 29 252 79 c 128,-1,49
 229 129 229 129 220.5 187 c 128,-1,50
 212 245 212 245 212 296 c 0,51,52
 212 352 212 352 225.5 405.5 c 128,-1,53
 239 459 239 459 267.5 500.5 c 128,-1,54
 296 542 296 542 341.5 567.5 c 128,-1,55
 387 593 387 593 451 593 c 0,56,57
 478 593 478 593 507.5 587 c 128,-1,58
 537 581 537 581 561.5 564.5 c 128,-1,59
 586 548 586 548 602.5 520 c 128,-1,60
 619 492 619 492 619 448 c 0,61,62
 619 432 619 432 612.5 422.5 c 128,-1,63
 606 413 606 413 596.5 407.5 c 128,-1,64
 587 402 587 402 577 400.5 c 128,-1,65
 567 399 567 399 561 399 c 0,66,67
 547 399 547 399 534.5 409 c 128,-1,68
 522 419 522 419 522 448 c 0,69,70
 522 471 522 471 514 483 c 128,-1,71
 506 495 506 495 495 500.5 c 128,-1,72
 484 506 484 506 473.5 507 c 128,-1,73
 463 508 463 508 457 508 c 0,74,75
 431 508 431 508 408 492.5 c 128,-1,76
 385 477 385 477 367.5 448 c 128,-1,77
 350 419 350 419 340 377 c 128,-1,78
 330 335 330 335 330 282 c 0,79,80
 330 253 330 253 333.5 213 c 128,-1,81
 337 173 337 173 349 137 c 128,-1,82
 361 101 361 101 383 75.5 c 128,-1,83
 405 50 405 50 441 50 c 0,84,85
 464 50 464 50 481 65 c 128,-1,86
 498 80 498 80 509.5 102 c 128,-1,87
 521 124 521 124 527 148.5 c 128,-1,88
 533 173 533 173 532 192 c 0,89,90
 531 208 531 208 512.5 209.5 c 128,-1,91
 494 211 494 211 471 211 c 2,92,-1
 409 211 l 2,93,94
 403 211 403 211 398 217 c 128,-1,95
 393 223 393 223 390 231.5 c 128,-1,96
 387 240 387 240 385 249 c 128,-1,97
 383 258 383 258 383 264 c 0,98,99
 383 280 383 280 393.5 292.5 c 128,-1,100
 404 305 404 305 427 305 c 2,101,-1
 552 304 l 2,102,103
 565 304 565 304 578.5 298.5 c 128,-1,104
 592 293 592 293 602.5 282.5 c 128,-1,105
 613 272 613 272 620 255.5 c 128,-1,106
 627 239 627 239 627 216 c 0,107,108
 627 181 627 181 627.5 151 c 128,-1,109
 628 121 628 121 628 77 c 0,110,111
 628 43 628 43 625.5 22 c 128,-1,112
 623 1 623 1 617 -11 c 128,-1,113
 611 -23 611 -23 602.5 -27.5 c 128,-1,114
 594 -32 594 -32 582 -32 c 0,115,116
 565 -32 565 -32 557 -19.5 c 128,-1,117
 549 -7 549 -7 545.5 8 c 128,-1,118
 542 23 542 23 541 35.5 c 128,-1,119
 540 48 540 48 537 48 c 256,120,121
 534 48 534 48 528 34.5 c 128,-1,122
 522 21 522 21 509 5.5 c 128,-1,123
 496 -10 496 -10 475 -23.5 c 128,-1,124
 454 -37 454 -37 419 -37 c 0,46,47
324 44 m 0,125,126
 324 49 324 49 308 72 c 0,127,128
 301 83 301 83 294 97.5 c 128,-1,129
 287 112 287 112 282 126 c 128,-1,130
 277 140 277 140 274 152 c 128,-1,131
 271 164 271 164 272 168 c 0,132,133
 273 173 273 173 270 175.5 c 128,-1,134
 267 178 267 178 266 178 c 0,135,136
 258 178 258 178 256 167 c 256,137,138
 254 156 254 156 259.5 135 c 128,-1,139
 265 114 265 114 274.5 93 c 128,-1,140
 284 72 284 72 295.5 56 c 128,-1,141
 307 40 307 40 316 39 c 0,142,143
 323 37 323 37 324 44 c 0,125,126
587 -7 m 0,144,145
 587 1 587 1 579 6.5 c 128,-1,146
 571 12 571 12 570 24 c 0,147,148
 570 27 570 27 569.5 35 c 128,-1,149
 569 43 569 43 564 43 c 256,150,151
 559 43 559 43 558 36.5 c 128,-1,152
 557 30 557 30 557 25 c 256,153,154
 557 20 557 20 558.5 12.5 c 128,-1,155
 560 5 560 5 563 -1.5 c 128,-1,156
 566 -8 566 -8 570 -13 c 128,-1,157
 574 -18 574 -18 579 -18 c 256,158,159
 584 -18 584 -18 585.5 -14 c 128,-1,160
 587 -10 587 -10 587 -7 c 0,144,145
344 27 m 0,161,162
 345 30 345 30 342.5 32.5 c 128,-1,163
 340 35 340 35 338 35 c 0,164,165
 334 36 334 36 332.5 33 c 128,-1,166
 331 30 331 30 330 28 c 0,167,168
 329 23 329 23 331.5 21.5 c 128,-1,169
 334 20 334 20 336 20 c 0,170,171
 342 20 342 20 344 27 c 0,161,162
EndSplineSet


EndChar

StartChar: H
Encoding: 72 72 42
Width: 840
GlyphClass: 2
Flags: W
LayerCount: 2
Fore
SplineSet
539 0 m 256,0,1
 522 0 522 0 512 9.5 c 128,-1,2
 502 19 502 19 497 33 c 128,-1,3
 492 47 492 47 490.5 63 c 128,-1,4
 489 79 489 79 489 92 c 2,5,-1
 489 238 l 2,6,7
 489 242 489 242 489 247 c 128,-1,8
 489 252 489 252 488 256.5 c 128,-1,9
 487 261 487 261 484 263.5 c 128,-1,10
 481 266 481 266 476 264 c 2,11,-1
 369 233 l 2,12,13
 360 231 360 231 355.5 229 c 128,-1,14
 351 227 351 227 351 217 c 2,15,-1
 351 105 l 2,16,17
 351 93 351 93 349 75 c 128,-1,18
 347 57 347 57 341.5 40.5 c 128,-1,19
 336 24 336 24 326 12 c 128,-1,20
 316 0 316 0 299 0 c 0,21,22
 278 0 278 0 266 10.5 c 128,-1,23
 254 21 254 21 248 37 c 128,-1,24
 242 53 242 53 240.5 71 c 128,-1,25
 239 89 239 89 239 105 c 2,26,-1
 239 542 l 2,27,28
 239 567 239 567 253.5 589.5 c 128,-1,29
 268 612 268 612 296 612 c 0,30,31
 310 612 310 612 320.5 605.5 c 128,-1,32
 331 599 331 599 338 588.5 c 128,-1,33
 345 578 345 578 348 565 c 128,-1,34
 351 552 351 552 351 540 c 2,35,-1
 351 339 l 2,36,37
 351 332 351 332 353 324.5 c 128,-1,38
 355 317 355 317 364 319 c 2,39,-1
 478 349 l 2,40,41
 487 351 487 351 488 356 c 128,-1,42
 489 361 489 361 489 368 c 2,43,-1
 489 540 l 2,44,45
 489 551 489 551 490.5 564 c 128,-1,46
 492 577 492 577 497 588.5 c 128,-1,47
 502 600 502 600 511 608 c 128,-1,48
 520 616 520 616 534 616 c 0,49,50
 567 616 567 616 584 591.5 c 128,-1,51
 601 567 601 567 601 537 c 2,52,-1
 601 91 l 2,53,54
 601 78 601 78 597.5 62 c 128,-1,55
 594 46 594 46 586.5 32 c 128,-1,56
 579 18 579 18 567.5 9 c 128,-1,57
 556 0 556 0 539 0 c 256,0,1
510 552 m 256,58,59
 513 552 513 552 517.5 558 c 128,-1,60
 522 564 522 564 526 571.5 c 128,-1,61
 530 579 530 579 532.5 586.5 c 128,-1,62
 535 594 535 594 535 597 c 256,63,64
 535 600 535 600 531 600 c 0,65,66
 519 600 519 600 512 586 c 128,-1,67
 505 572 505 572 505 562 c 0,68,69
 505 560 505 560 506 556 c 128,-1,70
 507 552 507 552 510 552 c 256,58,59
281 30 m 1,71,72
 280 36 280 36 278 40.5 c 128,-1,73
 276 45 276 45 273.5 50.5 c 128,-1,74
 271 56 271 56 269.5 64.5 c 128,-1,75
 268 73 268 73 268 86 c 0,76,77
 268 90 268 90 267 96.5 c 128,-1,78
 266 103 266 103 261 103 c 0,79,80
 257 103 257 103 256 96 c 128,-1,81
 255 89 255 89 255 86 c 0,82,83
 255 82 255 82 256 72 c 128,-1,84
 257 62 257 62 259 52 c 128,-1,85
 261 42 261 42 265 34.5 c 128,-1,86
 269 27 269 27 275 27 c 2,87,-1
 281 30 l 1,71,72
530 20 m 0,88,89
 530 22 530 22 529 23 c 128,-1,90
 528 24 528 24 527 26 c 0,91,92
 520 35 520 35 516 50.5 c 128,-1,93
 512 66 512 66 512 77 c 1,94,-1
 510 81 l 1,95,96
 505 81 505 81 504 71 c 128,-1,97
 503 61 503 61 503 58 c 0,98,99
 503 47 503 47 507.5 32 c 128,-1,100
 512 17 512 17 527 17 c 0,101,102
 530 17 530 17 530 20 c 0,88,89
EndSplineSet


EndChar

StartChar: I
Encoding: 73 73 43
Width: 840
GlyphClass: 2
Flags: W
LayerCount: 2
Fore
SplineSet
287 484 m 1,0,-1
 397 792 l 1,1,-1
 447 792 l 1,2,-1
 553 484 l 1,3,-1
 475 484 l 1,4,-1
 423 699 l 1,5,-1
 365 484 l 1,6,-1
 287 484 l 1,0,-1
415 -4 m 256,7,8
 391 -4 391 -4 378 6.5 c 128,-1,9
 365 17 365 17 365 32 c 2,10,-1
 365 387 l 2,11,12
 365 396 365 396 367.5 408 c 128,-1,13
 370 420 370 420 375.5 430 c 128,-1,14
 381 440 381 440 390.5 447 c 128,-1,15
 400 454 400 454 415 454 c 256,16,17
 430 454 430 454 440.5 448 c 128,-1,18
 451 442 451 442 457.5 433 c 128,-1,19
 464 424 464 424 467.5 413 c 128,-1,20
 471 402 471 402 471 392 c 2,21,-1
 471 32 l 2,22,23
 471 16 471 16 455 6 c 128,-1,24
 439 -4 439 -4 415 -4 c 256,7,8
383 359 m 0,25,26
 386 359 386 359 387 365 c 128,-1,27
 388 371 388 371 388 379.5 c 128,-1,28
 388 388 388 388 388.5 397.5 c 128,-1,29
 389 407 389 407 391 413 c 0,30,31
 392 417 392 417 394 424 c 128,-1,32
 396 431 396 431 393 431 c 0,33,34
 388 431 388 431 384.5 425.5 c 128,-1,35
 381 420 381 420 378.5 412.5 c 128,-1,36
 376 405 376 405 375 396.5 c 128,-1,37
 374 388 374 388 374 383 c 0,38,39
 374 376 374 376 376 367.5 c 128,-1,40
 378 359 378 359 383 359 c 0,25,26
EndSplineSet



EndChar

StartChar: J
Encoding: 74 74 44
Width: 840
GlyphClass: 2
Flags: W
LayerCount: 2
Fore
SplineSet
423 -8 m 0,0,1
 378 -8 378 -8 346 4.5 c 128,-1,2
 314 17 314 17 294 38.5 c 128,-1,3
 274 60 274 60 265 88.5 c 128,-1,4
 256 117 256 117 256 149 c 0,5,6
 256 203 256 203 269 221.5 c 128,-1,7
 282 240 282 240 298 240 c 0,8,9
 306 240 306 240 315 238 c 128,-1,10
 324 236 324 236 332 230.5 c 128,-1,11
 340 225 340 225 345 215 c 128,-1,12
 350 205 350 205 350 188 c 0,13,14
 350 172 350 172 351.5 153 c 128,-1,15
 353 134 353 134 358.5 118 c 128,-1,16
 364 102 364 102 375 91.5 c 128,-1,17
 386 81 386 81 406 81 c 0,18,19
 424 81 424 81 436 86 c 128,-1,20
 448 91 448 91 455.5 104.5 c 128,-1,21
 463 118 463 118 466 141 c 128,-1,22
 469 164 469 164 469 199 c 0,23,24
 469 237 469 237 469.5 290 c 128,-1,25
 470 343 470 343 470 412 c 2,26,-1
 470 517 l 2,27,28
 470 525 470 525 462.5 530.5 c 128,-1,29
 455 536 455 536 447 536 c 2,30,-1
 406 536 l 2,31,32
 352 536 352 536 329.5 546 c 128,-1,33
 307 556 307 556 307 579 c 0,34,35
 307 594 307 594 315 601.5 c 128,-1,36
 323 609 323 609 341 612 c 128,-1,37
 359 615 359 615 388 615.5 c 128,-1,38
 417 616 417 616 459 616 c 0,39,40
 519 616 519 616 548.5 609 c 128,-1,41
 578 602 578 602 583 584 c 0,42,43
 584 581 584 581 584 558.5 c 128,-1,44
 584 536 584 536 584 502.5 c 128,-1,45
 584 469 584 469 583.5 429.5 c 128,-1,46
 583 390 583 390 583 353 c 0,47,48
 582 289 582 289 582 247 c 128,-1,49
 582 205 582 205 581.5 177 c 128,-1,50
 581 149 581 149 578.5 129.5 c 128,-1,51
 576 110 576 110 571 90 c 0,52,53
 564 65 564 65 548 46.5 c 128,-1,54
 532 28 532 28 511 16 c 128,-1,55
 490 4 490 4 467 -2 c 128,-1,56
 444 -8 444 -8 423 -8 c 0,0,1
363 594 m 0,57,58
 365 599 365 599 361 600 c 0,59,60
 354 602 354 602 340.5 598 c 128,-1,61
 327 594 327 594 325 587 c 0,62,63
 324 584 324 584 325 580.5 c 128,-1,64
 326 577 326 577 328 576 c 0,65,66
 336 574 336 574 348.5 581 c 128,-1,67
 361 588 361 588 363 594 c 0,57,58
277 144 m 0,68,69
 282 145 282 145 283.5 157 c 128,-1,70
 285 169 285 169 286 173 c 0,71,72
 288 183 288 183 290.5 194 c 128,-1,73
 293 205 293 205 300 214 c 0,74,75
 305 219 305 219 304 223 c 0,76,77
 304 225 304 225 302 226.5 c 128,-1,78
 300 228 300 228 298 227 c 0,79,80
 289 226 289 226 283 217 c 128,-1,81
 277 208 277 208 274 197 c 128,-1,82
 271 186 271 186 270 176 c 128,-1,83
 269 166 269 166 269 163 c 0,84,85
 270 155 270 155 272 149 c 128,-1,86
 274 143 274 143 277 144 c 0,68,69
EndSplineSet



EndChar

StartChar: K
Encoding: 75 75 45
Width: 840
GlyphClass: 2
Flags: W
LayerCount: 2
Fore
SplineSet
371.5 575 m 0,0,1
 331.5 575 331.5 575 303 603 c 128,-1,2
 274.5 631 274.5 631 274.5 675 c 0,3,4
 274.5 699 274.5 699 283 720.5 c 128,-1,5
 291.5 742 291.5 742 306.5 757.5 c 128,-1,6
 321.5 773 321.5 773 342.5 782.5 c 128,-1,7
 363.5 792 363.5 792 388.5 792 c 0,8,9
 408.5 792 408.5 792 425.5 783.5 c 128,-1,10
 442.5 775 442.5 775 454.5 760 c 128,-1,11
 466.5 745 466.5 745 473 726 c 128,-1,12
 479.5 707 479.5 707 479.5 686 c 0,13,14
 479.5 659 479.5 659 471 638.5 c 128,-1,15
 462.5 618 462.5 618 447.5 604 c 128,-1,16
 432.5 590 432.5 590 413 582.5 c 128,-1,17
 393.5 575 393.5 575 371.5 575 c 0,0,1
334.5 748 m 0,18,19
 341.5 755 341.5 755 343 760 c 128,-1,20
 344.5 765 344.5 765 342.5 765 c 0,21,22
 334.5 765 334.5 765 325.5 757.5 c 128,-1,23
 316.5 750 316.5 750 309 739.5 c 128,-1,24
 301.5 729 301.5 729 296.5 717 c 128,-1,25
 291.5 705 291.5 705 291.5 695 c 0,26,27
 291.5 693 291.5 693 293 687 c 128,-1,28
 294.5 681 294.5 681 297.5 681 c 0,29,30
 301.5 681 301.5 681 307.5 703 c 0,31,32
 310.5 717 310.5 717 318.5 728.5 c 128,-1,33
 326.5 740 326.5 740 334.5 748 c 0,18,19
375.5 632 m 0,34,35
 387.5 632 387.5 632 404 646 c 128,-1,36
 420.5 660 420.5 660 420.5 686 c 0,37,38
 420.5 706 420.5 706 410 719.5 c 128,-1,39
 399.5 733 399.5 733 382.5 733 c 256,40,41
 365.5 733 365.5 733 351.5 719.5 c 128,-1,42
 337.5 706 337.5 706 337.5 682 c 256,43,44
 337.5 658 337.5 658 348.5 645 c 128,-1,45
 359.5 632 359.5 632 375.5 632 c 0,34,35
286.5 0 m 0,46,47
 265.5 0 265.5 0 255.5 11 c 128,-1,48
 245.5 22 245.5 22 242 38.5 c 128,-1,49
 238.5 55 238.5 55 238.5 73 c 128,-1,50
 238.5 91 238.5 91 238.5 105 c 2,51,-1
 238.5 204 l 1,52,-1
 237.5 402 l 1,53,-1
 237.5 428 l 2,54,55
 237.5 455 237.5 455 239.5 476 c 128,-1,56
 241.5 497 241.5 497 247.5 512 c 128,-1,57
 253.5 527 253.5 527 265 535 c 128,-1,58
 276.5 543 276.5 543 296.5 543 c 0,59,60
 319.5 543 319.5 543 337 524.5 c 128,-1,61
 354.5 506 354.5 506 354.5 476 c 0,62,63
 354.5 471 354.5 471 354 456 c 128,-1,64
 353.5 441 353.5 441 353.5 421 c 2,65,-1
 353.5 429 l 1,66,-1
 353.5 410 l 2,67,68
 353.5 391 353.5 391 355 379 c 128,-1,69
 356.5 367 356.5 367 358.5 367 c 0,70,71
 362.5 367 362.5 367 374 385.5 c 128,-1,72
 385.5 404 385.5 404 401 431.5 c 128,-1,73
 416.5 459 416.5 459 434.5 491.5 c 128,-1,74
 452.5 524 452.5 524 470.5 551.5 c 128,-1,75
 488.5 579 488.5 579 505 597.5 c 128,-1,76
 521.5 616 521.5 616 532.5 616 c 0,77,78
 541.5 616 541.5 616 552.5 613 c 128,-1,79
 563.5 610 563.5 610 572.5 604 c 128,-1,80
 581.5 598 581.5 598 587.5 589 c 128,-1,81
 593.5 580 593.5 580 593.5 567 c 0,82,83
 593.5 559 593.5 559 582.5 537.5 c 128,-1,84
 571.5 516 571.5 516 555.5 489 c 128,-1,85
 539.5 462 539.5 462 520.5 432 c 128,-1,86
 501.5 402 501.5 402 485.5 376.5 c 128,-1,87
 469.5 351 469.5 351 458.5 333.5 c 128,-1,88
 447.5 316 447.5 316 447.5 313 c 0,89,90
 447.5 309 447.5 309 459 290 c 128,-1,91
 470.5 271 470.5 271 487.5 245 c 128,-1,92
 504.5 219 504.5 219 525 188.5 c 128,-1,93
 545.5 158 545.5 158 562.5 130 c 128,-1,94
 579.5 102 579.5 102 591 80 c 128,-1,95
 602.5 58 602.5 58 602.5 48 c 0,96,97
 602.5 35 602.5 35 594 26 c 128,-1,98
 585.5 17 585.5 17 573.5 11 c 128,-1,99
 561.5 5 561.5 5 549.5 2 c 128,-1,100
 537.5 -1 537.5 -1 529.5 -1 c 0,101,102
 515.5 -1 515.5 -1 500.5 17.5 c 128,-1,103
 485.5 36 485.5 36 473.5 57 c 0,104,105
 469.5 64 469.5 64 461 80.5 c 128,-1,106
 452.5 97 452.5 97 441 118 c 128,-1,107
 429.5 139 429.5 139 417 161.5 c 128,-1,108
 404.5 184 404.5 184 393 203 c 128,-1,109
 381.5 222 381.5 222 373 234 c 128,-1,110
 364.5 246 364.5 246 360.5 246 c 0,111,112
 352.5 246 352.5 246 352.5 234.5 c 128,-1,113
 352.5 223 352.5 223 352.5 215 c 2,114,-1
 352.5 164 l 1,115,-1
 353.5 125 l 1,116,-1
 353.5 102 l 2,117,118
 353.5 51 353.5 51 337.5 25.5 c 128,-1,119
 321.5 0 321.5 0 286.5 0 c 0,46,47
256.5 488 m 0,120,121
 261.5 487 261.5 487 266 491 c 128,-1,122
 270.5 495 270.5 495 274 500.5 c 128,-1,123
 277.5 506 277.5 506 280.5 512.5 c 128,-1,124
 283.5 519 283.5 519 284.5 523 c 0,125,126
 285.5 526 285.5 526 282.5 528.5 c 128,-1,127
 279.5 531 279.5 531 276.5 531 c 0,128,129
 272.5 531 272.5 531 268.5 526 c 128,-1,130
 264.5 521 264.5 521 261 514.5 c 128,-1,131
 257.5 508 257.5 508 255.5 501.5 c 128,-1,132
 253.5 495 253.5 495 253.5 492 c 0,133,134
 253.5 488 253.5 488 256.5 488 c 0,120,121
506.5 558 m 0,135,136
 509.5 558 509.5 558 515.5 562.5 c 128,-1,137
 521.5 567 521.5 567 527.5 573 c 128,-1,138
 533.5 579 533.5 579 537.5 585.5 c 128,-1,139
 541.5 592 541.5 592 540.5 596 c 0,140,141
 540.5 600 540.5 600 536.5 600 c 0,142,143
 533.5 601 533.5 601 527 596.5 c 128,-1,144
 520.5 592 520.5 592 514 585.5 c 128,-1,145
 507.5 579 507.5 579 503 573 c 128,-1,146
 498.5 567 498.5 567 499.5 564 c 0,147,148
 501.5 559 501.5 559 506.5 558 c 0,135,136
271.5 70 m 0,149,150
 271.5 74 271.5 74 271.5 84.5 c 128,-1,151
 271.5 95 271.5 95 270.5 106 c 128,-1,152
 269.5 117 269.5 117 267.5 125.5 c 128,-1,153
 265.5 134 265.5 134 261.5 134 c 0,154,155
 258.5 134 258.5 134 256 129 c 128,-1,156
 253.5 124 253.5 124 252.5 117 c 128,-1,157
 251.5 110 251.5 110 251 103.5 c 128,-1,158
 250.5 97 250.5 97 250.5 95 c 0,159,160
 250.5 91 250.5 91 250.5 82.5 c 128,-1,161
 250.5 74 250.5 74 252 65 c 128,-1,162
 253.5 56 253.5 56 256.5 49.5 c 128,-1,163
 259.5 43 259.5 43 265.5 43 c 0,164,165
 267.5 43 267.5 43 269 47 c 128,-1,166
 270.5 51 270.5 51 271 55.5 c 128,-1,167
 271.5 60 271.5 60 271.5 64.5 c 128,-1,168
 271.5 69 271.5 69 271.5 70 c 0,149,150
532.5 21 m 0,169,170
 532.5 24 532.5 24 529.5 30.5 c 128,-1,171
 526.5 37 526.5 37 522 43 c 128,-1,172
 517.5 49 517.5 49 512.5 54 c 128,-1,173
 507.5 59 507.5 59 504.5 59 c 0,174,175
 502.5 59 502.5 59 501.5 55.5 c 128,-1,176
 500.5 52 500.5 52 500.5 50 c 0,177,178
 500.5 47 500.5 47 503 41 c 128,-1,179
 505.5 35 505.5 35 509 29 c 128,-1,180
 512.5 23 512.5 23 517.5 19 c 128,-1,181
 522.5 15 522.5 15 526.5 15 c 0,182,183
 532.5 15 532.5 15 532.5 21 c 0,169,170
281.5 25 m 0,184,185
 283.5 29 283.5 29 280.5 32.5 c 128,-1,186
 277.5 36 277.5 36 273.5 36 c 0,187,188
 268.5 36 268.5 36 266 32.5 c 128,-1,189
 263.5 29 263.5 29 265.5 25 c 0,190,191
 267.5 17 267.5 17 273.5 17 c 256,192,193
 279.5 17 279.5 17 281.5 25 c 0,184,185
EndSplineSet


EndChar

StartChar: L
Encoding: 76 76 46
Width: 840
GlyphClass: 2
Flags: W
LayerCount: 2
Fore
SplineSet
438 569 m 0,0,1
 398 569 398 569 369.5 597 c 128,-1,2
 341 625 341 625 341 669 c 0,3,4
 341 693 341 693 349.5 714.5 c 128,-1,5
 358 736 358 736 373 751.5 c 128,-1,6
 388 767 388 767 409 776.5 c 128,-1,7
 430 786 430 786 455 786 c 0,8,9
 475 786 475 786 492 777.5 c 128,-1,10
 509 769 509 769 521 754 c 128,-1,11
 533 739 533 739 539.5 720 c 128,-1,12
 546 701 546 701 546 680 c 0,13,14
 546 653 546 653 537.5 632.5 c 128,-1,15
 529 612 529 612 514 598 c 128,-1,16
 499 584 499 584 479.5 576.5 c 128,-1,17
 460 569 460 569 438 569 c 0,0,1
401 742 m 0,18,19
 408 749 408 749 409.5 754 c 128,-1,20
 411 759 411 759 409 759 c 0,21,22
 401 759 401 759 392 751.5 c 128,-1,23
 383 744 383 744 375.5 733.5 c 128,-1,24
 368 723 368 723 363 711 c 128,-1,25
 358 699 358 699 358 689 c 0,26,27
 358 687 358 687 359.5 681 c 128,-1,28
 361 675 361 675 364 675 c 0,29,30
 368 675 368 675 374 697 c 0,31,32
 377 711 377 711 385 722.5 c 128,-1,33
 393 734 393 734 401 742 c 0,18,19
442 626 m 0,34,35
 454 626 454 626 470.5 640 c 128,-1,36
 487 654 487 654 487 680 c 0,37,38
 487 700 487 700 476.5 713.5 c 128,-1,39
 466 727 466 727 449 727 c 256,40,41
 432 727 432 727 418 713.5 c 128,-1,42
 404 700 404 700 404 676 c 256,43,44
 404 652 404 652 415 639 c 128,-1,45
 426 626 426 626 442 626 c 0,34,35
311 0 m 2,46,47
 300 0 300 0 291.5 8 c 128,-1,48
 283 16 283 16 283 27 c 2,49,-1
 283 492 l 2,50,51
 283 503 283 503 284.5 514 c 128,-1,52
 286 525 286 525 292 534 c 128,-1,53
 298 543 298 543 309.5 549 c 128,-1,54
 321 555 321 555 341 555 c 0,55,56
 364 555 364 555 380.5 537 c 128,-1,57
 397 519 397 519 397 499 c 2,58,-1
 397 121 l 2,59,60
 397 103 397 103 404 98.5 c 128,-1,61
 411 94 411 94 420 94 c 0,62,63
 437 94 437 94 450.5 94.5 c 128,-1,64
 464 95 464 95 476.5 95.5 c 128,-1,65
 489 96 489 96 502.5 96.5 c 128,-1,66
 516 97 516 97 533 97 c 0,67,68
 547 97 547 97 552 82.5 c 128,-1,69
 557 68 557 68 557 54 c 0,70,71
 557 34 557 34 544.5 16.5 c 128,-1,72
 532 -1 532 -1 518 -1 c 2,73,-1
 471 -1 l 1,74,-1
 388 0 l 1,75,-1
 311 0 l 2,46,47
301 488 m 0,76,77
 304 488 304 488 308.5 494.5 c 128,-1,78
 313 501 313 501 317.5 510 c 128,-1,79
 322 519 322 519 325.5 527 c 128,-1,80
 329 535 329 535 329 538 c 0,81,82
 329 543 329 543 321 543 c 0,83,84
 316 543 316 543 311 536.5 c 128,-1,85
 306 530 306 530 302.5 522 c 128,-1,86
 299 514 299 514 297 506 c 128,-1,87
 295 498 295 498 296 494 c 0,88,89
 296 488 296 488 301 488 c 0,76,77
312 59 m 0,90,91
 317 59 317 59 319 70 c 128,-1,92
 321 81 321 81 322 96.5 c 128,-1,93
 323 112 323 112 322.5 128.5 c 128,-1,94
 322 145 322 145 322 155 c 0,95,96
 322 159 322 159 321.5 165 c 128,-1,97
 321 171 321 171 319.5 177 c 128,-1,98
 318 183 318 183 315.5 187 c 128,-1,99
 313 191 313 191 308 191 c 0,100,101
 305 191 305 191 303.5 182.5 c 128,-1,102
 302 174 302 174 301 163 c 128,-1,103
 300 152 300 152 300 142.5 c 128,-1,104
 300 133 300 133 300 130 c 256,105,106
 300 127 300 127 300.5 115.5 c 128,-1,107
 301 104 301 104 302.5 91.5 c 128,-1,108
 304 79 304 79 306 69 c 128,-1,109
 308 59 308 59 312 59 c 0,90,91
329 30 m 0,110,111
 329 41 329 41 322 41 c 0,112,113
 312 41 312 41 312 30 c 0,114,115
 312 22 312 22 320 22 c 0,116,117
 323 22 323 22 326 24 c 128,-1,118
 329 26 329 26 329 30 c 0,110,111
EndSplineSet


EndChar

StartChar: M
Encoding: 77 77 47
Width: 840
GlyphClass: 2
Flags: W
LayerCount: 2
Fore
SplineSet
443.5 599 m 0,0,1
 403.5 599 403.5 599 375 627 c 128,-1,2
 346.5 655 346.5 655 346.5 699 c 0,3,4
 346.5 723 346.5 723 355 744.5 c 128,-1,5
 363.5 766 363.5 766 378.5 781.5 c 128,-1,6
 393.5 797 393.5 797 414.5 806.5 c 128,-1,7
 435.5 816 435.5 816 460.5 816 c 0,8,9
 480.5 816 480.5 816 497.5 807.5 c 128,-1,10
 514.5 799 514.5 799 526.5 784 c 128,-1,11
 538.5 769 538.5 769 545 750 c 128,-1,12
 551.5 731 551.5 731 551.5 710 c 0,13,14
 551.5 683 551.5 683 543 662.5 c 128,-1,15
 534.5 642 534.5 642 519.5 628 c 128,-1,16
 504.5 614 504.5 614 485 606.5 c 128,-1,17
 465.5 599 465.5 599 443.5 599 c 0,0,1
406.5 772 m 0,18,19
 413.5 779 413.5 779 415 784 c 128,-1,20
 416.5 789 416.5 789 414.5 789 c 0,21,22
 406.5 789 406.5 789 397.5 781.5 c 128,-1,23
 388.5 774 388.5 774 381 763.5 c 128,-1,24
 373.5 753 373.5 753 368.5 741 c 128,-1,25
 363.5 729 363.5 729 363.5 719 c 0,26,27
 363.5 717 363.5 717 365 711 c 128,-1,28
 366.5 705 366.5 705 369.5 705 c 0,29,30
 373.5 705 373.5 705 379.5 727 c 0,31,32
 382.5 741 382.5 741 390.5 752.5 c 128,-1,33
 398.5 764 398.5 764 406.5 772 c 0,18,19
447.5 656 m 0,34,35
 459.5 656 459.5 656 476 670 c 128,-1,36
 492.5 684 492.5 684 492.5 710 c 0,37,38
 492.5 730 492.5 730 482 743.5 c 128,-1,39
 471.5 757 471.5 757 454.5 757 c 256,40,41
 437.5 757 437.5 757 423.5 743.5 c 128,-1,42
 409.5 730 409.5 730 409.5 706 c 256,43,44
 409.5 682 409.5 682 420.5 669 c 128,-1,45
 431.5 656 431.5 656 447.5 656 c 0,34,35
195.5 0 m 0,46,47
 180.5 0 180.5 0 171.5 5.5 c 128,-1,48
 162.5 11 162.5 11 158 20 c 128,-1,49
 153.5 29 153.5 29 152 40.5 c 128,-1,50
 150.5 52 150.5 52 150.5 65 c 2,51,-1
 150.5 496 l 2,52,53
 150.5 507 150.5 507 151 520 c 128,-1,54
 151.5 533 151.5 533 155.5 544 c 128,-1,55
 159.5 555 159.5 555 168.5 562.5 c 128,-1,56
 177.5 570 177.5 570 193.5 570 c 0,57,58
 213.5 570 213.5 570 223.5 555.5 c 128,-1,59
 233.5 541 233.5 541 238 523 c 128,-1,60
 242.5 505 242.5 505 243.5 490.5 c 128,-1,61
 244.5 476 244.5 476 246.5 476 c 256,62,63
 248.5 476 248.5 476 252.5 491.5 c 128,-1,64
 256.5 507 256.5 507 267 525 c 128,-1,65
 277.5 543 277.5 543 296.5 558.5 c 128,-1,66
 315.5 574 315.5 574 348.5 574 c 0,67,68
 376.5 574 376.5 574 394.5 559 c 128,-1,69
 412.5 544 412.5 544 423.5 525.5 c 128,-1,70
 434.5 507 434.5 507 440.5 492 c 128,-1,71
 446.5 477 446.5 477 449.5 477 c 256,72,73
 452.5 477 452.5 477 458 492 c 128,-1,74
 463.5 507 463.5 507 474.5 525.5 c 128,-1,75
 485.5 544 485.5 544 505 559 c 128,-1,76
 524.5 574 524.5 574 556.5 574 c 0,77,78
 597.5 574 597.5 574 623.5 554 c 128,-1,79
 649.5 534 649.5 534 664 498.5 c 128,-1,80
 678.5 463 678.5 463 684 414.5 c 128,-1,81
 689.5 366 689.5 366 689.5 310 c 2,82,-1
 689.5 27 l 2,83,84
 689.5 13 689.5 13 670.5 6.5 c 128,-1,85
 651.5 0 651.5 0 631.5 0 c 256,86,87
 611.5 0 611.5 0 600.5 5.5 c 128,-1,88
 589.5 11 589.5 11 589.5 26 c 2,89,-1
 589.5 301 l 2,90,91
 589.5 313 589.5 313 589.5 341.5 c 128,-1,92
 589.5 370 589.5 370 585 400 c 128,-1,93
 580.5 430 580.5 430 570 452.5 c 128,-1,94
 559.5 475 559.5 475 538.5 475 c 0,95,96
 520.5 475 520.5 475 509 461 c 128,-1,97
 497.5 447 497.5 447 490.5 422.5 c 128,-1,98
 483.5 398 483.5 398 480 363.5 c 128,-1,99
 476.5 329 476.5 329 474.5 287 c 0,100,101
 471.5 238 471.5 238 470.5 211 c 128,-1,102
 469.5 184 469.5 184 470 141.5 c 128,-1,103
 470.5 99 470.5 99 471 69.5 c 128,-1,104
 471.5 40 471.5 40 471.5 31 c 0,105,106
 471.5 17 471.5 17 455 8.5 c 128,-1,107
 438.5 0 438.5 0 414.5 0 c 256,108,109
 390.5 0 390.5 0 380.5 7 c 128,-1,110
 370.5 14 370.5 14 370.5 38 c 2,111,-1
 370.5 301 l 2,112,113
 370.5 312 370.5 312 370.5 341 c 128,-1,114
 370.5 370 370.5 370 366.5 400 c 128,-1,115
 362.5 430 362.5 430 352.5 453 c 128,-1,116
 342.5 476 342.5 476 322.5 476 c 0,117,118
 304.5 476 304.5 476 292 460.5 c 128,-1,119
 279.5 445 279.5 445 271.5 421 c 128,-1,120
 263.5 397 263.5 397 259 367 c 128,-1,121
 254.5 337 254.5 337 252.5 309 c 128,-1,122
 250.5 281 250.5 281 250 257 c 128,-1,123
 249.5 233 249.5 233 249.5 221 c 2,124,-1
 249.5 45 l 2,125,126
 249.5 26 249.5 26 233.5 13 c 128,-1,127
 217.5 0 217.5 0 195.5 0 c 0,46,47
174.5 476 m 0,128,129
 180.5 477 180.5 477 181 487.5 c 128,-1,130
 181.5 498 181.5 498 181.5 506 c 0,131,132
 181.5 513 181.5 513 183.5 521.5 c 128,-1,133
 185.5 530 185.5 530 187 537 c 128,-1,134
 188.5 544 188.5 544 188.5 549 c 128,-1,135
 188.5 554 188.5 554 184.5 554 c 0,136,137
 177.5 554 177.5 554 173 547.5 c 128,-1,138
 168.5 541 168.5 541 166.5 532 c 128,-1,139
 164.5 523 164.5 523 163.5 515 c 128,-1,140
 162.5 507 162.5 507 162.5 504 c 0,141,142
 162.5 496 162.5 496 164.5 485.5 c 128,-1,143
 166.5 475 166.5 475 174.5 476 c 0,128,129
405.5 23 m 0,144,145
 405.5 33 405.5 33 399 36.5 c 128,-1,146
 392.5 40 392.5 40 392.5 51 c 0,147,148
 392.5 53 392.5 53 392.5 58.5 c 128,-1,149
 392.5 64 392.5 64 392 69.5 c 128,-1,150
 391.5 75 391.5 75 389.5 79.5 c 128,-1,151
 387.5 84 387.5 84 384.5 84 c 0,152,153
 382.5 84 382.5 84 381.5 79.5 c 128,-1,154
 380.5 75 380.5 75 380 69 c 128,-1,155
 379.5 63 379.5 63 379.5 57.5 c 128,-1,156
 379.5 52 379.5 52 379.5 50 c 0,157,158
 379.5 38 379.5 38 383 24.5 c 128,-1,159
 386.5 11 386.5 11 396.5 11 c 0,160,161
 405.5 11 405.5 11 405.5 23 c 0,144,145
621.5 24 m 0,162,163
 621.5 34 621.5 34 616 41.5 c 128,-1,164
 610.5 49 610.5 49 610.5 60 c 0,165,166
 610.5 64 610.5 64 610 74 c 128,-1,167
 609.5 84 609.5 84 603.5 84 c 0,168,169
 598.5 84 598.5 84 598 73 c 128,-1,170
 597.5 62 597.5 62 597.5 59 c 256,171,172
 597.5 56 597.5 56 598 48 c 128,-1,173
 598.5 40 598.5 40 600.5 32.5 c 128,-1,174
 602.5 25 602.5 25 605.5 19 c 128,-1,175
 608.5 13 608.5 13 613.5 13 c 0,176,177
 617.5 13 617.5 13 619.5 17.5 c 128,-1,178
 621.5 22 621.5 22 621.5 24 c 0,162,163
193.5 24 m 0,179,180
 193.5 35 193.5 35 189 36 c 128,-1,181
 184.5 37 184.5 37 179.5 44 c 0,182,183
 178.5 46 178.5 46 178 51.5 c 128,-1,184
 177.5 57 177.5 57 177.5 62.5 c 128,-1,185
 177.5 68 177.5 68 176 72.5 c 128,-1,186
 174.5 77 174.5 77 171.5 77 c 0,187,188
 166.5 77 166.5 77 166 67.5 c 128,-1,189
 165.5 58 165.5 58 165.5 51 c 0,190,191
 165.5 47 165.5 47 166.5 41 c 128,-1,192
 167.5 35 167.5 35 170 29 c 128,-1,193
 172.5 23 172.5 23 176 18.5 c 128,-1,194
 179.5 14 179.5 14 184.5 14 c 0,195,196
 193.5 14 193.5 14 193.5 24 c 0,179,180
EndSplineSet


EndChar

StartChar: N
Encoding: 78 78 48
Width: 840
GlyphClass: 2
Flags: W
LayerCount: 2
Fore
SplineSet
399.5 558 m 4,0,1
 359.5 558 359.5 558 331 586 c 132,-1,2
 302.5 614 302.5 614 302.5 658 c 4,3,4
 302.5 682 302.5 682 311 703.5 c 132,-1,5
 319.5 725 319.5 725 334.5 740.5 c 132,-1,6
 349.5 756 349.5 756 370.5 765.5 c 132,-1,7
 391.5 775 391.5 775 416.5 775 c 4,8,9
 436.5 775 436.5 775 453.5 766.5 c 132,-1,10
 470.5 758 470.5 758 482.5 743 c 132,-1,11
 494.5 728 494.5 728 501 709 c 132,-1,12
 507.5 690 507.5 690 507.5 669 c 4,13,14
 507.5 642 507.5 642 499 621.5 c 132,-1,15
 490.5 601 490.5 601 475.5 587 c 132,-1,16
 460.5 573 460.5 573 441 565.5 c 132,-1,17
 421.5 558 421.5 558 399.5 558 c 4,0,1
362.5 731 m 4,18,19
 369.5 738 369.5 738 371 743 c 132,-1,20
 372.5 748 372.5 748 370.5 748 c 4,21,22
 362.5 748 362.5 748 353.5 740.5 c 132,-1,23
 344.5 733 344.5 733 337 722.5 c 132,-1,24
 329.5 712 329.5 712 324.5 700 c 132,-1,25
 319.5 688 319.5 688 319.5 678 c 4,26,27
 319.5 676 319.5 676 321 670 c 132,-1,28
 322.5 664 322.5 664 325.5 664 c 4,29,30
 329.5 664 329.5 664 335.5 686 c 4,31,32
 338.5 700 338.5 700 346.5 711.5 c 132,-1,33
 354.5 723 354.5 723 362.5 731 c 4,18,19
403.5 615 m 4,34,35
 415.5 615 415.5 615 432 629 c 132,-1,36
 448.5 643 448.5 643 448.5 669 c 4,37,38
 448.5 689 448.5 689 438 702.5 c 132,-1,39
 427.5 716 427.5 716 410.5 716 c 260,40,41
 393.5 716 393.5 716 379.5 702.5 c 132,-1,42
 365.5 689 365.5 689 365.5 665 c 260,43,44
 365.5 641 365.5 641 376.5 628 c 132,-1,45
 387.5 615 387.5 615 403.5 615 c 4,34,35
291.5 0 m 0,46,47
 266.5 0 266.5 0 256.5 14.5 c 128,-1,48
 246.5 29 246.5 29 246.5 65 c 2,49,-1
 246.5 422 l 2,50,51
 246.5 466 246.5 466 256 481 c 128,-1,52
 265.5 496 265.5 496 294.5 496 c 0,53,54
 313.5 496 313.5 496 331.5 486.5 c 128,-1,55
 349.5 477 349.5 477 349.5 451 c 2,56,-1
 349.5 437 l 2,57,58
 349.5 397 349.5 397 353.5 397 c 256,59,60
 357.5 397 357.5 397 362.5 413 c 128,-1,61
 367.5 429 367.5 429 379.5 448.5 c 128,-1,62
 391.5 468 391.5 468 413.5 484 c 128,-1,63
 435.5 500 435.5 500 471.5 500 c 0,64,65
 535.5 500 535.5 500 564.5 437 c 128,-1,66
 593.5 374 593.5 374 593.5 236 c 2,67,-1
 593.5 31 l 2,68,69
 593.5 0 593.5 0 537.5 0 c 0,70,71
 510.5 0 510.5 0 498.5 11.5 c 128,-1,72
 486.5 23 486.5 23 486.5 34 c 2,73,-1
 486.5 227 l 2,74,75
 486.5 279 486.5 279 483.5 311 c 128,-1,76
 480.5 343 480.5 343 474.5 361 c 128,-1,77
 468.5 379 468.5 379 459 385.5 c 128,-1,78
 449.5 392 449.5 392 435.5 392 c 0,79,80
 414.5 392 414.5 392 399 372.5 c 128,-1,81
 383.5 353 383.5 353 373.5 320 c 128,-1,82
 363.5 287 363.5 287 359 242.5 c 128,-1,83
 354.5 198 354.5 198 354.5 147 c 2,84,-1
 354.5 45 l 2,85,86
 354.5 30 354.5 30 347 21 c 128,-1,87
 339.5 12 339.5 12 329.5 7.5 c 128,-1,88
 319.5 3 319.5 3 309 1.5 c 128,-1,89
 298.5 0 298.5 0 291.5 0 c 0,46,47
266.5 395 m 0,90,91
 269.5 395 269.5 395 271.5 407 c 128,-1,92
 273.5 419 273.5 419 275.5 434 c 128,-1,93
 277.5 449 277.5 449 278.5 461.5 c 128,-1,94
 279.5 474 279.5 474 279.5 475 c 0,95,96
 279.5 477 279.5 477 279 480 c 128,-1,97
 278.5 483 278.5 483 276.5 483 c 0,98,99
 271.5 483 271.5 483 268 475.5 c 128,-1,100
 264.5 468 264.5 468 262.5 458.5 c 128,-1,101
 260.5 449 260.5 449 259.5 439.5 c 128,-1,102
 258.5 430 258.5 430 258.5 427 c 0,103,104
 258.5 419 258.5 419 260.5 407 c 128,-1,105
 262.5 395 262.5 395 266.5 395 c 0,90,91
523.5 29 m 0,106,107
 523.5 35 523.5 35 521.5 38 c 128,-1,108
 519.5 41 519.5 41 517 43 c 128,-1,109
 514.5 45 514.5 45 512.5 49 c 128,-1,110
 510.5 53 510.5 53 510.5 60 c 0,111,112
 510.5 76 510.5 76 509 80 c 128,-1,113
 507.5 84 507.5 84 502.5 84 c 256,114,115
 497.5 84 497.5 84 496 76.5 c 128,-1,116
 494.5 69 494.5 69 494.5 59 c 0,117,118
 494.5 39 494.5 39 500.5 27 c 128,-1,119
 506.5 15 506.5 15 514.5 15 c 0,120,121
 517.5 15 517.5 15 520.5 18.5 c 128,-1,122
 523.5 22 523.5 22 523.5 29 c 0,106,107
290.5 26 m 0,123,124
 290.5 31 290.5 31 288 33.5 c 128,-1,125
 285.5 36 285.5 36 282.5 38.5 c 128,-1,126
 279.5 41 279.5 41 277 45 c 128,-1,127
 274.5 49 274.5 49 274.5 56 c 0,128,129
 274.5 77 274.5 77 267.5 77 c 0,130,131
 265.5 77 265.5 77 263.5 69.5 c 128,-1,132
 261.5 62 261.5 62 261.5 51 c 0,133,134
 261.5 36 261.5 36 268 24 c 128,-1,135
 274.5 12 274.5 12 282.5 12 c 0,136,137
 284.5 12 284.5 12 287.5 16 c 128,-1,138
 290.5 20 290.5 20 290.5 26 c 0,123,124
EndSplineSet


EndChar

StartChar: O
Encoding: 79 79 49
Width: 840
GlyphClass: 2
Flags: W
LayerCount: 2
Fore
SplineSet
293.5 341.5 m 0,0,1
 280.5 346 280.5 346 272 355 c 128,-1,2
 263.5 364 263.5 364 261 374 c 128,-1,3
 258.5 384 258.5 384 262 394.5 c 0,4,5
 266.5 406 266.5 406 275.5 411.5 c 0,6,7
 280.5 414 280.5 414 288 416.5 c 0,8,9
 295.5 418 295.5 418 309 420 c 128,-1,10
 322.5 422 322.5 422 342.5 422 c 0,11,12
 402.5 422 402.5 422 433.5 422.5 c 0,13,14
 505.5 422 505.5 422 530.5 421 c 128,-1,15
 555.5 420 555.5 420 568 414.5 c 0,16,17
 580.5 410 580.5 410 583.5 400.5 c 0,18,19
 586.5 392 586.5 392 586.5 376.5 c 0,20,21
 586.5 364 586.5 364 581 357 c 128,-1,22
 575.5 350 575.5 350 561.5 345 c 128,-1,23
 547.5 340 547.5 340 523.5 338.5 c 0,24,25
 499.5 336 499.5 336 433.5 336.5 c 0,26,27
 355.5 336 355.5 336 327 338 c 128,-1,28
 298.5 340 298.5 340 293.5 341.5 c 0,0,1
301.5 402.5 m 0,29,30
 301.5 404 301.5 404 299 406 c 0,31,32
 297.5 407 297.5 407 292.5 404.5 c 128,-1,33
 287.5 402 287.5 402 285 392.5 c 0,34,35
 282.5 384 282.5 384 282.5 376.5 c 256,36,37
 282.5 370 282.5 370 284.5 369.5 c 0,38,39
 287.5 370 287.5 370 292.5 382.5 c 0,40,41
 298.5 396 298.5 396 298.5 396.5 c 0,42,43
 301.5 399 301.5 399 301.5 402.5 c 0,29,30
291.5 180.5 m 0,44,45
 272.5 184 272.5 184 263 198 c 128,-1,46
 253.5 212 253.5 212 260.5 226.5 c 0,47,48
 265.5 236 265.5 236 273 240.5 c 0,49,50
 280.5 246 280.5 246 296 248 c 0,51,52
 319.5 251 319.5 251 336.5 251 c 0,53,54
 400.5 251 400.5 251 454 251.5 c 128,-1,55
 507.5 252 507.5 252 533 250 c 128,-1,56
 558.5 248 558.5 248 572.5 245 c 128,-1,57
 586.5 242 586.5 242 592 235 c 128,-1,58
 597.5 228 597.5 228 597.5 217.5 c 0,59,60
 597.5 204 597.5 204 591.5 195.5 c 0,61,62
 585.5 186 585.5 186 570 181.5 c 0,63,64
 554.5 176 554.5 176 528.5 174 c 0,65,66
 491.5 171 491.5 171 434.5 171.5 c 0,67,68
 356.5 172 356.5 172 328 175 c 128,-1,69
 299.5 178 299.5 178 291.5 180.5 c 0,44,45
294.5 229.5 m 0,70,71
 294.5 232 294.5 232 291.5 232.5 c 256,72,73
 288.5 232 288.5 232 287.5 231.5 c 0,74,75
 285.5 230 285.5 230 282.5 226 c 128,-1,76
 279.5 222 279.5 222 279.5 214.5 c 0,77,78
 279.5 206 279.5 206 281 204.5 c 0,79,80
 282.5 204 282.5 204 287.5 208.5 c 0,81,82
 291.5 212 291.5 212 293 218.5 c 0,83,84
 294.5 224 294.5 224 294.5 229.5 c 0,70,71
417.5 -10 m 0,85,86
 345.5 -10 345.5 -10 292 17.5 c 128,-1,87
 238.5 45 238.5 45 203.5 88.5 c 128,-1,88
 168.5 132 168.5 132 151 186 c 128,-1,89
 133.5 240 133.5 240 133.5 294 c 0,90,91
 133.5 360 133.5 360 153.5 416 c 128,-1,92
 173.5 472 173.5 472 211 512.5 c 128,-1,93
 248.5 553 248.5 553 302.5 576 c 128,-1,94
 356.5 599 356.5 599 423.5 599 c 0,95,96
 485.5 599 485.5 599 537.5 576.5 c 128,-1,97
 589.5 554 589.5 554 627 514.5 c 128,-1,98
 664.5 475 664.5 475 685.5 420.5 c 128,-1,99
 706.5 366 706.5 366 706.5 303 c 0,100,101
 706.5 239 706.5 239 685 182 c 128,-1,102
 663.5 125 663.5 125 625 82.5 c 128,-1,103
 586.5 40 586.5 40 533.5 15 c 128,-1,104
 480.5 -10 480.5 -10 417.5 -10 c 0,85,86
419.5 67 m 0,105,106
 520.5 67 520.5 67 572 130.5 c 128,-1,107
 623.5 194 623.5 194 623.5 303 c 0,108,109
 623.5 347 623.5 347 610 387.5 c 128,-1,110
 596.5 428 596.5 428 570.5 459 c 128,-1,111
 544.5 490 544.5 490 507.5 508.5 c 128,-1,112
 470.5 527 470.5 527 423.5 527 c 0,113,114
 378.5 527 378.5 527 341 509 c 128,-1,115
 303.5 491 303.5 491 276.5 461 c 128,-1,116
 249.5 431 249.5 431 234.5 391 c 128,-1,117
 219.5 351 219.5 351 219.5 306 c 256,118,119
 219.5 261 219.5 261 233 218 c 128,-1,120
 246.5 175 246.5 175 272 141.5 c 128,-1,121
 297.5 108 297.5 108 334.5 87.5 c 128,-1,122
 371.5 67 371.5 67 419.5 67 c 0,105,106
EndSplineSet




EndChar

StartChar: P
Encoding: 80 80 50
Width: 840
GlyphClass: 2
Flags: W
LayerCount: 2
Fore
SplineSet
292 -14 m 0,0,1
 272 -14 272 -14 255 1 c 128,-1,2
 238 16 238 16 238 69 c 2,3,-1
 238 526 l 2,4,5
 238 547 238 547 246.5 564 c 128,-1,6
 255 581 255 581 269.5 592.5 c 128,-1,7
 284 604 284 604 302.5 610 c 128,-1,8
 321 616 321 616 341 616 c 2,9,-1
 400 616 l 2,10,11
 431 616 431 616 466.5 604 c 128,-1,12
 502 592 502 592 532 566 c 128,-1,13
 562 540 562 540 582 498 c 128,-1,14
 602 456 602 456 602 397 c 256,15,16
 602 338 602 338 582.5 291.5 c 128,-1,17
 563 245 563 245 534 213.5 c 128,-1,18
 505 182 505 182 471 165.5 c 128,-1,19
 437 149 437 149 407 149 c 2,20,-1
 378 149 l 2,21,22
 369 149 369 149 360.5 145 c 128,-1,23
 352 141 352 141 352 132 c 2,24,-1
 352 65 l 2,25,26
 352 33 352 33 346.5 21 c 128,-1,27
 341 9 341 9 332 1 c 128,-1,28
 323 -7 323 -7 312.5 -10.5 c 128,-1,29
 302 -14 302 -14 292 -14 c 0,0,1
396 238 m 2,30,31
 413 238 413 238 429 246 c 128,-1,32
 445 254 445 254 458.5 271.5 c 128,-1,33
 472 289 472 289 480 317 c 128,-1,34
 488 345 488 345 488 385 c 0,35,36
 488 428 488 428 480 456.5 c 128,-1,37
 472 485 472 485 459 501.5 c 128,-1,38
 446 518 446 518 430 525 c 128,-1,39
 414 532 414 532 399 532 c 2,40,-1
 377 532 l 2,41,42
 352 532 352 532 352 498 c 2,43,-1
 352 261 l 2,44,45
 352 238 352 238 383 238 c 2,46,-1
 396 238 l 2,30,31
278 21 m 256,47,48
 273 26 273 26 269.5 39 c 128,-1,49
 266 52 266 52 266 78.5 c 128,-1,50
 266 105 266 105 259 105 c 0,51,52
 254 105 254 105 252.5 96.5 c 128,-1,53
 251 88 251 88 251 76 c 0,54,55
 251 38 251 38 258 22 c 128,-1,56
 265 6 265 6 275 6 c 0,57,58
 277 6 277 6 280 8 c 128,-1,59
 283 10 283 10 283 12 c 0,60,61
 283 16 283 16 278 21 c 256,47,48
EndSplineSet



EndChar

StartChar: Q
Encoding: 81 81 51
Width: 840
GlyphClass: 2
Flags: W
LayerCount: 2
Fore
SplineSet
426 616 m 0,0,1
 385 616 385 616 352 601 c 2,2,3
 352 601 352 601 319 585 c 1,4,-1
 275 537 l 1,5,6
 243 492 243 492 227 432.5 c 128,-1,7
 211 373 211 373 211 311 c 0,8,9
 211 255 211 255 223 196.5 c 128,-1,10
 235 138 235 138 261 90.5 c 128,-1,11
 287 43 287 43 328 12.5 c 128,-1,12
 369 -18 369 -18 427 -18 c 0,13,14
 464 -18 464 -18 495 -4 c 1,15,16
 503 -22 503 -22 515.5 -40.5 c 128,-1,17
 528 -59 528 -59 551 -59 c 0,18,19
 558 -59 558 -59 566.5 -56.5 c 128,-1,20
 575 -54 575 -54 582.5 -49.5 c 128,-1,21
 590 -45 590 -45 595 -39 c 128,-1,22
 600 -33 600 -33 600 -26 c 0,23,24
 600 -18 600 -18 591 8.5 c 128,-1,25
 582 35 582 35 570 65 c 1,26,27
 600 112 600 112 614.5 177.5 c 128,-1,28
 629 243 629 243 629 316 c 0,29,30
 629 371 629 371 617 425 c 128,-1,31
 605 479 605 479 580.5 521.5 c 128,-1,32
 556 564 556 564 517.5 590 c 128,-1,33
 479 616 479 616 426 616 c 0,0,1
274 139 m 0,34,35
 277 139 277 139 281 133.5 c 128,-1,36
 285 128 285 128 289.5 119.5 c 128,-1,37
 294 111 294 111 299.5 102 c 128,-1,38
 305 93 305 93 310 86 c 0,39,40
 332 57 332 57 351.5 40 c 128,-1,41
 371 23 371 23 371 18 c 0,42,43
 371 15 371 15 366 14 c 0,44,45
 354 14 354 14 337.5 28 c 128,-1,46
 321 42 321 42 306 61.5 c 128,-1,47
 291 81 291 81 280.5 101.5 c 128,-1,48
 270 122 270 122 270 134 c 0,49,50
 270 139 270 139 274 139 c 0,34,35
331 395 m 1,51,52
 347 354 347 354 364 312 c 128,-1,53
 381 270 381 270 397.5 229.5 c 128,-1,54
 414 189 414 189 429.5 151 c 128,-1,55
 445 113 445 113 458 81 c 1,56,57
 445 74 445 74 427 74 c 0,58,59
 396 74 396 74 376 102 c 128,-1,60
 356 130 356 130 344.5 168.5 c 128,-1,61
 333 207 333 207 329 247 c 128,-1,62
 325 287 325 287 325 311 c 0,63,64
 325 327 325 327 326.5 349 c 128,-1,65
 328 371 328 371 331 395 c 1,51,52
275 161 m 256,66,67
 275 153 275 153 268 151 c 0,68,69
 265 151 265 151 260 154.5 c 128,-1,70
 255 158 255 158 255 166 c 0,71,72
 255 175 255 175 263 175 c 0,73,74
 266 175 266 175 270.5 172 c 128,-1,75
 275 169 275 169 275 161 c 256,66,67
426 536 m 0,76,77
 456 536 456 536 474.5 513.5 c 128,-1,78
 493 491 493 491 503.5 457.5 c 128,-1,79
 514 424 514 424 518 384 c 128,-1,80
 522 344 522 344 522 308 c 0,81,82
 522 282 522 282 521 254 c 128,-1,83
 520 226 520 226 516 198 c 1,84,85
 506 224 506 224 491 262.5 c 128,-1,86
 476 301 476 301 458.5 344.5 c 128,-1,87
 441 388 441 388 422.5 434.5 c 128,-1,88
 404 481 404 481 386 523 c 1,89,90
 404 536 404 536 426 536 c 0,76,77
EndSplineSet



EndChar

StartChar: R
Encoding: 82 82 52
Width: 840
GlyphClass: 2
Flags: W
LayerCount: 2
Fore
SplineSet
401.5 584 m 4,0,1
 361.5 584 361.5 584 333 612 c 132,-1,2
 304.5 640 304.5 640 304.5 684 c 4,3,4
 304.5 708 304.5 708 313 729.5 c 132,-1,5
 321.5 751 321.5 751 336.5 766.5 c 132,-1,6
 351.5 782 351.5 782 372.5 791.5 c 132,-1,7
 393.5 801 393.5 801 418.5 801 c 4,8,9
 438.5 801 438.5 801 455.5 792.5 c 132,-1,10
 472.5 784 472.5 784 484.5 769 c 132,-1,11
 496.5 754 496.5 754 503 735 c 132,-1,12
 509.5 716 509.5 716 509.5 695 c 4,13,14
 509.5 668 509.5 668 501 647.5 c 132,-1,15
 492.5 627 492.5 627 477.5 613 c 132,-1,16
 462.5 599 462.5 599 443 591.5 c 132,-1,17
 423.5 584 423.5 584 401.5 584 c 4,0,1
364.5 757 m 4,18,19
 371.5 764 371.5 764 373 769 c 132,-1,20
 374.5 774 374.5 774 372.5 774 c 4,21,22
 364.5 774 364.5 774 355.5 766.5 c 132,-1,23
 346.5 759 346.5 759 339 748.5 c 132,-1,24
 331.5 738 331.5 738 326.5 726 c 132,-1,25
 321.5 714 321.5 714 321.5 704 c 4,26,27
 321.5 702 321.5 702 323 696 c 132,-1,28
 324.5 690 324.5 690 327.5 690 c 4,29,30
 331.5 690 331.5 690 337.5 712 c 4,31,32
 340.5 726 340.5 726 348.5 737.5 c 132,-1,33
 356.5 749 356.5 749 364.5 757 c 4,18,19
405.5 641 m 4,34,35
 417.5 641 417.5 641 434 655 c 132,-1,36
 450.5 669 450.5 669 450.5 695 c 4,37,38
 450.5 715 450.5 715 440 728.5 c 132,-1,39
 429.5 742 429.5 742 412.5 742 c 260,40,41
 395.5 742 395.5 742 381.5 728.5 c 132,-1,42
 367.5 715 367.5 715 367.5 691 c 260,43,44
 367.5 667 367.5 667 378.5 654 c 132,-1,45
 389.5 641 389.5 641 405.5 641 c 4,34,35
345.5 0 m 0,46,47
 320.5 0 320.5 0 310.5 17 c 128,-1,48
 300.5 34 300.5 34 300.5 64 c 2,49,-1
 300.5 451 l 2,50,51
 300.5 505 300.5 505 311.5 525 c 128,-1,52
 322.5 545 322.5 545 348.5 545 c 0,53,54
 371.5 545 371.5 545 385 526.5 c 128,-1,55
 398.5 508 398.5 508 398.5 473 c 0,56,57
 398.5 462 398.5 462 398.5 456.5 c 128,-1,58
 398.5 451 398.5 451 401.5 451 c 0,59,60
 403.5 451 403.5 451 404 454 c 128,-1,61
 404.5 457 404.5 457 406.5 461 c 0,62,63
 409.5 468 409.5 468 415 482 c 128,-1,64
 420.5 496 420.5 496 431 510 c 128,-1,65
 441.5 524 441.5 524 457.5 534.5 c 128,-1,66
 473.5 545 473.5 545 495.5 545 c 0,67,68
 515.5 545 515.5 545 527.5 533 c 128,-1,69
 539.5 521 539.5 521 539.5 502 c 0,70,71
 539.5 482 539.5 482 531 464.5 c 128,-1,72
 522.5 447 522.5 447 502.5 447 c 256,73,74
 482.5 447 482.5 447 465 428.5 c 128,-1,75
 447.5 410 447.5 410 435 381.5 c 128,-1,76
 422.5 353 422.5 353 415 319 c 128,-1,77
 407.5 285 407.5 285 407.5 254 c 2,78,-1
 407.5 55 l 2,79,80
 407.5 25 407.5 25 387.5 12.5 c 128,-1,81
 367.5 0 367.5 0 345.5 0 c 0,46,47
327.5 503 m 256,82,83
 328.5 507 328.5 507 330 511.5 c 128,-1,84
 331.5 516 331.5 516 332.5 520 c 128,-1,85
 333.5 524 333.5 524 333 526.5 c 128,-1,86
 332.5 529 332.5 529 328.5 529 c 0,87,88
 323.5 529 323.5 529 318.5 518.5 c 128,-1,89
 313.5 508 313.5 508 313.5 497 c 0,90,91
 313.5 476 313.5 476 320.5 476 c 0,92,93
 325.5 476 325.5 476 326 487.5 c 128,-1,94
 326.5 499 326.5 499 327.5 503 c 256,82,83
327.5 50 m 0,95,96
 324.5 62 324.5 62 323 71.5 c 128,-1,97
 321.5 81 321.5 81 318.5 81 c 0,98,99
 313.5 81 313.5 81 313.5 64 c 0,100,101
 313.5 46 313.5 46 318.5 32 c 128,-1,102
 323.5 18 323.5 18 330.5 18 c 0,103,104
 332.5 18 332.5 18 335 19 c 128,-1,105
 337.5 20 337.5 20 337.5 25 c 0,106,107
 337.5 28 337.5 28 333.5 34 c 128,-1,108
 329.5 40 329.5 40 327.5 50 c 0,95,96
EndSplineSet


EndChar

StartChar: S
Encoding: 83 83 53
Width: 840
GlyphClass: 2
Flags: W
LayerCount: 2
Fore
SplineSet
430 622.5 m 4,0,1
 390 622.5 390 622.5 361.5 650.5 c 132,-1,2
 333 678.5 333 678.5 333 722.5 c 4,3,4
 333 746.5 333 746.5 341.5 768 c 132,-1,5
 350 789.5 350 789.5 365 805 c 132,-1,6
 380 820.5 380 820.5 401 830 c 132,-1,7
 422 839.5 422 839.5 447 839.5 c 4,8,9
 467 839.5 467 839.5 484 831 c 132,-1,10
 501 822.5 501 822.5 513 807.5 c 132,-1,11
 525 792.5 525 792.5 531.5 773.5 c 132,-1,12
 538 754.5 538 754.5 538 733.5 c 4,13,14
 538 706.5 538 706.5 529.5 686 c 132,-1,15
 521 665.5 521 665.5 506 651.5 c 132,-1,16
 491 637.5 491 637.5 471.5 630 c 132,-1,17
 452 622.5 452 622.5 430 622.5 c 4,0,1
393 795.5 m 4,18,19
 400 802.5 400 802.5 401.5 807.5 c 132,-1,20
 403 812.5 403 812.5 401 812.5 c 4,21,22
 393 812.5 393 812.5 384 805 c 132,-1,23
 375 797.5 375 797.5 367.5 787 c 132,-1,24
 360 776.5 360 776.5 355 764.5 c 132,-1,25
 350 752.5 350 752.5 350 742.5 c 4,26,27
 350 740.5 350 740.5 351.5 734.5 c 132,-1,28
 353 728.5 353 728.5 356 728.5 c 4,29,30
 360 728.5 360 728.5 366 750.5 c 4,31,32
 369 764.5 369 764.5 377 776 c 132,-1,33
 385 787.5 385 787.5 393 795.5 c 4,18,19
434 679.5 m 4,34,35
 446 679.5 446 679.5 462.5 693.5 c 132,-1,36
 479 707.5 479 707.5 479 733.5 c 4,37,38
 479 753.5 479 753.5 468.5 767 c 132,-1,39
 458 780.5 458 780.5 441 780.5 c 260,40,41
 424 780.5 424 780.5 410 767 c 132,-1,42
 396 753.5 396 753.5 396 729.5 c 260,43,44
 396 705.5 396 705.5 407 692.5 c 132,-1,45
 418 679.5 418 679.5 434 679.5 c 4,34,35
423 -46 m 4,46,47
 392 -46 392 -46 361 -32.5 c 132,-1,48
 330 -19 330 -19 305.5 6 c 132,-1,49
 281 31 281 31 266 68 c 132,-1,50
 251 105 251 105 251 151 c 4,51,52
 251 182 251 182 269 202 c 132,-1,53
 287 222 287 222 314 220 c 4,54,55
 331 219 331 219 338.5 207.5 c 132,-1,56
 346 196 346 196 346 170 c 4,57,58
 346 152 346 152 350.5 129 c 132,-1,59
 355 106 355 106 364 86 c 132,-1,60
 373 66 373 66 385.5 52.5 c 132,-1,61
 398 39 398 39 413 39 c 4,62,63
 477 39 477 39 477 104 c 4,64,65
 477 125 477 125 470.5 143 c 132,-1,66
 464 161 464 161 453.5 176 c 132,-1,67
 443 191 443 191 430 205 c 132,-1,68
 417 219 417 219 403 232 c 4,69,70
 331 304 331 304 300.5 352 c 132,-1,71
 270 400 270 400 270 440 c 4,72,73
 270 509 270 509 312.5 548 c 132,-1,74
 355 587 355 587 429 587 c 4,75,76
 463 587 463 587 491 572 c 132,-1,77
 519 557 519 557 539.5 533 c 132,-1,78
 560 509 560 509 571 479.5 c 132,-1,79
 582 450 582 450 582 422 c 4,80,81
 582 392 582 392 564.5 367.5 c 132,-1,82
 547 343 547 343 521 343 c 4,83,84
 509 343 509 343 495 353 c 132,-1,85
 481 363 481 363 481 380 c 4,86,87
 481 439 481 439 464 466.5 c 132,-1,88
 447 494 447 494 425 494 c 4,89,90
 383 494 383 494 383 446 c 4,91,92
 383 431 383 431 387 416.5 c 132,-1,93
 391 402 391 402 401.5 385 c 132,-1,94
 412 368 412 368 429.5 347.5 c 132,-1,95
 447 327 447 327 474 300 c 4,96,97
 507 267 507 267 529 241 c 132,-1,98
 551 215 551 215 564.5 193 c 132,-1,99
 578 171 578 171 583.5 152 c 132,-1,100
 589 133 589 133 589 114 c 4,101,102
 589 79 589 79 576.5 49.5 c 132,-1,103
 564 20 564 20 542 -1 c 132,-1,104
 520 -22 520 -22 489.5 -34 c 132,-1,105
 459 -46 459 -46 423 -46 c 4,46,47
328 506 m 4,106,107
 332 513 332 513 339 522.5 c 132,-1,108
 346 532 346 532 354 538 c 4,109,110
 362 543 362 543 364.5 549.5 c 132,-1,111
 367 556 367 556 364 556 c 4,112,113
 358 557 358 557 348 549.5 c 132,-1,114
 338 542 338 542 329 531 c 132,-1,115
 320 520 320 520 313 508 c 132,-1,116
 306 496 306 496 305 487 c 4,117,118
 305 481 305 481 311 481 c 4,119,120
 316 480 316 480 319 488 c 132,-1,121
 322 496 322 496 328 506 c 4,106,107
312 461 m 4,122,123
 312 468 312 468 306 468 c 4,124,125
 303 468 303 468 300.5 465 c 132,-1,126
 298 462 298 462 298 460 c 4,127,128
 298 455 298 455 305 454 c 4,129,130
 310 454 310 454 312 461 c 4,122,123
288 153 m 260,131,132
 293 167 293 167 298.5 176 c 132,-1,133
 304 185 304 185 305 193 c 4,134,135
 305 198 305 198 302 198 c 4,136,137
 294 199 294 199 287 192.5 c 132,-1,138
 280 186 280 186 275.5 176 c 132,-1,139
 271 166 271 166 270 153.5 c 132,-1,140
 269 141 269 141 273 129 c 4,141,142
 277 119 277 119 281 119 c 4,143,144
 286 119 286 119 284.5 129 c 132,-1,145
 283 139 283 139 288 153 c 260,131,132
EndSplineSet


EndChar

StartChar: T
Encoding: 84 84 54
Width: 840
GlyphClass: 2
Flags: W
LayerCount: 2
Fore
SplineSet
411.5 0 m 0,0,1
 403.5 0 403.5 0 394.5 3 c 128,-1,2
 385.5 6 385.5 6 377.5 11 c 128,-1,3
 369.5 16 369.5 16 364 23.5 c 128,-1,4
 358.5 31 358.5 31 358.5 40 c 2,5,-1
 358.5 525 l 1,6,7
 346.5 525 346.5 525 306.5 525 c 128,-1,8
 266.5 525 266.5 525 250 529 c 128,-1,9
 233.5 533 233.5 533 222 542.5 c 128,-1,10
 210.5 552 210.5 552 210.5 570 c 0,11,12
 210.5 592 210.5 592 224.5 604 c 128,-1,13
 238.5 616 238.5 616 259.5 616 c 2,14,-1
 596.5 616 l 2,15,16
 612.5 616 612.5 616 621 602 c 128,-1,17
 629.5 588 629.5 588 629.5 574 c 0,18,19
 629.5 556 629.5 556 621 546.5 c 128,-1,20
 612.5 537 612.5 537 599.5 532 c 128,-1,21
 586.5 527 586.5 527 539.5 526 c 128,-1,22
 492.5 525 492.5 525 479.5 525 c 2,23,-1
 471.5 525 l 1,24,-1
 471.5 47 l 2,25,26
 471.5 24 471.5 24 451.5 12 c 128,-1,27
 431.5 0 431.5 0 411.5 0 c 0,0,1
233.5 553 m 256,28,29
 238.5 553 238.5 553 238.5 560 c 0,30,31
 238.5 568 238.5 568 241.5 578.5 c 128,-1,32
 244.5 589 244.5 589 250.5 598 c 0,33,34
 253.5 603 253.5 603 245.5 603 c 0,35,36
 236.5 603 236.5 603 230.5 591.5 c 128,-1,37
 224.5 580 224.5 580 224.5 569 c 0,38,39
 224.5 565 224.5 565 226.5 559 c 128,-1,40
 228.5 553 228.5 553 233.5 553 c 256,28,29
392.5 23 m 0,41,42
 401.5 23 401.5 23 401.5 32 c 0,43,44
 401.5 36 401.5 36 397.5 37 c 0,45,46
 391.5 39 391.5 39 389 49.5 c 128,-1,47
 386.5 60 386.5 60 386.5 65 c 0,48,49
 386.5 67 386.5 67 387 73 c 128,-1,50
 387.5 79 387.5 79 387.5 85 c 128,-1,51
 387.5 91 387.5 91 386.5 95.5 c 128,-1,52
 385.5 100 385.5 100 381.5 100 c 256,53,54
 377.5 100 377.5 100 375.5 96 c 128,-1,55
 373.5 92 373.5 92 372.5 86.5 c 128,-1,56
 371.5 81 371.5 81 371 75.5 c 128,-1,57
 370.5 70 370.5 70 370.5 68 c 0,58,59
 370.5 64 370.5 64 371.5 56 c 128,-1,60
 372.5 48 372.5 48 375 41 c 128,-1,61
 377.5 34 377.5 34 382 28.5 c 128,-1,62
 386.5 23 386.5 23 392.5 23 c 0,41,42
EndSplineSet



EndChar

StartChar: U
Encoding: 85 85 55
Width: 840
GlyphClass: 2
Flags: W
LayerCount: 2
Fore
SplineSet
417.5 -4 m 0,0,1
 372.5 -4 372.5 -4 336 12.5 c 128,-1,2
 299.5 29 299.5 29 274.5 58.5 c 128,-1,3
 249.5 88 249.5 88 236 129.5 c 128,-1,4
 222.5 171 222.5 171 222.5 221 c 2,5,-1
 222.5 530 l 2,6,7
 222.5 540 222.5 540 224.5 555 c 128,-1,8
 226.5 570 226.5 570 232.5 583.5 c 128,-1,9
 238.5 597 238.5 597 249 606.5 c 128,-1,10
 259.5 616 259.5 616 275.5 616 c 0,11,12
 308.5 616 308.5 616 322.5 599 c 128,-1,13
 336.5 582 336.5 582 336.5 528 c 2,14,-1
 336.5 228 l 2,15,16
 336.5 204 336.5 204 336.5 179.5 c 128,-1,17
 336.5 155 336.5 155 344 135.5 c 128,-1,18
 351.5 116 351.5 116 369 103.5 c 128,-1,19
 386.5 91 386.5 91 421.5 91 c 0,20,21
 454.5 91 454.5 91 471.5 110 c 128,-1,22
 488.5 129 488.5 129 496 157.5 c 128,-1,23
 503.5 186 503.5 186 504 220 c 128,-1,24
 504.5 254 504.5 254 504.5 284 c 2,25,-1
 504.5 531 l 2,26,27
 504.5 541 504.5 541 506.5 556 c 128,-1,28
 508.5 571 508.5 571 514 584.5 c 128,-1,29
 519.5 598 519.5 598 529 608 c 128,-1,30
 538.5 618 538.5 618 554.5 618 c 0,31,32
 585.5 618 585.5 618 601.5 597.5 c 128,-1,33
 617.5 577 617.5 577 617.5 532 c 2,34,-1
 617.5 246 l 2,35,36
 617.5 189 617.5 189 605 143 c 128,-1,37
 592.5 97 592.5 97 567 64.5 c 128,-1,38
 541.5 32 541.5 32 504.5 14 c 128,-1,39
 467.5 -4 467.5 -4 417.5 -4 c 0,0,1
532.5 556 m 0,40,41
 532.5 560 532.5 560 535.5 568 c 128,-1,42
 538.5 576 538.5 576 545.5 584 c 0,43,44
 553.5 595 553.5 595 554 599 c 128,-1,45
 554.5 603 554.5 603 545.5 603 c 0,46,47
 540.5 603 540.5 603 536 598 c 128,-1,48
 531.5 593 531.5 593 528.5 588 c 0,49,50
 526.5 583 526.5 583 523 575 c 128,-1,51
 519.5 567 519.5 567 518.5 558 c 0,52,53
 518.5 553 518.5 553 519.5 548.5 c 128,-1,54
 520.5 544 520.5 544 525.5 544 c 256,55,56
 530.5 544 530.5 544 531.5 547.5 c 128,-1,57
 532.5 551 532.5 551 532.5 556 c 0,40,41
264.5 570 m 0,58,59
 268.5 579 268.5 579 274 585 c 128,-1,60
 279.5 591 279.5 591 279.5 598 c 0,61,62
 279.5 603 279.5 603 276.5 603 c 256,63,64
 273.5 603 273.5 603 267.5 600.5 c 128,-1,65
 261.5 598 261.5 598 256.5 590 c 0,66,67
 241.5 569 241.5 569 239.5 552 c 128,-1,68
 237.5 535 237.5 535 243.5 535 c 0,69,70
 248.5 535 248.5 535 254 545.5 c 128,-1,71
 259.5 556 259.5 556 264.5 570 c 0,58,59
333.5 48 m 0,72,73
 333.5 51 333.5 51 326 57 c 128,-1,74
 318.5 63 318.5 63 310.5 72 c 0,75,76
 302.5 80 302.5 80 292 93.5 c 128,-1,77
 281.5 107 281.5 107 274.5 122 c 0,78,79
 269.5 132 269.5 132 265 136 c 128,-1,80
 260.5 140 260.5 140 258.5 140 c 0,81,82
 254.5 140 254.5 140 254.5 133 c 0,83,84
 254.5 125 254.5 125 262.5 109.5 c 128,-1,85
 270.5 94 270.5 94 281.5 79 c 128,-1,86
 292.5 64 292.5 64 305 53 c 128,-1,87
 317.5 42 317.5 42 327.5 42 c 0,88,89
 333.5 42 333.5 42 333.5 48 c 0,72,73
356.5 39 m 0,90,91
 356.5 40 356.5 40 354 43 c 128,-1,92
 351.5 46 351.5 46 348.5 46 c 0,93,94
 343.5 45 343.5 45 341.5 42 c 128,-1,95
 339.5 39 339.5 39 339.5 37 c 0,96,97
 340.5 34 340.5 34 341.5 31.5 c 128,-1,98
 342.5 29 342.5 29 347.5 30 c 0,99,100
 356.5 30 356.5 30 356.5 39 c 0,90,91
EndSplineSet


EndChar

StartChar: V
Encoding: 86 86 56
Width: 840
GlyphClass: 2
Flags: W
LayerCount: 2
Fore
SplineSet
458.5 103 m 1,0,-1
 387.5 103 l 1,1,-1
 387.5 783 l 1,2,-1
 458.5 783 l 1,3,-1
 458.5 103 l 1,0,-1
375.5 0 m 1,4,-1
 149.5 545 l 1,5,-1
 149.5 599 l 1,6,-1
 690.5 599 l 1,7,-1
 690.5 544 l 1,8,-1
 465.5 0 l 1,9,-1
 375.5 0 l 1,4,-1
421.5 98 m 1,10,-1
 594.5 520 l 1,11,-1
 248.5 520 l 1,12,-1
 421.5 98 l 1,10,-1
EndSplineSet



EndChar

StartChar: W
Encoding: 87 87 57
Width: 840
GlyphClass: 2
Flags: W
LayerCount: 2
Fore
SplineSet
722.017578125 609.5 m 0,0,1
 721.517578125 578 721.517578125 578 701.017578125 568.5 c 0,2,3
 679.517578125 558 679.517578125 558 656.017578125 557.5 c 0,4,5
 620.517578125 557 620.517578125 557 411.017578125 556 c 128,-1,6
 201.517578125 555 201.517578125 555 171.017578125 555.5 c 4,7,8
 149.517578125 556 149.517578125 556 133.517578125 566 c 4,9,10
 118.517578125 575 118.517578125 575 118.017578125 599.5 c 4,11,12
 117.517578125 614 117.517578125 614 124.017578125 622 c 4,13,14
 129.517578125 630 129.517578125 630 139.017578125 635.5 c 4,15,16
 147.517578125 640 147.517578125 640 159.517578125 642.5 c 4,17,18
 171.517578125 644 171.517578125 644 182.017578125 644.5 c 4,19,20
 213.517578125 645 213.517578125 645 427.517578125 646 c 128,-1,21
 641.517578125 647 641.517578125 647 676.017578125 646.5 c 0,22,23
 693.517578125 646 693.517578125 646 707.517578125 639 c 128,-1,24
 721.517578125 632 721.517578125 632 722.017578125 609.5 c 0,0,1
136.017578125 580.5 m 4,25,26
 140.517578125 580 140.517578125 580 144.517578125 586 c 132,-1,27
 148.517578125 592 148.517578125 592 152.517578125 598 c 132,-1,28
 156.517578125 604 156.517578125 604 158.517578125 611 c 132,-1,29
 160.517578125 618 160.517578125 618 161.017578125 619.5 c 4,30,31
 160.517578125 624 160.517578125 624 160.517578125 627 c 132,-1,32
 160.517578125 630 160.517578125 630 155.017578125 630.5 c 4,33,34
 142.517578125 630 142.517578125 630 135.517578125 617 c 4,35,36
 129.517578125 607 129.517578125 607 129.017578125 593.5 c 4,37,38
 128.517578125 586 128.517578125 586 131.517578125 583 c 132,-1,39
 134.517578125 580 134.517578125 580 136.017578125 580.5 c 4,25,26
521.517578125 0 m 0,40,41
 498.517578125 0 498.517578125 0 482.017578125 6 c 128,-1,42
 465.517578125 12 465.517578125 12 454.017578125 23.5 c 128,-1,43
 442.517578125 35 442.517578125 35 434.517578125 51 c 0,44,45
 422.517578125 75 422.517578125 75 419.517578125 87 c 0,46,47
 418.517578125 91 418.517578125 91 417.517578125 97 c 128,-1,48
 416.517578125 103 416.517578125 103 415.017578125 109 c 128,-1,49
 413.517578125 115 413.517578125 115 412.017578125 119 c 128,-1,50
 410.517578125 123 410.517578125 123 408.517578125 123 c 256,51,52
 406.517578125 123 406.517578125 123 404.517578125 115.5 c 128,-1,53
 402.517578125 108 402.517578125 108 398.517578125 97 c 0,54,55
 388.517578125 71 388.517578125 71 379.517578125 52.5 c 128,-1,56
 370.517578125 34 370.517578125 34 359.017578125 22.5 c 128,-1,57
 347.517578125 11 347.517578125 11 333.517578125 5.5 c 128,-1,58
 319.517578125 0 319.517578125 0 299.517578125 0 c 0,59,60
 259.517578125 0 259.517578125 0 230.017578125 13.5 c 128,-1,61
 200.517578125 27 200.517578125 27 181.517578125 51.5 c 128,-1,62
 162.517578125 76 162.517578125 76 153.517578125 109.5 c 128,-1,63
 144.517578125 143 144.517578125 143 144.517578125 183 c 2,64,-1
 144.517578125 462 l 2,65,66
 144.517578125 472 144.517578125 472 147.517578125 485.5 c 128,-1,67
 150.517578125 499 150.517578125 499 157.517578125 511 c 128,-1,68
 164.517578125 523 164.517578125 523 176.017578125 531.5 c 128,-1,69
 187.517578125 540 187.517578125 540 205.517578125 540 c 0,70,71
 234.517578125 540 234.517578125 540 245.517578125 519.5 c 0,72,73
 256.400390625 499.21875 256.400390625 499.21875 256.517578125 467 c 2,74,-1
 257.517578125 193 l 2,75,76
 257.517578125 183 257.517578125 183 259.517578125 166.5 c 128,-1,77
 261.517578125 150 261.517578125 150 266.017578125 134 c 128,-1,78
 270.517578125 118 270.517578125 118 279.517578125 106.5 c 128,-1,79
 288.517578125 95 288.517578125 95 301.517578125 95 c 0,80,81
 324.517578125 95 324.517578125 95 338.017578125 129 c 128,-1,82
 351.517578125 163 351.517578125 163 358.517578125 219 c 128,-1,83
 365.517578125 275 365.517578125 275 367.017578125 308.5 c 128,-1,84
 368.517578125 342 368.517578125 342 368.517578125 418 c 0,85,86
 368.517578125 482 368.517578125 482 378.517578125 506.5 c 128,-1,87
 388.517578125 531 388.517578125 531 418.517578125 531 c 0,88,89
 432.517578125 531 432.517578125 531 441.517578125 526 c 128,-1,90
 450.517578125 521 450.517578125 521 456.517578125 505 c 128,-1,91
 462.517578125 489 462.517578125 489 465.017578125 459 c 128,-1,92
 467.517578125 429 467.517578125 429 467.517578125 379 c 0,93,94
 467.517578125 300 467.517578125 300 467.517578125 285.5 c 128,-1,95
 467.517578125 271 467.517578125 271 469.017578125 236.5 c 128,-1,96
 470.517578125 202 470.517578125 202 473.017578125 181.5 c 128,-1,97
 475.517578125 161 475.517578125 161 480.517578125 146 c 0,98,99
 489.517578125 117 489.517578125 117 499.517578125 105.5 c 128,-1,100
 509.517578125 94 509.517578125 94 522.517578125 94 c 0,101,102
 581.517578125 94 581.517578125 94 581.517578125 239 c 2,103,-1
 581.517578125 479 l 2,104,105
 581.517578125 490 581.517578125 490 583.517578125 501 c 128,-1,106
 585.517578125 512 585.517578125 512 591.017578125 520.5 c 128,-1,107
 596.517578125 529 596.517578125 529 606.517578125 534.5 c 128,-1,108
 616.517578125 540 616.517578125 540 631.517578125 540 c 0,109,110
 663.517578125 540 663.517578125 540 678.017578125 522.5 c 128,-1,111
 692.517578125 505 692.517578125 505 692.517578125 479 c 2,112,-1
 692.517578125 220 l 2,113,114
 692.517578125 178 692.517578125 178 681.017578125 138.5 c 128,-1,115
 669.517578125 99 669.517578125 99 648.017578125 68 c 128,-1,116
 626.517578125 37 626.517578125 37 594.517578125 18.5 c 128,-1,117
 562.517578125 0 562.517578125 0 521.517578125 0 c 0,40,41
169.517578125 455 m 0,118,119
 176.517578125 455 176.517578125 455 179.017578125 462 c 128,-1,120
 181.517578125 469 181.517578125 469 182.517578125 474 c 0,121,122
 184.517578125 488 184.517578125 488 193.517578125 497.5 c 0,123,124
 208.517578125 513 208.517578125 513 208.517578125 519 c 0,125,126
 208.517578125 521 208.517578125 521 206.517578125 524 c 128,-1,127
 204.517578125 527 204.517578125 527 201.517578125 527 c 0,128,129
 195.517578125 527 195.517578125 527 188.517578125 520.5 c 128,-1,130
 181.517578125 514 181.517578125 514 175.517578125 505 c 128,-1,131
 169.517578125 496 169.517578125 496 166.017578125 485.5 c 128,-1,132
 162.517578125 475 162.517578125 475 162.517578125 467 c 0,133,134
 162.517578125 463 162.517578125 463 163.517578125 459 c 128,-1,135
 164.517578125 455 164.517578125 455 169.517578125 455 c 0,118,119
614.517578125 473 m 0,136,137
 614.517578125 483 614.517578125 483 617.517578125 491 c 128,-1,138
 620.517578125 499 620.517578125 499 624.517578125 506 c 0,139,140
 629.517578125 514 629.517578125 514 628.517578125 519 c 128,-1,141
 627.517578125 524 627.517578125 524 624.517578125 524 c 0,142,143
 619.517578125 524 619.517578125 524 613.017578125 520.5 c 128,-1,144
 606.517578125 517 606.517578125 517 602.517578125 507 c 0,145,146
 597.517578125 491 597.517578125 491 599.017578125 476 c 128,-1,147
 600.517578125 461 600.517578125 461 608.517578125 461 c 0,148,149
 610.517578125 461 610.517578125 461 612.517578125 464.5 c 128,-1,150
 614.517578125 468 614.517578125 468 614.517578125 473 c 0,136,137
395.517578125 467 m 0,151,152
 395.517578125 468 395.517578125 468 397.517578125 477.5 c 128,-1,153
 399.517578125 487 399.517578125 487 402.517578125 493 c 0,154,155
 409.517578125 506 409.517578125 506 411.517578125 511 c 128,-1,156
 413.517578125 516 413.517578125 516 410.517578125 516 c 0,157,158
 408.517578125 516 408.517578125 516 403.017578125 514 c 128,-1,159
 397.517578125 512 397.517578125 512 392.517578125 505 c 0,160,161
 381.517578125 490 381.517578125 490 382.017578125 473 c 128,-1,162
 382.517578125 456 382.517578125 456 390.517578125 456 c 0,163,164
 395.517578125 456 395.517578125 456 395.517578125 467 c 0,151,152
246.517578125 37 m 0,165,166
 245.517578125 42 245.517578125 42 232.517578125 51 c 128,-1,167
 219.517578125 60 219.517578125 60 213.517578125 67 c 0,168,169
 202.517578125 78 202.517578125 78 198.017578125 89 c 128,-1,170
 193.517578125 100 193.517578125 100 188.517578125 99 c 0,171,172
 184.517578125 99 184.517578125 99 185.017578125 92 c 128,-1,173
 185.517578125 85 185.517578125 85 190.017578125 75 c 128,-1,174
 194.517578125 65 194.517578125 65 203.517578125 54 c 128,-1,175
 212.517578125 43 212.517578125 43 225.517578125 34 c 0,176,177
 234.517578125 27 234.517578125 27 241.517578125 29 c 0,178,179
 246.517578125 29 246.517578125 29 246.517578125 37 c 0,165,166
512.517578125 22 m 0,180,181
 512.517578125 26 512.517578125 26 509.017578125 27 c 128,-1,182
 505.517578125 28 505.517578125 28 502.517578125 28 c 0,183,184
 497.517578125 29 497.517578125 29 487.517578125 38 c 128,-1,185
 477.517578125 47 477.517578125 47 471.517578125 57 c 0,186,187
 461.517578125 72 461.517578125 72 453.517578125 74 c 0,188,189
 450.517578125 74 450.517578125 74 450.517578125 69 c 0,190,191
 450.517578125 67 450.517578125 67 454.017578125 59 c 128,-1,192
 457.517578125 51 457.517578125 51 464.517578125 42 c 128,-1,193
 471.517578125 33 471.517578125 33 481.017578125 25.5 c 128,-1,194
 490.517578125 18 490.517578125 18 501.517578125 17 c 0,195,196
 505.517578125 17 505.517578125 17 508.517578125 17 c 128,-1,197
 511.517578125 17 511.517578125 17 512.517578125 22 c 0,180,181
EndSplineSet



EndChar

StartChar: X
Encoding: 88 88 58
Width: 840
GlyphClass: 2
Flags: W
LayerCount: 2
Fore
SplineSet
506.534179688 174.834960938 m 0,0,1
 516.138671875 166.602539062 516.138671875 166.602539062 529.790039062 152.40234375 c 128,-1,2
 543.44140625 138.202148438 543.44140625 138.202148438 556.081054688 125.494140625 c 128,-1,3
 568.720703125 112.786132812 568.720703125 112.786132812 578.975585938 104.829101562 c 128,-1,4
 589.231445312 96.87109375 589.231445312 96.87109375 592.043945312 101.124023438 c 0,5,6
 593.725585938 102.598632812 593.725585938 102.598632812 595.611328125 107.229492188 c 128,-1,7
 597.498046875 111.860351562 597.498046875 111.860351562 594 116.524414062 c 0,8,9
 591.049804688 119.885742188 591.049804688 119.885742188 581 131 c 128,-1,10
 570.950195312 142.112304688 570.950195312 142.112304688 559.047851562 153.98046875 c 128,-1,11
 547.146484375 165.84765625 547.146484375 165.84765625 535.604492188 175.94921875 c 128,-1,12
 524.061523438 186.05078125 524.061523438 186.05078125 518.505859375 188.313476562 c 0,13,14
 512.0234375 190.955078125 512.0234375 190.955078125 507.340820312 184.764648438 c 128,-1,15
 502.659179688 178.573242188 502.659179688 178.573242188 506.534179688 174.834960938 c 0,0,1
249.453125 485.340820312 m 0,16,17
 259.057617188 477.108398438 259.057617188 477.108398438 272.708984375 462.908203125 c 128,-1,18
 286.360351562 448.708007812 286.360351562 448.708007812 299 436 c 128,-1,19
 311.639648438 423.291992188 311.639648438 423.291992188 321.89453125 415.334960938 c 128,-1,20
 332.150390625 407.376953125 332.150390625 407.376953125 334.962890625 411.629882812 c 0,21,22
 336.64453125 413.104492188 336.64453125 413.104492188 338.530273438 417.735351562 c 128,-1,23
 340.416992188 422.366210938 340.416992188 422.366210938 336.918945312 427.030273438 c 0,24,25
 333.96875 430.391601562 333.96875 430.391601562 323.918945312 441.505859375 c 128,-1,26
 313.869140625 452.618164062 313.869140625 452.618164062 301.966796875 464.486328125 c 128,-1,27
 290.065429688 476.353515625 290.065429688 476.353515625 278.5234375 486.455078125 c 128,-1,28
 266.98046875 496.556640625 266.98046875 496.556640625 261.424804688 498.819335938 c 0,29,30
 254.942382812 501.4609375 254.942382812 501.4609375 250.259765625 495.270507812 c 128,-1,31
 245.578125 489.079101562 245.578125 489.079101562 249.453125 485.340820312 c 0,16,17
512.004882812 411.383789062 m 0,32,33
 520.94921875 420.328125 520.94921875 420.328125 536.154296875 432.850585938 c 128,-1,34
 551.360351562 445.372070312 551.360351562 445.372070312 565 457 c 128,-1,35
 578.639648438 468.627929688 578.639648438 468.627929688 587.360351562 478.2421875 c 128,-1,36
 596.081054688 487.857421875 596.081054688 487.857421875 592.056640625 490.98828125 c 0,37,38
 590.71484375 492.77734375 590.71484375 492.77734375 586.2421875 495.012695312 c 128,-1,39
 581.770507812 497.249023438 581.770507812 497.249023438 576.8515625 494.119140625 c 0,40,41
 573.2734375 491.435546875 573.2734375 491.435546875 561.421875 482.267578125 c 128,-1,42
 549.571289062 473.099609375 549.571289062 473.099609375 536.825195312 462.142578125 c 128,-1,43
 524.080078125 451.186523438 524.080078125 451.186523438 513.123046875 440.453125 c 128,-1,44
 502.166015625 429.719726562 502.166015625 429.719726562 499.483398438 424.353515625 c 0,45,46
 496.352539062 418.092773438 496.352539062 418.092773438 502.166015625 412.94921875 c 128,-1,47
 507.98046875 407.806640625 507.98046875 407.806640625 512.004882812 411.383789062 c 0,32,33
238.004882812 123.383789062 m 0,48,49
 246.94921875 132.328125 246.94921875 132.328125 262.154296875 144.850585938 c 128,-1,50
 277.360351562 157.372070312 277.360351562 157.372070312 291 169 c 128,-1,51
 304.639648438 180.627929688 304.639648438 180.627929688 313.360351562 190.2421875 c 128,-1,52
 322.081054688 199.857421875 322.081054688 199.857421875 318.056640625 202.98828125 c 0,53,54
 316.71484375 204.77734375 316.71484375 204.77734375 312.2421875 207.012695312 c 128,-1,55
 307.770507812 209.249023438 307.770507812 209.249023438 302.8515625 206.119140625 c 0,56,57
 299.2734375 203.435546875 299.2734375 203.435546875 287.421875 194.267578125 c 128,-1,58
 275.571289062 185.099609375 275.571289062 185.099609375 262.825195312 174.142578125 c 128,-1,59
 250.080078125 163.186523438 250.080078125 163.186523438 239.123046875 152.453125 c 128,-1,60
 228.166015625 141.719726562 228.166015625 141.719726562 225.483398438 136.353515625 c 0,61,62
 222.352539062 130.092773438 222.352539062 130.092773438 228.166015625 124.94921875 c 128,-1,63
 233.98046875 119.806640625 233.98046875 119.806640625 238.004882812 123.383789062 c 0,48,49
238.004882812 123.383789062 m 0,64,65
 246.94921875 132.328125 246.94921875 132.328125 262.154296875 144.850585938 c 128,-1,66
 277.360351562 157.372070312 277.360351562 157.372070312 291 169 c 128,-1,67
 304.639648438 180.627929688 304.639648438 180.627929688 313.360351562 190.2421875 c 128,-1,68
 322.081054688 199.857421875 322.081054688 199.857421875 318.056640625 202.98828125 c 0,69,70
 316.71484375 204.77734375 316.71484375 204.77734375 312.2421875 207.012695312 c 128,-1,71
 307.770507812 209.249023438 307.770507812 209.249023438 302.8515625 206.119140625 c 0,72,73
 299.2734375 203.435546875 299.2734375 203.435546875 287.421875 194.267578125 c 128,-1,74
 275.571289062 185.099609375 275.571289062 185.099609375 262.825195312 174.142578125 c 128,-1,75
 250.080078125 163.186523438 250.080078125 163.186523438 239.123046875 152.453125 c 128,-1,76
 228.166015625 141.719726562 228.166015625 141.719726562 225.483398438 136.353515625 c 0,77,78
 222.352539062 130.092773438 222.352539062 130.092773438 228.166015625 124.94921875 c 128,-1,79
 233.98046875 119.806640625 233.98046875 119.806640625 238.004882812 123.383789062 c 0,64,65
259 71 m 1,80,-1
 190 140 l 1,81,-1
 351 301 l 1,82,-1
 190 462 l 1,83,-1
 259 531 l 1,84,-1
 420 370 l 1,85,-1
 581 531 l 1,86,-1
 650 462 l 1,87,-1
 489 301 l 1,88,-1
 650 140 l 1,89,-1
 581 71 l 1,90,-1
 420 232 l 1,91,-1
 259 71 l 1,80,-1
EndSplineSet


EndChar

StartChar: Y
Encoding: 89 89 59
Width: 840
GlyphClass: 2
Flags: W
LayerCount: 2
Fore
SplineSet
420.36328125 0 m 0,0,1
 394.36328125 0 394.36328125 0 380.86328125 16.5 c 128,-1,2
 367.36328125 33 367.36328125 33 367.36328125 52 c 2,3,-1
 367.36328125 191 l 2,4,5
 367.36328125 204 367.36328125 204 365.86328125 214.5 c 128,-1,6
 364.36328125 225 364.36328125 225 360.86328125 236 c 128,-1,7
 357.36328125 247 357.36328125 247 351.36328125 260.5 c 128,-1,8
 345.36328125 274 345.36328125 274 336.36328125 294 c 2,9,-1
 217.36328125 556 l 2,10,11
 214.36328125 563 214.36328125 563 216.86328125 573.5 c 128,-1,12
 219.36328125 584 219.36328125 584 226.86328125 593.5 c 128,-1,13
 234.36328125 603 234.36328125 603 246.36328125 609.5 c 128,-1,14
 258.36328125 616 258.36328125 616 274.36328125 616 c 0,15,16
 283.36328125 616 283.36328125 616 291.86328125 611.5 c 128,-1,17
 300.36328125 607 300.36328125 607 305.36328125 595 c 2,18,-1
 398.36328125 377 l 2,19,20
 403.36328125 366 403.36328125 366 409.86328125 354 c 128,-1,21
 416.36328125 342 416.36328125 342 422.36328125 342 c 256,22,23
 428.36328125 342 428.36328125 342 434.36328125 351.5 c 128,-1,24
 440.36328125 361 440.36328125 361 447.36328125 377 c 2,25,-1
 547.36328125 600 l 2,26,27
 552.36328125 611 552.36328125 611 562.36328125 613.5 c 128,-1,28
 572.36328125 616 572.36328125 616 579.36328125 616 c 0,29,30
 592.36328125 616 592.36328125 616 601.86328125 609 c 128,-1,31
 611.36328125 602 611.36328125 602 616.86328125 592 c 128,-1,32
 622.36328125 582 622.36328125 582 623.86328125 571 c 128,-1,33
 625.36328125 560 625.36328125 560 621.36328125 552 c 2,34,-1
 496.36328125 281 l 2,35,36
 489.36328125 266 489.36328125 266 485.36328125 255.5 c 128,-1,37
 481.36328125 245 481.36328125 245 479.86328125 234 c 128,-1,38
 478.36328125 223 478.36328125 223 477.86328125 209.5 c 128,-1,39
 477.36328125 196 477.36328125 196 477.36328125 174 c 2,40,-1
 477.36328125 52 l 2,41,42
 477.36328125 37 477.36328125 37 471.86328125 27 c 128,-1,43
 466.36328125 17 466.36328125 17 457.86328125 11 c 128,-1,44
 449.36328125 5 449.36328125 5 439.36328125 2.5 c 128,-1,45
 429.36328125 0 429.36328125 0 420.36328125 0 c 0,0,1
248.36328125 551 m 0,46,47
 246.36328125 559 246.36328125 559 246.86328125 564.5 c 128,-1,48
 247.36328125 570 247.36328125 570 246.36328125 575 c 256,49,50
 245.36328125 580 245.36328125 580 243.36328125 584 c 128,-1,51
 241.36328125 588 241.36328125 588 239.36328125 587 c 0,52,53
 228.36328125 582 228.36328125 582 229.86328125 568 c 128,-1,54
 231.36328125 554 231.36328125 554 234.36328125 546 c 0,55,56
 239.36328125 535 239.36328125 535 246.36328125 537 c 0,57,58
 250.36328125 539 250.36328125 539 250.36328125 543 c 128,-1,59
 250.36328125 547 250.36328125 547 248.36328125 551 c 0,46,47
404.36328125 33 m 0,60,61
 402.36328125 37 402.36328125 37 398.86328125 47 c 128,-1,62
 395.36328125 57 395.36328125 57 393.36328125 74 c 0,63,64
 392.36328125 97 392.36328125 97 388.36328125 97 c 0,65,66
 387.36328125 97 387.36328125 97 385.36328125 93.5 c 128,-1,67
 383.36328125 90 383.36328125 90 382.36328125 81 c 0,68,69
 380.36328125 49 380.36328125 49 387.86328125 35 c 128,-1,70
 395.36328125 21 395.36328125 21 404.36328125 21 c 0,71,72
 408.36328125 21 408.36328125 21 407.36328125 24.5 c 128,-1,73
 406.36328125 28 406.36328125 28 404.36328125 33 c 0,60,61
EndSplineSet



EndChar

StartChar: Z
Encoding: 90 90 60
Width: 840
GlyphClass: 2
Flags: W
LayerCount: 2
Fore
SplineSet
319.5 0 m 2,0,1
 308.5 0 308.5 0 296 2.5 c 128,-1,2
 283.5 5 283.5 5 273.5 11.5 c 128,-1,3
 263.5 18 263.5 18 257 28.5 c 128,-1,4
 250.5 39 250.5 39 250.5 55 c 0,5,6
 250.5 65 250.5 65 252 76 c 128,-1,7
 253.5 87 253.5 87 261.5 102 c 2,8,-1
 342.5 262 l 1,9,-1
 318.5 262 l 2,10,11
 303.5 262 303.5 262 295.5 273 c 128,-1,12
 287.5 284 287.5 284 287.5 301 c 256,13,14
 287.5 318 287.5 318 294 328 c 128,-1,15
 300.5 338 300.5 338 318.5 338 c 2,16,-1
 380.5 338 l 1,17,-1
 469.5 513 l 2,18,19
 472.5 519 472.5 519 472.5 525 c 0,20,21
 471.5 531 471.5 531 461.5 531 c 2,22,-1
 283.5 533 l 2,23,24
 270.5 533 270.5 533 262 543.5 c 128,-1,25
 253.5 554 253.5 554 253.5 569 c 0,26,27
 253.5 598 253.5 598 268 608 c 128,-1,28
 282.5 618 282.5 618 301.5 618 c 2,29,-1
 547.5 616 l 2,30,31
 559.5 616 559.5 616 567.5 609.5 c 128,-1,32
 575.5 603 575.5 603 580 593.5 c 128,-1,33
 584.5 584 584.5 584 586.5 572 c 128,-1,34
 588.5 560 588.5 560 588.5 548 c 0,35,36
 588.5 518 588.5 518 573.5 488 c 2,37,-1
 494.5 338 l 1,38,-1
 524.5 338 l 2,39,40
 542.5 338 542.5 338 550 329.5 c 128,-1,41
 557.5 321 557.5 321 557.5 307 c 0,42,43
 557.5 287 557.5 287 551 274.5 c 128,-1,44
 544.5 262 544.5 262 528.5 262 c 2,45,-1
 454.5 262 l 1,46,-1
 399.5 158 l 2,47,48
 387.5 135 387.5 135 381 121.5 c 128,-1,49
 374.5 108 374.5 108 374.5 100 c 0,50,51
 374.5 87 374.5 87 402.5 87 c 2,52,-1
 550.5 86 l 2,53,54
 570.5 86 570.5 86 580 72 c 128,-1,55
 589.5 58 589.5 58 589.5 35 c 0,56,57
 589.5 21 589.5 21 580 10.5 c 128,-1,58
 570.5 0 570.5 0 562.5 0 c 2,59,-1
 319.5 0 l 2,0,1
283.5 574 m 0,60,61
 285.5 578 285.5 578 289.5 585 c 128,-1,62
 293.5 592 293.5 592 292.5 595 c 0,63,64
 292.5 597 292.5 597 289 599.5 c 128,-1,65
 285.5 602 285.5 602 283.5 602 c 0,66,67
 272.5 600 272.5 600 269.5 586 c 128,-1,68
 266.5 572 266.5 572 268.5 560 c 0,69,70
 268.5 558 268.5 558 270.5 555 c 128,-1,71
 272.5 552 272.5 552 274.5 552 c 0,72,73
 278.5 553 278.5 553 280.5 562.5 c 128,-1,74
 282.5 572 282.5 572 283.5 574 c 0,60,61
310.5 306 m 0,75,76
 310.5 311 310.5 311 313.5 318.5 c 128,-1,77
 316.5 326 316.5 326 311.5 326 c 256,78,79
 306.5 326 306.5 326 301.5 318.5 c 128,-1,80
 296.5 311 296.5 311 296.5 300 c 0,81,82
 296.5 293 296.5 293 299 285.5 c 128,-1,83
 301.5 278 301.5 278 306.5 278 c 256,84,85
 311.5 278 311.5 278 311 287.5 c 128,-1,86
 310.5 297 310.5 297 310.5 306 c 0,75,76
276.5 49 m 0,87,88
 280.5 49 280.5 49 284.5 57.5 c 128,-1,89
 288.5 66 288.5 66 292.5 77.5 c 128,-1,90
 296.5 89 296.5 89 299 100.5 c 128,-1,91
 301.5 112 301.5 112 301.5 117 c 0,92,93
 301.5 121 301.5 121 297.5 121 c 0,94,95
 292.5 121 292.5 121 287.5 114 c 128,-1,96
 282.5 107 282.5 107 278 99 c 128,-1,97
 273.5 91 273.5 91 270.5 82.5 c 128,-1,98
 267.5 74 267.5 74 267.5 71 c 0,99,100
 266.5 63 266.5 63 269 56 c 128,-1,101
 271.5 49 271.5 49 276.5 49 c 0,87,88
291.5 27 m 0,102,103
 291.5 34 291.5 34 286.5 34 c 0,104,105
 277.5 34 277.5 34 277.5 25 c 0,106,107
 277.5 19 277.5 19 282.5 19 c 0,108,109
 285.5 19 285.5 19 288.5 21.5 c 128,-1,110
 291.5 24 291.5 24 291.5 27 c 0,102,103
EndSplineSet


EndChar

StartChar: bracketleft
Encoding: 91 91 61
Width: 840
Flags: W
LayerCount: 2
Fore
SplineSet
324.930664062 -70 m 0,0,1
 321.930664062 -67 321.930664062 -67 320.430664062 -56.5 c 128,-1,2
 318.930664062 -46 318.930664062 -46 317.930664062 -12.5 c 128,-1,3
 316.930664062 21 316.930664062 21 316.930664062 86.5 c 128,-1,4
 316.930664062 152 316.930664062 152 316.930664062 266 c 0,5,6
 316.930664062 347 316.930664062 347 316.930664062 405 c 128,-1,7
 316.930664062 463 316.930664062 463 316.930664062 503.5 c 128,-1,8
 316.930664062 544 316.930664062 544 317.930664062 570 c 128,-1,9
 318.930664062 596 318.930664062 596 320.930664062 611.5 c 128,-1,10
 322.930664062 627 322.930664062 627 325.930664062 635 c 128,-1,11
 328.930664062 643 328.930664062 643 333.930664062 649 c 0,12,13
 337.930664062 654 337.930664062 654 349.430664062 657 c 128,-1,14
 360.930664062 660 360.930664062 660 376.430664062 661.5 c 128,-1,15
 391.930664062 663 391.930664062 663 411.430664062 663.5 c 128,-1,16
 430.930664062 664 430.930664062 664 450.930664062 664 c 0,17,18
 491.930664062 664 491.930664062 664 512.430664062 650 c 128,-1,19
 532.930664062 636 532.930664062 636 513.930664062 616 c 0,20,21
 508.930664062 610 508.930664062 610 494.930664062 606 c 128,-1,22
 480.930664062 602 480.930664062 602 450.930664062 602 c 0,23,24
 436.930664062 602 436.930664062 602 429.430664062 600 c 128,-1,25
 421.930664062 598 421.930664062 598 418.930664062 593 c 128,-1,26
 415.930664062 588 415.930664062 588 415.930664062 579.5 c 128,-1,27
 415.930664062 571 415.930664062 571 415.930664062 557 c 2,28,-1
 415.930664062 -20 l 1,29,-1
 433.930664062 -20 l 2,30,31
 476.930664062 -20 476.930664062 -20 491.430664062 -27.5 c 128,-1,32
 505.930664062 -35 505.930664062 -35 505.930664062 -56 c 0,33,34
 505.930664062 -66 505.930664062 -66 502.430664062 -71.5 c 128,-1,35
 498.930664062 -77 498.930664062 -77 488.430664062 -79.5 c 128,-1,36
 477.930664062 -82 477.930664062 -82 459.930664062 -82.5 c 128,-1,37
 441.930664062 -83 441.930664062 -83 411.930664062 -83 c 0,38,39
 384.930664062 -83 384.930664062 -83 369.430664062 -83 c 128,-1,40
 353.930664062 -83 353.930664062 -83 344.930664062 -81.5 c 128,-1,41
 335.930664062 -80 335.930664062 -80 331.930664062 -77.5 c 128,-1,42
 327.930664062 -75 327.930664062 -75 324.930664062 -70 c 0,0,1
361.930664062 616 m 256,43,44
 363.930664062 624 363.930664062 624 372.930664062 630 c 128,-1,45
 381.930664062 636 381.930664062 636 387.930664062 636 c 0,46,47
 396.930664062 636 396.930664062 636 396.930664062 643 c 0,48,49
 396.930664062 644 396.930664062 644 395.430664062 644 c 128,-1,50
 393.930664062 644 393.930664062 644 387.930664062 644 c 0,51,52
 372.930664062 644 372.930664062 644 358.930664062 634 c 128,-1,53
 344.930664062 624 344.930664062 624 344.930664062 610 c 0,54,55
 344.930664062 598 344.930664062 598 348.930664062 598 c 256,56,57
 352.930664062 598 352.930664062 598 356.430664062 603 c 128,-1,58
 359.930664062 608 359.930664062 608 361.930664062 616 c 256,43,44
EndSplineSet




EndChar

StartChar: backslash
Encoding: 92 92 62
Width: 840
Flags: W
LayerCount: 2
Fore
SplineSet
306.5 666 m 0,0,1
 313.5 666 313.5 666 331.5 630.5 c 128,-1,2
 349.5 595 349.5 595 373 541 c 128,-1,3
 396.5 487 396.5 487 422.5 422.5 c 128,-1,4
 448.5 358 448.5 358 471.5 299.5 c 128,-1,5
 494.5 241 494.5 241 511 197.5 c 128,-1,6
 527.5 154 527.5 154 533.5 142 c 0,7,8
 539.5 129 539.5 129 551 101.5 c 128,-1,9
 562.5 74 562.5 74 574 44.5 c 128,-1,10
 585.5 15 585.5 15 594 -10.5 c 128,-1,11
 602.5 -36 602.5 -36 602.5 -44 c 0,12,13
 602.5 -51 602.5 -51 597.5 -57 c 128,-1,14
 592.5 -63 592.5 -63 585 -67.5 c 128,-1,15
 577.5 -72 577.5 -72 569 -74.5 c 128,-1,16
 560.5 -77 560.5 -77 553.5 -77 c 0,17,18
 539.5 -77 539.5 -77 528 -67.5 c 128,-1,19
 516.5 -58 516.5 -58 509.5 -47 c 0,20,21
 503.5 -37 503.5 -37 488.5 -3 c 128,-1,22
 473.5 31 473.5 31 453.5 79.5 c 128,-1,23
 433.5 128 433.5 128 409.5 187 c 128,-1,24
 385.5 246 385.5 246 361.5 306 c 128,-1,25
 337.5 366 337.5 366 315 423 c 128,-1,26
 292.5 480 292.5 480 275.5 525 c 128,-1,27
 258.5 570 258.5 570 248 598.5 c 128,-1,28
 237.5 627 237.5 627 237.5 630 c 0,29,30
 237.5 639 237.5 639 246.5 646 c 128,-1,31
 255.5 653 255.5 653 267.5 657.5 c 128,-1,32
 279.5 662 279.5 662 291 664 c 128,-1,33
 302.5 666 302.5 666 306.5 666 c 0,0,1
281.5 626 m 0,34,35
 279.5 631 279.5 631 272 629 c 128,-1,36
 264.5 627 264.5 627 264.5 620 c 0,37,38
 264.5 614 264.5 614 269.5 599.5 c 128,-1,39
 274.5 585 274.5 585 281 569.5 c 128,-1,40
 287.5 554 287.5 554 294 540.5 c 128,-1,41
 300.5 527 300.5 527 302.5 523 c 0,42,43
 305.5 518 305.5 518 310.5 518 c 128,-1,44
 315.5 518 315.5 518 317.5 519 c 0,45,46
 322.5 520 322.5 520 319 532.5 c 128,-1,47
 315.5 545 315.5 545 308.5 561.5 c 128,-1,48
 301.5 578 301.5 578 293.5 596 c 128,-1,49
 285.5 614 285.5 614 281.5 626 c 0,34,35
EndSplineSet
EndChar

StartChar: bracketright
Encoding: 93 93 63
Width: 840
Flags: W
LayerCount: 2
Fore
SplineSet
349.75 -80 m 0,0,1
 334.75 -80 334.75 -80 324.25 -71.5 c 128,-1,2
 313.75 -63 313.75 -63 313.75 -55 c 0,3,4
 313.75 -33 313.75 -33 327.25 -25 c 128,-1,5
 340.75 -17 340.75 -17 360.75 -17 c 0,6,7
 384.75 -17 384.75 -17 398.25 -15 c 128,-1,8
 411.75 -13 411.75 -13 418.25 -8.5 c 128,-1,9
 424.75 -4 424.75 -4 426.25 3.5 c 128,-1,10
 427.75 11 427.75 11 427.75 21 c 2,11,-1
 427.75 551 l 2,12,13
 427.75 580 427.75 580 415.75 590 c 128,-1,14
 403.75 600 403.75 600 392.75 600 c 256,15,16
 381.75 600 381.75 600 369.75 598 c 128,-1,17
 357.75 596 357.75 596 346.75 596 c 0,18,19
 332.75 596 332.75 596 323.25 603 c 128,-1,20
 313.75 610 313.75 610 313.75 633 c 0,21,22
 313.75 645 313.75 645 330.25 653.5 c 128,-1,23
 346.75 662 346.75 662 375.75 662 c 0,24,25
 400.75 662 400.75 662 424.75 662 c 128,-1,26
 448.75 662 448.75 662 468.25 660.5 c 128,-1,27
 487.75 659 487.75 659 500.75 656 c 128,-1,28
 513.75 653 513.75 653 516.75 647 c 0,29,30
 519.75 642 519.75 642 520.25 625.5 c 128,-1,31
 520.75 609 520.75 609 520.75 570.5 c 128,-1,32
 520.75 532 520.75 532 521.25 466 c 128,-1,33
 521.75 400 521.75 400 522.75 295 c 0,34,35
 524.75 193 524.75 193 525.75 127.5 c 128,-1,36
 526.75 62 526.75 62 525.75 21 c 0,37,38
 525.75 -7 525.75 -7 521.75 -25 c 128,-1,39
 517.75 -43 517.75 -43 511.75 -54 c 128,-1,40
 505.75 -65 505.75 -65 497.25 -70 c 128,-1,41
 488.75 -75 488.75 -75 478.75 -76 c 0,42,43
 460.75 -78 460.75 -78 439.25 -79 c 128,-1,44
 417.75 -80 417.75 -80 398.75 -80 c 128,-1,45
 379.75 -80 379.75 -80 365.75 -80 c 128,-1,46
 351.75 -80 351.75 -80 349.75 -80 c 0,0,1
344.75 644 m 256,47,48
 340.75 649 340.75 649 333.75 645 c 128,-1,49
 326.75 641 326.75 641 326.75 633 c 0,50,51
 326.75 623 326.75 623 330.75 623 c 256,52,53
 334.75 623 334.75 623 334.75 630 c 0,54,55
 335.75 634 335.75 634 342.25 636.5 c 128,-1,56
 348.75 639 348.75 639 344.75 644 c 256,47,48
EndSplineSet



EndChar

StartChar: asciicircum
Encoding: 94 94 64
Width: 840
Flags: W
LayerCount: 2
Fore
SplineSet
172 267 m 1,0,-1
 384 719 l 1,1,-1
 434 719 l 1,2,-1
 668 267 l 1,3,-1
 590 267 l 1,4,-1
 410 626 l 1,5,-1
 250 267 l 1,6,-1
 172 267 l 1,0,-1
EndSplineSet
EndChar

StartChar: underscore
Encoding: 95 95 65
Width: 840
Flags: W
LayerCount: 2
Fore
SplineSet
644 -154 m 1,0,-1
 196 -154 l 1,1,-1
 196 -90 l 1,2,-1
 644 -90 l 1,3,-1
 644 -154 l 1,0,-1
EndSplineSet

EndChar

StartChar: grave
Encoding: 96 96 66
Width: 840
Flags: W
LayerCount: 2
Fore
SplineSet
424.5 766 m 1,0,1
 435.5 744 435.5 744 452 716.5 c 128,-1,2
 468.5 689 468.5 689 487 663 c 128,-1,3
 505.5 637 505.5 637 520.5 618 c 1,4,-1
 520.5 606 l 1,5,-1
 461.5 606 l 1,6,7
 444.5 620 444.5 620 423.5 639.5 c 128,-1,8
 402.5 659 402.5 659 382 680.5 c 128,-1,9
 361.5 702 361.5 702 345 722 c 128,-1,10
 328.5 742 328.5 742 319.5 756 c 1,11,-1
 319.5 766 l 1,12,-1
 424.5 766 l 1,0,1
EndSplineSet
EndChar

StartChar: a
Encoding: 97 97 67
Width: 840
GlyphClass: 2
Flags: W
LayerCount: 2
Fore
SplineSet
426 621 m 0,0,1
 458 621 458 621 479 611 c 128,-1,2
 500 601 500 601 508 587 c 0,3,4
 514 575 514 575 525.5 534 c 128,-1,5
 537 493 537 493 550.5 437 c 128,-1,6
 564 381 564 381 578.5 318 c 128,-1,7
 593 255 593 255 605 199 c 128,-1,8
 617 143 617 143 624.5 101.5 c 128,-1,9
 632 60 632 60 632 48 c 0,10,11
 632 28 632 28 611 12.5 c 128,-1,12
 590 -3 590 -3 566 -3 c 256,13,14
 542 -3 542 -3 533 11 c 0,15,16
 529 17 529 17 523 32 c 128,-1,17
 517 47 517 47 511 67 c 128,-1,18
 505 87 505 87 499.5 109 c 128,-1,19
 494 131 494 131 490 152 c 0,20,21
 486 172 486 172 478.5 176.5 c 128,-1,22
 471 181 471 181 461 181 c 0,23,24
 432 181 432 181 410 181.5 c 128,-1,25
 388 182 388 182 377 182 c 0,26,27
 357 182 357 182 347.5 177.5 c 128,-1,28
 338 173 338 173 335 162 c 2,29,-1
 309 62 l 2,30,31
 301 33 301 33 283.5 15.5 c 128,-1,32
 266 -2 266 -2 244 -2 c 0,33,34
 208 -2 208 -2 208 48 c 0,35,36
 208 65 208 65 212 95.5 c 128,-1,37
 216 126 216 126 222.5 164.5 c 128,-1,38
 229 203 229 203 238.5 246.5 c 128,-1,39
 248 290 248 290 258.5 334.5 c 128,-1,40
 269 379 269 379 280 421 c 128,-1,41
 291 463 291 463 302 497 c 0,42,43
 314 535 314 535 326.5 559 c 128,-1,44
 339 583 339 583 353 597 c 128,-1,45
 367 611 367 611 384.5 616 c 128,-1,46
 402 621 402 621 426 621 c 0,0,1
365 561 m 0,47,48
 376 574 376 574 385 585.5 c 128,-1,49
 394 597 394 597 387 598 c 0,50,51
 371 601 371 601 355 579 c 0,52,53
 344 562 344 562 339 543 c 128,-1,54
 334 524 334 524 342 522 c 0,55,56
 344 522 344 522 346 525.5 c 128,-1,57
 348 529 348 529 350 535 c 128,-1,58
 352 541 352 541 355.5 548 c 128,-1,59
 359 555 359 555 365 561 c 0,47,48
381 377 m 0,60,61
 370 320 370 320 366.5 298.5 c 128,-1,62
 363 277 363 277 372 277 c 2,63,-1
 460 277 l 2,64,65
 468 277 468 277 464 296.5 c 128,-1,66
 460 316 460 316 452 357 c 0,67,68
 450 368 450 368 447 393.5 c 128,-1,69
 444 419 444 419 439.5 445 c 128,-1,70
 435 471 435 471 430 491.5 c 128,-1,71
 425 512 425 512 419 512 c 0,72,73
 414 512 414 512 408 494 c 128,-1,74
 402 476 402 476 396.5 452.5 c 128,-1,75
 391 429 391 429 387 407 c 128,-1,76
 383 385 383 385 381 377 c 0,60,61
240 63 m 0,77,78
 242 75 242 75 240 82 c 128,-1,79
 238 89 238 89 234 90 c 0,80,81
 232 90 232 90 229.5 87.5 c 128,-1,82
 227 85 227 85 225 77 c 0,83,84
 221 57 221 57 224 38.5 c 128,-1,85
 227 20 227 20 235 18 c 0,86,87
 245 16 245 16 239 33 c 0,88,89
 237 39 237 39 237.5 46.5 c 128,-1,90
 238 54 238 54 240 63 c 0,77,78
545 64 m 0,91,92
 538 78 538 78 536 83 c 128,-1,93
 534 88 534 88 532 88 c 0,94,95
 529 88 529 88 527 78 c 0,96,97
 527 74 527 74 529.5 63.5 c 128,-1,98
 532 53 532 53 536 42.5 c 128,-1,99
 540 32 540 32 545.5 24 c 128,-1,100
 551 16 551 16 556 16 c 0,101,102
 559 16 559 16 559 21 c 128,-1,103
 559 26 559 26 556.5 34 c 128,-1,104
 554 42 554 42 551 50 c 128,-1,105
 548 58 548 58 545 64 c 0,91,92
EndSplineSet



EndChar

StartChar: b
Encoding: 98 98 68
Width: 840
GlyphClass: 2
Flags: W
LayerCount: 2
Fore
SplineSet
140 490 m 1,0,-1
 221 490 l 1,1,-1
 221 324 l 1,2,-1
 617 324 l 1,3,-1
 617 490 l 1,4,-1
 700 490 l 1,5,-1
 700 2 l 1,6,-1
 140 2 l 1,7,-1
 140 490 l 1,0,-1
221 251 m 1,8,-1
 221 75 l 1,9,-1
 617 75 l 1,10,-1
 617 251 l 1,11,-1
 221 251 l 1,8,-1
EndSplineSet


EndChar

StartChar: c
Encoding: 99 99 69
Width: 840
GlyphClass: 2
Flags: W
LayerCount: 2
Fore
SplineSet
489 -10 m 4,0,1
 371 -10 371 -10 306 57 c 132,-1,2
 241 124 241 124 241 245 c 4,3,4
 241 325 241 325 270 380.5 c 132,-1,5
 299 436 299 436 353 465 c 5,6,-1
 194 465 l 5,7,-1
 194 537 l 5,8,-1
 646 537 l 5,9,-1
 646 465 l 5,10,-1
 533 465 l 6,11,12
 439 465 439 465 385.5 411.5 c 132,-1,13
 332 358 332 358 332 252 c 4,14,15
 332 165 332 165 375 114.5 c 132,-1,16
 418 64 418 64 498 64 c 4,17,18
 535 64 535 64 569 73.5 c 132,-1,19
 603 83 603 83 635 99 c 5,20,-1
 635 21 l 5,21,22
 606 5 606 5 571 -2.5 c 132,-1,23
 536 -10 536 -10 489 -10 c 4,0,1
EndSplineSet



EndChar

StartChar: d
Encoding: 100 100 70
Width: 840
GlyphClass: 2
Flags: W
LayerCount: 2
Fore
SplineSet
123.5 470 m 1,0,-1
 409.5 470 l 1,1,-1
 409.5 402 l 1,2,-1
 205.5 402 l 1,3,-1
 205.5 38 l 1,4,-1
 123.5 38 l 1,5,-1
 123.5 470 l 1,0,-1
428.5 470 m 1,6,-1
 713.5 470 l 1,7,-1
 713.5 402 l 1,8,-1
 510.5 402 l 1,9,-1
 510.5 38 l 1,10,-1
 428.5 38 l 1,11,-1
 428.5 470 l 1,6,-1
428.5 68 m 1,12,-1
 716.5 68 l 1,13,-1
 716.5 0 l 1,14,-1
 428.5 0 l 1,15,-1
 428.5 68 l 1,12,-1
123.5 71 m 1,16,-1
 169.5 71 l 2,17,18
 210.5 71 210.5 71 249 72 c 128,-1,19
 287.5 73 287.5 73 327.5 78.5 c 128,-1,20
 367.5 84 367.5 84 410.5 94 c 1,21,-1
 419.5 25 l 1,22,23
 352.5 9 352.5 9 292.5 5 c 128,-1,24
 232.5 1 232.5 1 169.5 1 c 2,25,-1
 123.5 1 l 1,26,-1
 123.5 71 l 1,16,-1
EndSplineSet


EndChar

StartChar: e
Encoding: 101 101 71
Width: 840
GlyphClass: 2
Flags: W
LayerCount: 2
Fore
SplineSet
436.83984375 -10 m 0,0,1
 391.83984375 -10 391.83984375 -10 355.33984375 11.5 c 128,-1,2
 318.83984375 33 318.83984375 33 292.83984375 73 c 128,-1,3
 266.83984375 113 266.83984375 113 252.33984375 168.5 c 128,-1,4
 237.83984375 224 237.83984375 224 237.83984375 292 c 0,5,6
 237.83984375 364 237.83984375 364 253.83984375 424.5 c 128,-1,7
 269.83984375 485 269.83984375 485 298.33984375 529.5 c 128,-1,8
 326.83984375 574 326.83984375 574 366.33984375 598.5 c 128,-1,9
 405.83984375 623 405.83984375 623 451.83984375 623 c 0,10,11
 485.83984375 623 485.83984375 623 514.33984375 610 c 128,-1,12
 542.83984375 597 542.83984375 597 562.83984375 573.5 c 128,-1,13
 582.83984375 550 582.83984375 550 593.33984375 518.5 c 128,-1,14
 603.83984375 487 603.83984375 487 601.83984375 450 c 0,15,16
 599.83984375 407 599.83984375 407 581.83984375 366.5 c 128,-1,17
 563.83984375 326 563.83984375 326 533.83984375 295 c 128,-1,18
 503.83984375 264 503.83984375 264 464.33984375 245.5 c 128,-1,19
 424.83984375 227 424.83984375 227 379.83984375 227 c 0,20,21
 362.83984375 227 362.83984375 227 362.83984375 213 c 0,22,23
 362.83984375 149 362.83984375 149 385.33984375 118.5 c 128,-1,24
 407.83984375 88 407.83984375 88 442.83984375 88 c 0,25,26
 468.83984375 88 468.83984375 88 486.33984375 107 c 128,-1,27
 503.83984375 126 503.83984375 126 503.83984375 155 c 0,28,29
 503.83984375 179 503.83984375 179 516.83984375 193.5 c 128,-1,30
 529.83984375 208 529.83984375 208 549.83984375 208 c 0,31,32
 572.83984375 208 572.83984375 208 586.33984375 189.5 c 128,-1,33
 599.83984375 171 599.83984375 171 599.83984375 139 c 0,34,35
 599.83984375 109 599.83984375 109 586.83984375 81.5 c 128,-1,36
 573.83984375 54 573.83984375 54 551.83984375 34 c 128,-1,37
 529.83984375 14 529.83984375 14 499.83984375 2 c 128,-1,38
 469.83984375 -10 469.83984375 -10 436.83984375 -10 c 0,0,1
306.83984375 477 m 0,39,40
 309.83984375 477 309.83984375 477 319.33984375 491.5 c 128,-1,41
 328.83984375 506 328.83984375 506 341.83984375 523.5 c 128,-1,42
 354.83984375 541 354.83984375 541 369.83984375 556.5 c 128,-1,43
 384.83984375 572 384.83984375 572 399.83984375 573 c 0,44,45
 404.83984375 574 404.83984375 574 409.33984375 576.5 c 128,-1,46
 413.83984375 579 413.83984375 579 412.83984375 582 c 0,47,48
 412.83984375 592 412.83984375 592 399.83984375 590 c 0,49,50
 382.83984375 589 382.83984375 589 365.33984375 576 c 128,-1,51
 347.83984375 563 347.83984375 563 333.33984375 545.5 c 128,-1,52
 318.83984375 528 318.83984375 528 309.83984375 510 c 128,-1,53
 300.83984375 492 300.83984375 492 301.83984375 481 c 0,54,55
 303.83984375 474 303.83984375 474 306.83984375 477 c 0,39,40
359.83984375 315 m 0,56,57
 362.83984375 311 362.83984375 311 373.83984375 311 c 0,58,59
 399.83984375 311 399.83984375 311 423.83984375 324 c 128,-1,60
 447.83984375 337 447.83984375 337 465.83984375 357 c 128,-1,61
 483.83984375 377 483.83984375 377 494.83984375 403 c 128,-1,62
 505.83984375 429 505.83984375 429 505.83984375 454 c 0,63,64
 505.83984375 486 505.83984375 486 490.33984375 507 c 128,-1,65
 474.83984375 528 474.83984375 528 451.83984375 528 c 0,66,67
 434.83984375 528 434.83984375 528 420.33984375 513.5 c 128,-1,68
 405.83984375 499 405.83984375 499 394.33984375 477.5 c 128,-1,69
 382.83984375 456 382.83984375 456 374.83984375 429.5 c 128,-1,70
 366.83984375 403 366.83984375 403 362.33984375 379.5 c 128,-1,71
 357.83984375 356 357.83984375 356 356.83984375 338 c 128,-1,72
 355.83984375 320 355.83984375 320 359.83984375 315 c 0,56,57
293.83984375 467 m 0,73,74
 288.83984375 466 288.83984375 466 285.83984375 459.5 c 128,-1,75
 282.83984375 453 282.83984375 453 283.83984375 445 c 0,76,77
 285.83984375 436 285.83984375 436 287.83984375 437 c 0,78,79
 292.83984375 437 292.83984375 437 296.83984375 446 c 128,-1,80
 300.83984375 455 300.83984375 455 298.83984375 462 c 0,81,82
 296.83984375 468 296.83984375 468 293.83984375 467 c 0,73,74
EndSplineSet


EndChar

StartChar: f
Encoding: 102 102 72
Width: 840
GlyphClass: 2
Flags: W
LayerCount: 2
Fore
SplineSet
128 483 m 1,0,-1
 711 483 l 1,1,-1
 711 415 l 1,2,-1
 128 415 l 1,3,-1
 128 483 l 1,0,-1
115 69 m 1,4,-1
 725 69 l 1,5,-1
 725 1 l 1,6,-1
 115 1 l 1,7,-1
 115 69 l 1,4,-1
245 429 m 1,8,-1
 328 429 l 1,9,-1
 328 42 l 1,10,-1
 245 42 l 1,11,-1
 245 429 l 1,8,-1
512 429 m 1,12,-1
 595 429 l 1,13,-1
 595 42 l 1,14,-1
 512 42 l 1,15,-1
 512 429 l 1,12,-1
EndSplineSet


EndChar

StartChar: g
Encoding: 103 103 73
Width: 840
GlyphClass: 2
Flags: W
LayerCount: 2
Fore
SplineSet
439.5 -5 m 0,0,1
 372.5 -5 372.5 -5 328.5 28 c 128,-1,2
 284.5 61 284.5 61 258.5 111 c 128,-1,3
 232.5 161 232.5 161 222.5 219 c 128,-1,4
 212.5 277 212.5 277 212.5 328 c 0,5,6
 212.5 384 212.5 384 224 437.5 c 128,-1,7
 235.5 491 235.5 491 262.5 532.5 c 128,-1,8
 289.5 574 289.5 574 333 599.5 c 128,-1,9
 376.5 625 376.5 625 440.5 625 c 0,10,11
 471.5 625 471.5 625 500 616.5 c 128,-1,12
 528.5 608 528.5 608 550.5 589.5 c 128,-1,13
 572.5 571 572.5 571 585.5 540.5 c 128,-1,14
 598.5 510 598.5 510 598.5 466 c 0,15,16
 598.5 450 598.5 450 592 440.5 c 128,-1,17
 585.5 431 585.5 431 576 425.5 c 128,-1,18
 566.5 420 566.5 420 556.5 418.5 c 128,-1,19
 546.5 417 546.5 417 540.5 417 c 0,20,21
 526.5 417 526.5 417 514 427 c 128,-1,22
 501.5 437 501.5 437 501.5 466 c 0,23,24
 501.5 511 501.5 511 481 529 c 128,-1,25
 460.5 547 460.5 547 431.5 547 c 0,26,27
 411.5 547 411.5 547 393 530.5 c 128,-1,28
 374.5 514 374.5 514 360.5 483.5 c 128,-1,29
 346.5 453 346.5 453 338.5 410 c 128,-1,30
 330.5 367 330.5 367 330.5 314 c 0,31,32
 330.5 285 330.5 285 334 245 c 128,-1,33
 337.5 205 337.5 205 349.5 169 c 128,-1,34
 361.5 133 361.5 133 383.5 107.5 c 128,-1,35
 405.5 82 405.5 82 441.5 82 c 0,36,37
 470.5 82 470.5 82 487 96.5 c 128,-1,38
 503.5 111 503.5 111 511 132 c 128,-1,39
 518.5 153 518.5 153 520 175.5 c 128,-1,40
 521.5 198 521.5 198 520.5 214 c 256,41,42
 519.5 230 519.5 230 507 231.5 c 128,-1,43
 494.5 233 494.5 233 471.5 233 c 2,44,-1
 420.5 233 l 2,45,46
 414.5 233 414.5 233 409.5 239 c 128,-1,47
 404.5 245 404.5 245 401.5 253.5 c 128,-1,48
 398.5 262 398.5 262 396.5 271 c 128,-1,49
 394.5 280 394.5 280 394.5 286 c 0,50,51
 394.5 302 394.5 302 405 314.5 c 128,-1,52
 415.5 327 415.5 327 438.5 327 c 2,53,-1
 546.5 326 l 2,54,55
 577.5 326 577.5 326 602.5 306 c 128,-1,56
 627.5 286 627.5 286 627.5 249 c 0,57,58
 627.5 206 627.5 206 618 161 c 128,-1,59
 608.5 116 608.5 116 586.5 79 c 128,-1,60
 564.5 42 564.5 42 528.5 18.5 c 128,-1,61
 492.5 -5 492.5 -5 439.5 -5 c 0,0,1
344.5 58 m 0,62,63
 344.5 62 344.5 62 324.5 84 c 0,64,65
 315.5 93 315.5 93 306.5 106.5 c 128,-1,66
 297.5 120 297.5 120 290 133 c 128,-1,67
 282.5 146 282.5 146 278 157.5 c 128,-1,68
 273.5 169 273.5 169 273.5 173 c 0,69,70
 273.5 178 273.5 178 270.5 179.5 c 128,-1,71
 267.5 181 267.5 181 266.5 181 c 0,72,73
 258.5 181 258.5 181 258.5 170 c 256,74,75
 258.5 159 258.5 159 267.5 139 c 128,-1,76
 276.5 119 276.5 119 289 99.5 c 128,-1,77
 301.5 80 301.5 80 315 66 c 128,-1,78
 328.5 52 328.5 52 338.5 52 c 0,79,80
 344.5 52 344.5 52 344.5 58 c 0,62,63
367.5 45 m 0,81,82
 367.5 52 367.5 52 360.5 52 c 0,83,84
 356.5 52 356.5 52 355 49 c 128,-1,85
 353.5 46 353.5 46 353.5 44 c 0,86,87
 353.5 39 353.5 39 356 38 c 128,-1,88
 358.5 37 358.5 37 360.5 37 c 0,89,90
 367.5 37 367.5 37 367.5 45 c 0,81,82
EndSplineSet


EndChar

StartChar: h
Encoding: 104 104 74
Width: 840
GlyphClass: 2
Flags: W
LayerCount: 2
Fore
SplineSet
292.509765625 0 m 0,0,1
 267.509765625 0 267.509765625 0 257.509765625 14.5 c 128,-1,2
 247.509765625 29 247.509765625 29 247.509765625 65 c 2,3,-1
 247.509765625 343 l 2,4,5
 247.509765625 434 247.509765625 434 245.509765625 518 c 0,6,7
 244.509765625 616 244.509765625 616 295.509765625 616 c 0,8,9
 314.509765625 616 314.509765625 616 332.509765625 606.5 c 128,-1,10
 350.509765625 597 350.509765625 597 350.509765625 571 c 2,11,-1
 350.509765625 358 l 2,12,13
 350.509765625 318 350.509765625 318 354.509765625 318 c 256,14,15
 358.509765625 318 358.509765625 318 363.509765625 334 c 128,-1,16
 368.509765625 350 368.509765625 350 380.509765625 369.5 c 128,-1,17
 392.509765625 389 392.509765625 389 414.509765625 405 c 128,-1,18
 436.509765625 421 436.509765625 421 472.509765625 421 c 0,19,20
 536.509765625 421 536.509765625 421 565.509765625 358 c 128,-1,21
 594.509765625 295 594.509765625 295 594.509765625 157 c 2,22,-1
 594.509765625 31 l 2,23,24
 594.509765625 0 594.509765625 0 538.509765625 0 c 0,25,26
 511.509765625 0 511.509765625 0 499.509765625 11.5 c 128,-1,27
 487.509765625 23 487.509765625 23 487.509765625 34 c 2,28,-1
 487.509765625 148 l 2,29,30
 487.509765625 200 487.509765625 200 484.509765625 232 c 128,-1,31
 481.509765625 264 481.509765625 264 475.509765625 282 c 128,-1,32
 469.509765625 300 469.509765625 300 460.009765625 306.5 c 128,-1,33
 450.509765625 313 450.509765625 313 436.509765625 313 c 0,34,35
 415.509765625 313 415.509765625 313 400.009765625 293.5 c 128,-1,36
 384.509765625 274 384.509765625 274 374.509765625 241 c 128,-1,37
 364.509765625 208 364.509765625 208 360.009765625 163.5 c 0,38,39
 355.509765625 123 355.509765625 123 355.509765625 121 c 2,40,-1
 355.509765625 45 l 2,41,42
 355.509765625 30 355.509765625 30 348.009765625 21 c 128,-1,43
 340.509765625 12 340.509765625 12 330.509765625 7.5 c 128,-1,44
 320.509765625 3 320.509765625 3 310.009765625 1.5 c 128,-1,45
 299.509765625 0 299.509765625 0 292.509765625 0 c 0,0,1
267.509765625 316 m 0,46,47
 270.509765625 316 270.509765625 316 272.509765625 328 c 128,-1,48
 274.509765625 340 274.509765625 340 276.509765625 355 c 128,-1,49
 278.509765625 370 278.509765625 370 279.509765625 482 c 128,-1,50
 280.509765625 594 280.509765625 594 280.509765625 595 c 0,51,52
 280.509765625 597 280.509765625 597 280.009765625 600 c 128,-1,53
 279.509765625 603 279.509765625 603 277.509765625 603 c 0,54,55
 272.509765625 603 272.509765625 603 269.009765625 595.5 c 128,-1,56
 265.509765625 588 265.509765625 588 263.509765625 479 c 128,-1,57
 261.509765625 370 261.509765625 370 260.509765625 360.5 c 128,-1,58
 259.509765625 351 259.509765625 351 259.509765625 348 c 0,59,60
 259.509765625 340 259.509765625 340 261.509765625 328 c 128,-1,61
 263.509765625 316 263.509765625 316 267.509765625 316 c 0,46,47
524.509765625 29 m 0,62,63
 524.509765625 35 524.509765625 35 522.509765625 38 c 128,-1,64
 520.509765625 41 520.509765625 41 518.009765625 43 c 128,-1,65
 515.509765625 45 515.509765625 45 513.509765625 49 c 128,-1,66
 511.509765625 53 511.509765625 53 511.509765625 60 c 0,67,68
 511.509765625 76 511.509765625 76 510.009765625 80 c 128,-1,69
 508.509765625 84 508.509765625 84 503.509765625 84 c 256,70,71
 498.509765625 84 498.509765625 84 497.009765625 76.5 c 128,-1,72
 495.509765625 69 495.509765625 69 495.509765625 59 c 0,73,74
 495.509765625 39 495.509765625 39 501.509765625 27 c 128,-1,75
 507.509765625 15 507.509765625 15 515.509765625 15 c 0,76,77
 518.509765625 15 518.509765625 15 521.509765625 18.5 c 128,-1,78
 524.509765625 22 524.509765625 22 524.509765625 29 c 0,62,63
291.509765625 26 m 0,79,80
 291.509765625 31 291.509765625 31 289.009765625 33.5 c 128,-1,81
 286.509765625 36 286.509765625 36 283.509765625 38.5 c 128,-1,82
 280.509765625 41 280.509765625 41 278.009765625 45 c 128,-1,83
 275.509765625 49 275.509765625 49 275.509765625 56 c 0,84,85
 275.509765625 77 275.509765625 77 268.509765625 77 c 0,86,87
 266.509765625 77 266.509765625 77 264.509765625 69.5 c 128,-1,88
 262.509765625 62 262.509765625 62 262.509765625 51 c 0,89,90
 262.509765625 36 262.509765625 36 269.009765625 24 c 128,-1,91
 275.509765625 12 275.509765625 12 283.509765625 12 c 0,92,93
 285.509765625 12 285.509765625 12 288.509765625 16 c 128,-1,94
 291.509765625 20 291.509765625 20 291.509765625 26 c 0,79,80
EndSplineSet




EndChar

StartChar: i
Encoding: 105 105 75
Width: 840
GlyphClass: 2
Flags: W
LayerCount: 2
Fore
SplineSet
411.674804688 -4 m 256,0,1
 387.674804688 -4 387.674804688 -4 374.674804688 6.5 c 128,-1,2
 361.674804688 17 361.674804688 17 361.674804688 32 c 2,3,-1
 361.674804688 387 l 2,4,5
 361.674804688 396 361.674804688 396 364.174804688 408 c 128,-1,6
 366.674804688 420 366.674804688 420 372.174804688 430 c 128,-1,7
 377.674804688 440 377.674804688 440 387.174804688 447 c 128,-1,8
 396.674804688 454 396.674804688 454 411.674804688 454 c 256,9,10
 426.674804688 454 426.674804688 454 437.174804688 448 c 128,-1,11
 447.674804688 442 447.674804688 442 454.174804688 433 c 128,-1,12
 460.674804688 424 460.674804688 424 464.174804688 413 c 128,-1,13
 467.674804688 402 467.674804688 402 467.674804688 392 c 2,14,-1
 467.674804688 32 l 2,15,16
 467.674804688 16 467.674804688 16 451.674804688 6 c 128,-1,17
 435.674804688 -4 435.674804688 -4 411.674804688 -4 c 256,0,1
379.674804688 357 m 0,18,19
 382.674804688 357 382.674804688 357 383.674804688 363 c 128,-1,20
 384.674804688 369 384.674804688 369 384.674804688 377.5 c 128,-1,21
 384.674804688 386 384.674804688 386 385.174804688 395.5 c 128,-1,22
 385.674804688 405 385.674804688 405 387.674804688 411 c 0,23,24
 388.674804688 415 388.674804688 415 390.674804688 422 c 128,-1,25
 392.674804688 429 392.674804688 429 389.674804688 429 c 0,26,27
 384.674804688 429 384.674804688 429 381.174804688 423.5 c 128,-1,28
 377.674804688 418 377.674804688 418 375.174804688 410.5 c 128,-1,29
 372.674804688 403 372.674804688 403 371.674804688 395.5 c 128,-1,30
 370.674804688 388 370.674804688 388 370.674804688 383 c 0,31,32
 370.674804688 374 370.674804688 374 372.674804688 365.5 c 128,-1,33
 374.674804688 357 374.674804688 357 379.674804688 357 c 0,18,19
415.141601562 523.2265625 m 4,34,35
 379.674804688 523 379.674804688 523 354.676757812 552.055664062 c 132,-1,36
 329.674804688 581 329.674804688 581 329.51953125 626.186523438 c 4,37,38
 329.674804688 651 329.674804688 651 337.022460938 673.033203125 c 4,39,40
 344.674804688 695 344.674804688 695 357.765625 711.12890625 c 4,41,42
 370.674804688 727 370.674804688 727 389.54296875 736.868164062 c 4,43,44
 407.674804688 747 407.674804688 747 430.147460938 746.649414062 c 4,45,46
 447.674804688 747 447.674804688 747 462.806640625 737.8984375 c 4,47,48
 477.674804688 729 477.674804688 729 488.40625 713.702148438 c 4,49,50
 498.674804688 698 498.674804688 698 504.735351562 678.696289062 c 4,51,52
 510.674804688 659 510.674804688 659 510.473632812 637.51171875 c 4,53,54
 510.674804688 610 510.674804688 610 502.969726562 588.606445312 c 4,55,56
 495.674804688 567 495.674804688 567 482.2265625 553.083984375 c 132,-1,57
 468.674804688 539 468.674804688 539 451.7734375 530.948242188 c 4,58,59
 433.674804688 523 433.674804688 523 415.141601562 523.2265625 c 4,34,35
382.481445312 701.34765625 m 4,60,61
 388.674804688 709 388.674804688 709 389.984375 713.702148438 c 4,62,63
 391.674804688 719 391.674804688 719 389.54296875 718.850585938 c 4,64,65
 382.674804688 719 382.674804688 719 374.537109375 711.12890625 c 4,66,67
 366.674804688 703 366.674804688 703 359.97265625 692.595703125 c 4,68,69
 353.674804688 682 353.674804688 682 348.939453125 669.4296875 c 4,70,71
 343.674804688 654 343.674804688 654 344.525390625 646.778320312 c 4,72,73
 344.674804688 645 344.674804688 645 345.848632812 638.541015625 c 4,74,75
 346.674804688 632 346.674804688 632 349.822265625 632.36328125 c 4,76,77
 353.674804688 633 353.674804688 633 358.6484375 655.015625 c 4,78,79
 361.674804688 669 361.674804688 669 368.358398438 681.26953125 c 4,80,81
 374.674804688 693 374.674804688 693 382.481445312 701.34765625 c 4,60,61
418.671875 581.913085938 m 4,82,83
 429.674804688 582 429.674804688 582 443.829101562 596.328125 c 4,84,85
 458.674804688 611 458.674804688 611 458.393554688 637.51171875 c 4,86,87
 458.674804688 658 458.674804688 658 449.125976562 672.002929688 c 132,-1,88
 439.674804688 686 439.674804688 686 424.850585938 685.903320312 c 260,89,90
 409.674804688 686 409.674804688 686 397.487304688 672.002929688 c 4,91,92
 384.674804688 657 384.674804688 657 385.12890625 633.393554688 c 260,93,94
 385.674804688 609 385.674804688 609 394.838867188 595.298828125 c 4,95,96
 404.674804688 582 404.674804688 582 418.671875 581.913085938 c 4,82,83
EndSplineSet



EndChar

StartChar: j
Encoding: 106 106 76
Width: 840
GlyphClass: 2
Flags: W
LayerCount: 2
Fore
SplineSet
456 559 m 256,0,1
 430 559 430 559 414 574.5 c 128,-1,2
 398 590 398 590 398 616 c 0,3,4
 398 643 398 643 414.5 660 c 128,-1,5
 431 677 431 677 458 677 c 256,6,7
 485 677 485 677 502 661.5 c 128,-1,8
 519 646 519 646 519 621 c 0,9,10
 519 595 519 595 500.5 577 c 128,-1,11
 482 559 482 559 456 559 c 256,0,1
424 618 m 0,12,13
 426 627 426 627 429.5 631.5 c 128,-1,14
 433 636 433 636 437 638.5 c 128,-1,15
 441 641 441 641 444 643.5 c 128,-1,16
 447 646 447 646 447 650 c 0,17,18
 447 660 447 660 437 660 c 0,19,20
 425 660 425 660 417 646.5 c 128,-1,21
 409 633 409 633 409 618 c 0,22,23
 409 611 409 611 410.5 601.5 c 128,-1,24
 412 592 412 592 418 592 c 0,25,26
 423 592 423 592 423 603.5 c 128,-1,27
 423 615 423 615 424 618 c 0,12,13
511 82 m 2,28,29
 511 35 511 35 504.5 -3.5 c 128,-1,30
 498 -42 498 -42 483 -69.5 c 128,-1,31
 468 -97 468 -97 442.5 -112 c 128,-1,32
 417 -127 417 -127 378 -127 c 0,33,34
 347 -127 347 -127 334 -113.5 c 128,-1,35
 321 -100 321 -100 321 -72 c 0,36,37
 321 -56 321 -56 326 -38.5 c 128,-1,38
 331 -21 331 -21 345 -21 c 0,39,40
 352 -21 352 -21 358.5 -23.5 c 128,-1,41
 365 -26 365 -26 373 -26 c 0,42,43
 389 -26 389 -26 397 -3 c 128,-1,44
 405 20 405 20 405 82 c 2,45,-1
 405 439 l 2,46,47
 405 448 405 448 407.5 460 c 128,-1,48
 410 472 410 472 415.5 482 c 128,-1,49
 421 492 421 492 430.5 499 c 128,-1,50
 440 506 440 506 455 506 c 256,51,52
 470 506 470 506 480.5 500 c 128,-1,53
 491 494 491 494 497.5 485 c 128,-1,54
 504 476 504 476 507.5 465 c 128,-1,55
 511 454 511 454 511 444 c 2,56,-1
 511 82 l 2,28,29
423 409 m 0,57,58
 426 409 426 409 427 415 c 128,-1,59
 428 421 428 421 428 429.5 c 128,-1,60
 428 438 428 438 428.5 447.5 c 128,-1,61
 429 457 429 457 431 463 c 0,62,63
 432 467 432 467 434 474 c 128,-1,64
 436 481 436 481 433 481 c 0,65,66
 428 481 428 481 424.5 475.5 c 128,-1,67
 421 470 421 470 418.5 462.5 c 128,-1,68
 416 455 416 455 415 447.5 c 128,-1,69
 414 440 414 440 414 435 c 0,70,71
 414 426 414 426 416 417.5 c 128,-1,72
 418 409 418 409 423 409 c 0,57,58
365 -103 m 0,73,74
 365 -91 365 -91 356.5 -83 c 128,-1,75
 348 -75 348 -75 348 -66 c 0,76,77
 348 -52 348 -52 345.5 -47.5 c 128,-1,78
 343 -43 343 -43 339 -43 c 0,79,80
 336 -43 336 -43 334.5 -49.5 c 128,-1,81
 333 -56 333 -56 333 -64 c 0,82,83
 333 -83 333 -83 340 -97 c 128,-1,84
 347 -111 347 -111 355 -111 c 0,85,86
 358 -111 358 -111 361.5 -109.5 c 128,-1,87
 365 -108 365 -108 365 -103 c 0,73,74
EndSplineSet



EndChar

StartChar: k
Encoding: 107 107 77
Width: 840
GlyphClass: 2
Flags: W
LayerCount: 2
Fore
SplineSet
84 608 m 5,0,-1
 396 608 l 5,1,-1
 396 136 l 5,2,-1
 315 136 l 5,3,-1
 315 540 l 5,4,-1
 84 540 l 5,5,-1
 84 608 l 5,0,-1
448 610 m 5,6,-1
 756 610 l 5,7,-1
 756 137 l 5,8,-1
 674 137 l 5,9,-1
 674 542 l 5,10,-1
 448 542 l 5,11,-1
 448 610 l 5,6,-1
EndSplineSet




EndChar

StartChar: l
Encoding: 108 108 78
Width: 840
GlyphClass: 2
Flags: W
LayerCount: 2
Fore
SplineSet
429 677 m 4,0,1
 492 677 492 677 534 641.5 c 132,-1,2
 576 606 576 606 576 548 c 260,3,4
 576 490 576 490 534 454.5 c 132,-1,5
 492 419 492 419 429 419 c 4,6,7
 367 419 367 419 324.5 454.5 c 132,-1,8
 282 490 282 490 282 548 c 260,9,10
 282 606 282 606 324.5 641.5 c 132,-1,11
 367 677 367 677 429 677 c 4,0,1
429 616 m 260,12,13
 396 616 396 616 374.5 597 c 132,-1,14
 353 578 353 578 353 548 c 4,15,16
 353 517 353 517 374.5 497.5 c 132,-1,17
 396 478 396 478 429 478 c 260,18,19
 462 478 462 478 484 497.5 c 132,-1,20
 506 517 506 517 506 548 c 4,21,22
 506 578 506 578 484 597 c 132,-1,23
 462 616 462 616 429 616 c 260,12,13
11 360 m 1,24,-1
 829 360 l 1,25,-1
 829 293 l 1,26,-1
 11 293 l 1,27,-1
 11 360 l 1,24,-1
110 214 m 1,28,-1
 723 214 l 1,29,-1
 723 2 l 1,30,-1
 193 2 l 1,31,-1
 193 -112 l 1,32,-1
 112 -112 l 1,33,-1
 112 64 l 1,34,-1
 642 64 l 1,35,-1
 642 149 l 1,36,-1
 110 149 l 1,37,-1
 110 214 l 1,28,-1
112 -90 m 1,38,-1
 750 -90 l 1,39,-1
 750 -156 l 1,40,-1
 112 -156 l 1,41,-1
 112 -90 l 1,38,-1
EndSplineSet




EndChar

StartChar: m
Encoding: 109 109 79
Width: 840
GlyphClass: 2
Flags: W
LayerCount: 2
Fore
SplineSet
137.5 474 m 1,0,-1
 702.5 474 l 1,1,-1
 702.5 1 l 1,2,-1
 137.5 1 l 1,3,-1
 137.5 474 l 1,0,-1
619.5 406 m 1,4,-1
 220.5 406 l 1,5,-1
 220.5 69 l 1,6,-1
 619.5 69 l 1,7,-1
 619.5 406 l 1,4,-1
EndSplineSet




EndChar

StartChar: n
Encoding: 110 110 80
Width: 840
GlyphClass: 2
Flags: W
LayerCount: 2
Fore
SplineSet
133.5 69 m 1,0,-1
 706.5 69 l 1,1,-1
 706.5 1 l 1,2,-1
 133.5 1 l 1,3,-1
 133.5 69 l 1,0,-1
133.5 465 m 1,4,-1
 216.5 465 l 1,5,-1
 216.5 43 l 1,6,-1
 133.5 43 l 1,7,-1
 133.5 465 l 1,4,-1
EndSplineSet





EndChar

StartChar: o
Encoding: 111 111 81
Width: 840
GlyphClass: 2
Flags: W
LayerCount: 2
Fore
SplineSet
430 247.5 m 4,0,1
 405 247.5 405 247.5 387.5 263 c 132,-1,2
 370 278.5 370 278.5 370 305.5 c 4,3,4
 370 331.5 370 331.5 387.5 353 c 132,-1,5
 405 374.5 405 374.5 433 374.5 c 4,6,7
 492 374.5 492 374.5 492 314.5 c 4,8,9
 492 290.5 492 290.5 474.5 269 c 132,-1,10
 457 247.5 457 247.5 430 247.5 c 4,0,1
396 294.5 m 260,11,12
 401 294.5 401 294.5 401.5 301.5 c 132,-1,13
 402 308.5 402 308.5 404 312.5 c 4,14,15
 408 323.5 408 323.5 415 331.5 c 132,-1,16
 422 339.5 422 339.5 428 350.5 c 4,17,18
 429 352.5 429 352.5 427.5 355.5 c 132,-1,19
 426 358.5 426 358.5 424 358.5 c 4,20,21
 418 358.5 418 358.5 412 352.5 c 132,-1,22
 406 346.5 406 346.5 401 338 c 132,-1,23
 396 329.5 396 329.5 393 320.5 c 132,-1,24
 390 311.5 390 311.5 390 306.5 c 4,25,26
 390 304.5 390 304.5 390.5 299.5 c 132,-1,27
 391 294.5 391 294.5 396 294.5 c 260,11,12
417.5 -10 m 0,28,29
 345.5 -10 345.5 -10 292 17.5 c 128,-1,30
 238.5 45 238.5 45 203.5 88.5 c 128,-1,31
 168.5 132 168.5 132 151 186 c 128,-1,32
 133.5 240 133.5 240 133.5 294 c 0,33,34
 133.5 360 133.5 360 153.5 416 c 128,-1,35
 173.5 472 173.5 472 211 512.5 c 128,-1,36
 248.5 553 248.5 553 302.5 576 c 128,-1,37
 356.5 599 356.5 599 423.5 599 c 0,38,39
 485.5 599 485.5 599 537.5 576.5 c 128,-1,40
 589.5 554 589.5 554 627 514.5 c 128,-1,41
 664.5 475 664.5 475 685.5 420.5 c 128,-1,42
 706.5 366 706.5 366 706.5 303 c 0,43,44
 706.5 239 706.5 239 685 182 c 128,-1,45
 663.5 125 663.5 125 625 82.5 c 128,-1,46
 586.5 40 586.5 40 533.5 15 c 128,-1,47
 480.5 -10 480.5 -10 417.5 -10 c 0,28,29
419.5 67 m 0,48,49
 520.5 67 520.5 67 572 130.5 c 128,-1,50
 623.5 194 623.5 194 623.5 303 c 0,51,52
 623.5 347 623.5 347 610 387.5 c 128,-1,53
 596.5 428 596.5 428 570.5 459 c 128,-1,54
 544.5 490 544.5 490 507.5 508.5 c 128,-1,55
 470.5 527 470.5 527 423.5 527 c 0,56,57
 378.5 527 378.5 527 341 509 c 128,-1,58
 303.5 491 303.5 491 276.5 461 c 128,-1,59
 249.5 431 249.5 431 234.5 391 c 128,-1,60
 219.5 351 219.5 351 219.5 306 c 256,61,62
 219.5 261 219.5 261 233 218 c 128,-1,63
 246.5 175 246.5 175 272 141.5 c 128,-1,64
 297.5 108 297.5 108 334.5 87.5 c 128,-1,65
 371.5 67 371.5 67 419.5 67 c 0,48,49
EndSplineSet



EndChar

StartChar: p
Encoding: 112 112 82
Width: 840
GlyphClass: 2
Flags: W
LayerCount: 2
Fore
SplineSet
110.5 479 m 1,0,-1
 187.5 479 l 1,1,-1
 187.5 315 l 1,2,-1
 324.5 315 l 1,3,-1
 324.5 479 l 1,4,-1
 400.5 479 l 1,5,-1
 400.5 0 l 1,6,-1
 110.5 0 l 1,7,-1
 110.5 479 l 1,0,-1
187.5 247 m 1,8,-1
 187.5 69 l 1,9,-1
 324.5 69 l 1,10,-1
 324.5 247 l 1,11,-1
 187.5 247 l 1,8,-1
438.5 479 m 1,12,-1
 515.5 479 l 1,13,-1
 515.5 315 l 1,14,-1
 652.5 315 l 1,15,-1
 652.5 479 l 1,16,-1
 729.5 479 l 1,17,-1
 729.5 0 l 1,18,-1
 438.5 0 l 1,19,-1
 438.5 479 l 1,12,-1
515.5 247 m 1,20,-1
 515.5 69 l 1,21,-1
 652.5 69 l 1,22,-1
 652.5 247 l 1,23,-1
 515.5 247 l 1,20,-1
EndSplineSet




EndChar

StartChar: q
Encoding: 113 113 83
Width: 840
GlyphClass: 2
Flags: W
LayerCount: 2
Fore
SplineSet
466.487304688 55.400390625 m 0,0,1
 463.756835938 54 463.756835938 54 463.231445312 46.400390625 c 128,-1,2
 462.756835938 39 462.756835938 39 463.231445312 28.400390625 c 0,3,4
 464.756835938 6 464.756835938 6 467.227539062 -16.7001953125 c 0,5,6
 470.756835938 -70 470.756835938 -70 470.756835938 -83 c 0,7,8
 470.756835938 -95 470.756835938 -95 461.756835938 -109.5 c 128,-1,9
 452.756835938 -124 452.756835938 -124 427.756835938 -124 c 260,10,11
 402.756835938 -124 402.756835938 -124 394.256835938 -108.5 c 128,-1,12
 385.756835938 -93 385.756835938 -93 385.756835938 -75 c 0,13,14
 385.756835938 -61 385.756835938 -61 387.0625 -9.0498046875 c 0,15,16
 388.756835938 33 388.756835938 33 388.3671875 35.599609375 c 0,17,18
 388.756835938 51 388.756835938 51 383.716796875 53.599609375 c 0,19,20
 347.756835938 68 347.756835938 68 321.872070312 95 c 0,21,22
 296.756835938 122 296.756835938 122 280.952148438 158 c 0,23,24
 265.756835938 194 265.756835938 194 258.631835938 236.75 c 0,25,26
 251.756835938 279 251.756835938 279 251.657226562 323.599609375 c 0,27,28
 251.756835938 373 251.756835938 373 259.561523438 424.849609375 c 0,29,30
 267.756835938 477 267.756835938 477 286.997070312 519.349609375 c 0,31,32
 306.756835938 562 306.756835938 562 339.077148438 589.099609375 c 0,33,34
 371.756835938 616 371.756835938 616 420.916992188 616.099609375 c 256,35,36
 469.756835938 616 469.756835938 616 502.291992188 592.25 c 0,37,38
 534.756835938 568 534.756835938 568 553.44140625 528.349609375 c 0,39,40
 572.756835938 488 572.756835938 488 580.412109375 437 c 0,41,42
 588.756835938 386 588.756835938 386 588.31640625 331.700195312 c 0,43,44
 588.756835938 285 588.756835938 285 581.806640625 241.25 c 0,45,46
 575.756835938 198 575.756835938 198 560.416992188 161.150390625 c 0,47,48
 545.756835938 125 545.756835938 125 522.287109375 97.7001953125 c 0,49,50
 501.756835938 73 501.756835938 73 466.487304688 55.400390625 c 0,0,1
316.756835938 509.900390625 m 0,51,52
 321.756835938 520 321.756835938 520 331.63671875 535.549804688 c 0,53,54
 341.756835938 551 341.756835938 551 353.026367188 560.299804688 c 0,55,56
 358.756835938 565 358.756835938 565 354.421875 569.75 c 0,57,58
 349.756835938 575 349.756835938 575 348.376953125 574.700195312 c 0,59,60
 342.756835938 575 342.756835938 575 334.891601562 565.700195312 c 0,61,62
 326.756835938 557 326.756835938 557 319.08203125 544.549804688 c 0,63,64
 310.756835938 532 310.756835938 532 305.596679688 518.900390625 c 0,65,66
 299.756835938 505 299.756835938 505 300.016601562 497.299804688 c 0,67,68
 299.756835938 490 299.756835938 490 304.666992188 490.099609375 c 0,69,70
 306.756835938 490 306.756835938 490 316.756835938 509.900390625 c 0,51,52
420.916992188 105.799804688 m 0,71,72
 443.756835938 106 443.756835938 106 458.58203125 130.549804688 c 0,73,74
 472.756835938 155 472.756835938 155 480.901367188 190.849609375 c 0,75,76
 488.756835938 226 488.756835938 226 491.596679688 265.549804688 c 0,77,78
 493.028320312 283.423828125 493.028320312 283.423828125 494.38671875 332.599609375 c 0,79,80
 494.756835938 346 494.756835938 346 492.9921875 367.700195312 c 0,81,82
 491.756835938 389 491.756835938 389 488.341796875 414.5 c 128,-1,83
 484.756835938 440 484.756835938 440 479.971679688 465.799804688 c 0,84,85
 474.756835938 492 474.756835938 492 466.487304688 513.049804688 c 0,86,87
 457.756835938 534 457.756835938 534 446.95703125 547.25 c 0,88,89
 435.756835938 560 435.756835938 560 420.916992188 560.299804688 c 256,90,91
 405.756835938 560 405.756835938 560 394.876953125 546.799804688 c 0,92,93
 383.756835938 533 383.756835938 533 375.811523438 511.700195312 c 0,94,95
 367.756835938 490 367.756835938 490 362.791992188 464 c 128,-1,96
 357.756835938 438 357.756835938 438 354.88671875 412.700195312 c 0,97,98
 351.756835938 387 351.756835938 387 351.166992188 365.900390625 c 0,99,100
 349.756835938 344 349.756835938 344 350.237304688 331.700195312 c 0,101,102
 349.756835938 304 349.756835938 304 353.026367188 264.650390625 c 0,103,104
 355.756835938 225 355.756835938 225 363.721679688 190.400390625 c 0,105,106
 371.756835938 155 371.756835938 155 385.112304688 130.549804688 c 0,107,108
 398.756835938 106 398.756835938 106 420.916992188 105.799804688 c 0,71,72
303.737304688 470.299804688 m 0,109,110
 303.756835938 479 303.756835938 479 301.876953125 481.549804688 c 0,111,112
 299.756835938 484 299.756835938 484 295.3671875 483.799804688 c 256,113,114
 290.756835938 484 290.756835938 484 288.391601562 478.849609375 c 0,115,116
 285.756835938 474 285.756835938 474 286.06640625 468.5 c 0,117,118
 285.756835938 461 285.756835938 461 289.322265625 458.599609375 c 128,-1,119
 292.756835938 456 292.756835938 456 295.3671875 455.900390625 c 0,120,121
 296.756835938 456 296.756835938 456 300.481445312 459.5 c 0,122,123
 303.756835938 463 303.756835938 463 303.737304688 470.299804688 c 0,109,110
432.756835938 -97 m 0,124,125
 432.756835938 -91 432.756835938 -91 429.756835938 -87.5 c 128,-1,126
 426.756835938 -84 426.756835938 -84 423.256835938 -81 c 128,-1,127
 419.756835938 -78 419.756835938 -78 416.756835938 -75.5 c 128,-1,128
 413.756835938 -73 413.756835938 -73 413.756835938 -68 c 0,129,130
 413.756835938 -50 413.756835938 -50 404.756835938 -50 c 0,131,132
 399.756835938 -50 399.756835938 -50 399.756835938 -70 c 0,133,134
 399.756835938 -80 399.756835938 -80 405.256835938 -94.5 c 128,-1,135
 410.756835938 -109 410.756835938 -109 421.756835938 -109 c 0,136,137
 425.756835938 -109 425.756835938 -109 429.256835938 -106.5 c 128,-1,138
 432.756835938 -104 432.756835938 -104 432.756835938 -97 c 0,124,125
EndSplineSet


EndChar

StartChar: r
Encoding: 114 114 84
Width: 840
GlyphClass: 2
Flags: W
LayerCount: 2
Fore
SplineSet
411 -82 m 0,0,1
 348 -82 348 -82 306 -46.5 c 128,-1,2
 264 -11 264 -11 264 47 c 256,3,4
 264 105 264 105 306 140.5 c 128,-1,5
 348 176 348 176 411 176 c 0,6,7
 473 176 473 176 515.5 140.5 c 128,-1,8
 558 105 558 105 558 47 c 256,9,10
 558 -11 558 -11 515.5 -46.5 c 128,-1,11
 473 -82 473 -82 411 -82 c 0,0,1
411 -21 m 256,12,13
 444 -21 444 -21 465.5 -2 c 128,-1,14
 487 17 487 17 487 47 c 0,15,16
 487 78 487 78 465.5 97.5 c 128,-1,17
 444 117 444 117 411 117 c 256,18,19
 378 117 378 117 356 97.5 c 128,-1,20
 334 78 334 78 334 47 c 0,21,22
 334 17 334 17 356 -2 c 128,-1,23
 378 -21 378 -21 411 -21 c 256,12,13
829 235 m 1,24,-1
 11 235 l 1,25,-1
 11 302 l 1,26,-1
 829 302 l 1,27,-1
 829 235 l 1,24,-1
730 381 m 1,28,-1
 117 381 l 1,29,-1
 117 593 l 1,30,-1
 647 593 l 1,31,-1
 647 707 l 1,32,-1
 728 707 l 1,33,-1
 728 531 l 1,34,-1
 198 531 l 1,35,-1
 198 446 l 1,36,-1
 730 446 l 1,37,-1
 730 381 l 1,28,-1
728 685 m 1,38,-1
 90 685 l 1,39,-1
 90 751 l 1,40,-1
 728 751 l 1,41,-1
 728 685 l 1,38,-1
EndSplineSet


EndChar

